<?xml version="1.0" standalone="no"?>
<!DOCTYPE svg PUBLIC "-//W3C//DTD SVG 1.1//EN" "http://www.w3.org/Graphics/SVG/1.1/DTD/svg11.dtd" >
<svg xmlns="http://www.w3.org/2000/svg" xmlns:xlink="http://www.w3.org/1999/xlink" version="1.1">
<metadata>
Created by FontForge 20170731 at Sat Oct 14 21:34:54 2023
 By Aleksey,,,
Copyright (c) 2014 by (c) 2009 Designed by Svetoslav Simov (c) Fontfabric, Inc. All rights reserved.
</metadata>
<defs>
<font id="UniSansThinCAPS" horiz-adv-x="1228" >
  <font-face 
    font-family="Uni Sans Thin CAPS"
    font-weight="250"
    font-variant="small-caps"
    font-stretch="normal"
    units-per-em="2048"
    panose-1="0 0 5 0 0 0 0 0 0 0"
    ascent="1548"
    descent="-500"
    x-height="1450"
    cap-height="1450"
    bbox="6 -510 2038 1886"
    underline-thickness="102"
    underline-position="-307"
    unicode-range="U+0020-FB02"
  />
<missing-glyph horiz-adv-x="1153" 
d="M1049 1450v-1450h-955v1450h955zM158 1417l413 -674l414 674h-827zM553 717l-426 692v-1366zM1016 1409l-426 -692l426 -674v1366zM571 688l-413 -655h827z" />
    <glyph glyph-name="fi" unicode="fi" horiz-adv-x="1515" 
d="M1026 1399h-784v-676h712v-51h-712v-672h-52v1450h836v-51zM1325 1450v-1450h-51v1450h51z" />
    <glyph glyph-name="fl" unicode="fl" horiz-adv-x="2082" 
d="M1026 1399h-784v-676h712v-51h-712v-672h-52v1450h836v-51zM2038 0h-776v1450h51v-1399h725v-51z" />
    <glyph glyph-name=".notdef" horiz-adv-x="1153" 
d="M1049 1450v-1450h-955v1450h955zM158 1417l413 -674l414 674h-827zM553 717l-426 692v-1366zM1016 1409l-426 -692l426 -674v1366zM571 688l-413 -655h827z" />
    <glyph glyph-name=".null" horiz-adv-x="0" 
 />
    <glyph glyph-name="nonmarkingreturn" horiz-adv-x="682" 
 />
    <glyph glyph-name="space" unicode=" " horiz-adv-x="503" 
 />
    <glyph glyph-name="exclam" unicode="!" horiz-adv-x="397" 
d="M172 270v1182h51v-1182h-51zM135 61q0 26 19 45t45 19t44.5 -19t18.5 -45t-18.5 -44.5t-44.5 -18.5t-45 18.5t-19 44.5z" />
    <glyph glyph-name="quotedbl" unicode="&#x22;" horiz-adv-x="544" 
d="M211 1450l-25 -360h-26v360h51zM399 1450l-24 -360h-27v360h51z" />
    <glyph glyph-name="numbersign" unicode="#" horiz-adv-x="1492" 
d="M936 530h379l-12 -41h-379l-148 -489h-49l150 489h-410l-148 -489h-49l150 489h-328l10 41h332l117 400h-377l12 43h379l142 479h47l-144 -479h412l139 479h51l-145 -479h334l-15 -43h-335zM596 930l-117 -400h412l117 400h-412z" />
    <glyph glyph-name="dollar" unicode="$" horiz-adv-x="1198" 
d="M625 1616v-146q139 -5 250.5 -60t173.5 -163l-48 -18q-52 89 -153.5 138t-222.5 54v-659q78 -16 137.5 -34t123 -50.5t105 -74t68 -106t26.5 -145.5q0 -88 -39.5 -161t-105.5 -118.5t-147 -70.5t-168 -25v-172h-41v172q-138 0 -263.5 58.5t-201.5 173.5l47 20
q66 -96 179 -150t239 -54v694q-52 11 -93 21.5t-90 28.5t-86 38t-73 50t-59 65.5t-37.5 83.5t-14.5 104q0 90 38.5 160.5t103.5 112.5t144 63.5t167 23.5v146h41zM182 1110q0 -61 21 -111t56 -85t88 -63.5t109 -46.5t128 -34v651q-77 -2 -147.5 -22t-128.5 -57t-92 -97
t-34 -135zM1028 352q0 68 -22 122t-57 90.5t-90 66t-108.5 47t-125.5 33.5v-686q74 0 144.5 21.5t129 61t94 103t35.5 141.5z" />
    <glyph glyph-name="percent" unicode="%" horiz-adv-x="1462" 
d="M1257 1497l-1005 -1595q-9 5 -23.5 14t-19.5 12l1008 1594zM664 1075q0 -169 -79 -268.5t-204 -99.5q-136 0 -209.5 95.5t-73.5 276.5q0 174 78 270.5t205 96.5q133 0 208 -97.5t75 -273.5zM606 1075q0 161 -59 239.5t-168 78.5q-113 0 -167 -78t-54 -236
q0 -168 53.5 -242.5t169.5 -74.5q114 0 169.5 76t55.5 237zM1364 354q0 -169 -79 -268.5t-204 -99.5q-136 0 -209 95.5t-73 276.5q0 174 78 270.5t204 96.5q133 0 208 -97.5t75 -273.5zM1307 352q0 161 -60.5 239.5t-169.5 78.5q-223 0 -223 -312q0 -167 54 -242t171 -75
q114 0 171 76t57 235z" />
    <glyph glyph-name="ampersand" unicode="&#x26;" horiz-adv-x="1247" 
d="M928 338l127 201l35 -19l-129 -211l225 -256h-60l-188 211q-66 -89 -128.5 -146.5t-142 -91.5t-169.5 -34q-170 0 -285 102.5t-115 270.5q0 248 338 446q-85 100 -135.5 185.5t-50.5 164.5q0 132 95 212.5t228 80.5q116 0 201.5 -77t85.5 -193q0 -64 -24.5 -120t-71 -100
t-93.5 -75.5t-112 -65.5l-47 -28zM567 1409q-110 0 -188 -69.5t-78 -174.5q0 -132 180 -336q59 29 101.5 53.5t88.5 58.5t74.5 67t47 76.5t18.5 91.5q0 102 -69 167.5t-175 65.5zM905 293l-438 489q-317 -185 -317 -413q0 -153 97.5 -243.5t266.5 -90.5q115 0 214.5 73.5
t176.5 184.5z" />
    <glyph glyph-name="quotesingle" unicode="'" horiz-adv-x="364" 
d="M215 1450l-16 -363h-39v363h55z" />
    <glyph glyph-name="parenleft" unicode="(" horiz-adv-x="503" 
d="M383 1561l37 -29q-121 -177 -182.5 -391.5t-61.5 -442.5q0 -227 64.5 -443t189.5 -396l-39 -23q-132 190 -200 413t-68 453q0 227 66.5 448.5t193.5 410.5z" />
    <glyph glyph-name="parenright" unicode=")" horiz-adv-x="503" 
d="M125 -225l-43 26q244 373 244 838q0 230 -63.5 453t-186.5 419l33 21l-3 -2q1 0 2.5 1t4 2.5t4.5 2.5q129 -190 196.5 -421t67.5 -472q0 -494 -256 -868z" />
    <glyph glyph-name="asterisk" unicode="*" horiz-adv-x="905" 
d="M477 1452l-4 -317q87 27 148.5 48.5t100 36t52.5 19.5l12 -41l-301 -94l195 -266l-33 -23l-192 266q-30 -45 -98.5 -137t-94.5 -129l-33 27l203 262q-29 9 -311 96q2 7 4 21t4 20l311 -104q0 49 -2 157t-2 158h41z" />
    <glyph glyph-name="plus" unicode="+" horiz-adv-x="1181" 
d="M575 721v463h46v-463h456v-47h-456v-465h-46v465h-473v47h473z" />
    <glyph glyph-name="comma" unicode="," horiz-adv-x="393" 
d="M244 84l-140 -332h-45l113 332h72z" />
    <glyph glyph-name="hyphen" unicode="-" horiz-adv-x="862" 
d="M707 639v-49h-551v49h551z" />
    <glyph glyph-name="period" unicode="." horiz-adv-x="438" 
d="M156 57q0 26 18.5 45t44.5 19t45 -19t19 -45t-19 -44.5t-45 -18.5t-44.5 18.5t-18.5 44.5z" />
    <glyph glyph-name="slash" unicode="/" horiz-adv-x="761" 
d="M662 1481l36 -13q-167 -423 -298 -754.5t-192.5 -487.5t-101.5 -257q-35 9 -43 13z" />
    <glyph glyph-name="zero" unicode="0" horiz-adv-x="1280" 
d="M641 -20q-89 0 -174 24t-156.5 70t-115 122t-43.5 171v716q0 96 43.5 172t115 122t156 69.5t174.5 23.5q89 0 173.5 -23.5t155.5 -69.5t114.5 -122t43.5 -172v-716q0 -95 -43.5 -171t-114.5 -122t-155.5 -70t-173.5 -24zM203 1083v-716q0 -72 26.5 -130t69.5 -95.5
t101 -63t118 -36.5t123 -11q62 0 122 11t117.5 36.5t100.5 63t69.5 95.5t26.5 130v716q0 89 -39.5 157t-105 105.5t-139 55.5t-152.5 18q-63 0 -123 -10.5t-118 -36t-101 -63t-69.5 -96t-26.5 -130.5z" />
    <glyph glyph-name="one" unicode="1" horiz-adv-x="595" 
d="M408 1450v-1450h-50v1399l-284 -301l-33 28l297 324h70z" />
    <glyph glyph-name="two" unicode="2" horiz-adv-x="1124" 
d="M555 1419q-133 4 -233 -50.5t-156 -160.5l-45 21q60 124 165.5 181.5t270.5 59.5q192 -1 318 -111t126 -272q0 -81 -45.5 -171.5t-128.5 -176.5l-659 -688h836v-51h-891l-23 47l698 731q160 167 160 312q0 135 -108.5 229t-284.5 100z" />
    <glyph glyph-name="three" unicode="3" horiz-adv-x="1163" 
d="M92 195l43 26q73 -100 173.5 -146t240.5 -46q84 0 162 23t140.5 66t100 112t37.5 153q0 186 -104.5 283.5t-290.5 95.5h-139v49h139q148 0 239 79t91 228q0 76 -33 136t-88 96t-121.5 54.5t-138.5 18.5q-113 0 -204.5 -39t-145.5 -118l-41 20q118 184 395 184
q65 0 126 -13t116 -41.5t95.5 -69t64.5 -99.5t24 -129q0 -236 -203 -325q79 -29 134 -72.5t83.5 -99t40.5 -113t12 -127.5q-1 -96 -43.5 -173.5t-112 -126.5t-156 -75t-179.5 -26q-313 0 -457 215z" />
    <glyph glyph-name="four" unicode="4" horiz-adv-x="1171" 
d="M934 455h141v-47h-141v-408h-51v408h-787l-33 61l799 981h72v-995zM885 1401l-770 -946h768z" />
    <glyph glyph-name="five" unicode="5" horiz-adv-x="1175" 
d="M125 190l49 25q57 -86 166 -135t231 -49q443 0 443 481q0 114 -60.5 200.5t-157 129.5t-210.5 43q-116 0 -208.5 -21.5t-191.5 -72.5l-22 -3v662h827v-47h-776v-547q189 81 373 78q72 -1 140 -17t129.5 -50t107.5 -82.5t73.5 -118t28.5 -152.5q0 -253 -119 -395
t-377 -142q-142 0 -260 54t-186 159z" />
    <glyph glyph-name="six" unicode="6" horiz-adv-x="1265" 
d="M1094 1274l-47 -25q-54 88 -157.5 130t-234.5 42q-88 0 -168 -21.5t-144 -62t-102 -107t-38 -149.5v-426q38 66 93.5 113t119 70.5t121 33t118.5 9.5q76 -1 147.5 -16.5t134.5 -47.5t110 -76.5t74.5 -108t27.5 -138.5v-127q0 -93 -41.5 -168t-112 -122t-158 -72
t-182.5 -25q-96 -1 -185 24t-160.5 71.5t-114.5 122.5t-43 169v716q0 93 43 169t114.5 122.5t160.5 71.5t185 24q144 0 260.5 -49t178.5 -147zM1098 369v123q0 109 -64.5 187.5t-163 115t-215.5 36.5q-120 0 -220 -36t-166 -114.5t-66 -188.5v-123q0 -83 38 -149.5t102 -107
t144 -62t168 -21.5q117 0 215.5 36.5t163 115.5t64.5 188z" />
    <glyph glyph-name="seven" unicode="7" horiz-adv-x="1009" 
d="M80 1401v49h858l29 -49l-766 -1401h-58l764 1401h-827z" />
    <glyph glyph-name="eight" unicode="8" horiz-adv-x="1257" 
d="M647 -20h-39q-125 0 -233.5 46.5t-180 142t-73.5 222.5q0 151 70 248.5t221 142.5q-62 20 -107 57.5t-69.5 84t-36 94.5t-11.5 100q1 84 36.5 152.5t94.5 111.5t133.5 65.5t155.5 22.5h39q81 0 155 -22.5t134 -65.5t95.5 -111.5t35.5 -152.5q0 -50 -11 -97t-34.5 -93.5
t-68.5 -84t-107 -59.5q288 -80 291 -393q-2 -96 -44 -175t-111 -130t-155.5 -78.5t-179.5 -27.5zM647 1425h-39q-99 0 -181 -31.5t-136.5 -103t-54.5 -172.5q0 -70 21.5 -125.5t57 -90.5t84.5 -57.5t100.5 -32t108.5 -9.5h39q73 0 136 16t118 50.5t87 98t32 150.5
q0 76 -31 136.5t-84.5 96.5t-119 55t-138.5 19zM608 27h39q62 0 123 13.5t118 43.5t100.5 72t70 103.5t26.5 133.5q0 369 -438 369h-39q-438 0 -438 -369q0 -72 26.5 -133.5t70 -103.5t100.5 -72t118 -43.5t123 -13.5z" />
    <glyph glyph-name="nine" unicode="9" horiz-adv-x="1265" 
d="M174 184l49 25q55 -89 157 -134.5t230 -45.5q88 0 168.5 22.5t144.5 64.5t102 109t38 150v403q-37 -56 -83 -96t-89 -61.5t-96 -33.5t-93 -15t-92 -3q-76 1 -147.5 16.5t-134 47.5t-109.5 76.5t-74.5 108t-27.5 138.5v127q0 93 41.5 168t111.5 122t157.5 72t182.5 25
q97 1 185 -23t159.5 -70t115 -122t44.5 -172v-714q0 -93 -43 -169t-114.5 -123.5t-161 -72.5t-185.5 -24q-306 0 -436 204zM168 1081v-123q0 -109 64 -188t162.5 -115.5t215.5 -36.5q89 0 169 21.5t144.5 62t103 107t38.5 149.5v123q0 83 -38.5 149.5t-103 107t-144.5 62
t-169 21.5q-117 0 -215.5 -36.5t-162.5 -115.5t-64 -188z" />
    <glyph glyph-name="colon" unicode=":" horiz-adv-x="438" 
d="M156 891q0 26 18.5 44.5t44.5 18.5t45 -18.5t19 -44.5t-19 -45t-45 -19t-44.5 19t-18.5 45zM156 117q0 26 18.5 44.5t44.5 18.5t45 -18.5t19 -44.5t-19 -45t-45 -19t-44.5 19t-18.5 45z" />
    <glyph glyph-name="semicolon" unicode=";" horiz-adv-x="557" 
d="M223 860q0 26 19 45t45 19t44.5 -19t18.5 -45t-18.5 -44.5t-44.5 -18.5t-45 18.5t-19 44.5zM342 92l-123 -295h-51l90 295h84z" />
    <glyph glyph-name="less" unicode="&#x3c;" horiz-adv-x="905" 
d="M143 621l615 -359v-51q-111 67 -329.5 191.5t-330.5 191.5v53l660 389v-53z" />
    <glyph glyph-name="equal" unicode="=" horiz-adv-x="1083" 
d="M924 782v-45h-764v45h764zM924 500v-45h-764v45h764z" />
    <glyph glyph-name="greater" unicode="&#x3e;" horiz-adv-x="911" 
d="M147 983v53q112 -68 333.5 -194.5t332.5 -194.5v-53l-666 -383v47l623 363q-75 44 -292.5 170.5t-330.5 191.5z" />
    <glyph glyph-name="question" unicode="?" horiz-adv-x="925" 
d="M100 1290l-28 29q66 64 157 102.5t183 38.5q82 0 157.5 -25t136.5 -71.5t97 -121.5t35 -167q-1 -94 -36 -173t-94 -132.5t-134 -86.5t-158 -42l-13 -395h-36l-9 430q116 7 214 56.5t159.5 140t59.5 204.5q-2 108 -58 186t-140.5 114t-184.5 36q-76 0 -161 -35t-147 -88z
M385 104q22 0 38.5 -16t16.5 -39t-16.5 -38t-38.5 -15q-23 0 -39 15t-16 38t16 39t39 16z" />
    <glyph glyph-name="at" unicode="@" horiz-adv-x="1595" 
d="M1208 971l-180 -537l-12 -36t-9.5 -35.5t-6 -36t2 -30t11 -26.5t25 -15.5t40.5 -6.5q91 0 177 70.5t140 190t54 251.5q0 160 -86 284t-223.5 187t-298.5 63q-195 0 -350 -90.5t-239.5 -245t-84.5 -342.5q0 -118 31.5 -220.5t87 -179t133 -131t168.5 -80t195 -22.5t210 37
l13 -38q-111 -36 -221.5 -39.5t-207.5 23t-180.5 84t-143.5 138t-94 191t-34 237.5q0 153 56 287.5t152 229.5t227.5 149.5t277.5 54.5q185 0 334 -71.5t236 -204t87 -301.5q0 -125 -43.5 -235.5t-109.5 -180t-142.5 -108t-144.5 -33.5q-129 8 -92 168q-125 -174 -297 -174
q-112 0 -174 76t-62 188q0 102 31 200.5t85.5 178t139 128t182.5 48.5q27 0 51.5 -4t56 -17.5t54.5 -35.5t41 -63.5t23 -96.5l10 -2l61 174h43zM471 465q0 -100 56 -163.5t149 -63.5q59 0 116 31t102.5 83t80.5 113.5t57 128.5q17 50 23.5 103t0 105t-27 91.5t-64 62.5
t-104.5 19q-75 1 -140 -31.5t-109.5 -86t-77 -121.5t-47.5 -137.5t-15 -133.5z" />
    <glyph glyph-name="A" unicode="A" 
d="M285 518l-193 -518h-55l536 1450h82l537 -1450h-55l-193 518h-659zM618 1401h-8l-307 -832h623z" />
    <glyph glyph-name="B" unicode="B" horiz-adv-x="1284" 
d="M891 770l72 -25q57 -24 99.5 -65.5t65 -91.5t32.5 -99.5t9 -101.5q-2 -109 -36.5 -186t-97 -120t-140 -62t-176.5 -19h-529v1450h531q166 0 272.5 -93t106.5 -259q0 -96 -36.5 -173t-109.5 -120zM242 793h479q150 0 240 76t90 227q0 147 -93 227t-237 80h-479v-610z
M242 49h479q185 -3 291 78.5t106 261.5q0 357 -397 354h-479v-694z" />
    <glyph glyph-name="C" unicode="C" horiz-adv-x="1196" 
d="M160 385v680q0 96 44 175t117.5 128t164 75.5t188.5 26.5q143 0 265.5 -53.5t184.5 -154.5l-45 -33q-55 91 -168.5 141.5t-242.5 50.5q-86 0 -166.5 -22.5t-146 -65.5t-105 -112.5t-39.5 -155.5v-680q0 -86 39.5 -155t105 -111.5t146 -65t166.5 -22.5q129 0 241 46.5
t170 135.5l45 -23q-62 -101 -187 -155.5t-269 -54.5q-77 0 -150 16t-138 49.5t-114 81t-77.5 114t-28.5 144.5z" />
    <glyph glyph-name="D" unicode="D" horiz-adv-x="1312" 
d="M190 1450h490q98 0 180.5 -23t147.5 -68.5t102 -121.5t37 -176v-674q0 -99 -37 -174.5t-102 -121.5t-147.5 -68.5t-180.5 -22.5h-490v1450zM242 51h438q88 0 162 19t131.5 58.5t90 105.5t32.5 153v674q0 88 -32.5 154.5t-90 106t-131 58.5t-162.5 19h-438v-1348z" />
    <glyph glyph-name="E" unicode="E" horiz-adv-x="1157" 
d="M242 1399v-649h749v-56h-749v-643h811v-51h-863v1450h863v-51h-811z" />
    <glyph glyph-name="F" unicode="F" horiz-adv-x="1099" 
d="M1026 1399h-784v-676h712v-51h-712v-672h-52v1450h836v-51z" />
    <glyph glyph-name="G" unicode="G" horiz-adv-x="1298" 
d="M160 391v674q0 96 43.5 175t115.5 128t162 75.5t187 26.5q142 0 264 -54.5t184 -155.5l-47 -31q-53 95 -162.5 142.5t-242.5 47.5q-87 0 -167 -22.5t-144.5 -65t-103 -111.5t-38.5 -155v-674q0 -88 39 -158.5t104 -114t145.5 -66.5t168.5 -23q87 0 167.5 23t146 66.5
t105 114.5t39.5 158v275h-444v49h496v-324q0 -99 -43.5 -179t-116.5 -129.5t-163 -76t-187 -26.5t-186.5 26.5t-162 76t-116 129.5t-43.5 179z" />
    <glyph glyph-name="H" unicode="H" horiz-adv-x="1398" 
d="M242 698v-698h-52v1450h52v-700h915v700h51v-1450h-51v698h-915z" />
    <glyph glyph-name="I" unicode="I" horiz-adv-x="432" 
d="M242 1450v-1450h-52v1450h52z" />
    <glyph glyph-name="J" unicode="J" horiz-adv-x="1181" 
d="M467 1403v47h534v-1067q0 -96 -41.5 -174.5t-111 -127.5t-155.5 -75t-179 -26q-103 0 -195 32t-164 99.5t-100 160.5l51 17q29 -87 98 -148t148 -86.5t164 -25.5q82 0 158 22t138.5 64.5t100 111.5t37.5 156v1020h-483z" />
    <glyph glyph-name="K" unicode="K" horiz-adv-x="1210" 
d="M242 1450v-881l858 881h65l-669 -698l669 -752h-59l-647 715l-217 -217v-498h-52v1450h52z" />
    <glyph glyph-name="L" unicode="L" horiz-adv-x="1009" 
d="M967 0h-777v1450h52v-1399h725v-51z" />
    <glyph glyph-name="M" unicode="M" horiz-adv-x="1632" 
d="M782 229l-522 1170l-18 -2v-1397h-52v1450h109l518 -1174l516 1174h109v-1450h-51v1413h-19l-520 -1184h-70z" />
    <glyph glyph-name="N" unicode="N" horiz-adv-x="1374" 
d="M270 1450l863 -1401v1401h51v-1450h-88l-850 1384l-2 -1384h-54v1450h80z" />
    <glyph glyph-name="O" unicode="O" horiz-adv-x="1396" 
d="M158 391v670q0 98 46 178t122.5 129t171.5 75.5t198 26.5q82 0 160 -16t147 -50t121 -81.5t82.5 -115t30.5 -146.5v-670q0 -98 -46 -178t-123.5 -130t-173 -76.5t-198.5 -26.5t-198 26.5t-171.5 76.5t-122.5 130t-46 178zM209 1061v-670q0 -116 71.5 -199.5t179.5 -122
t236 -38.5q94 0 180 23t156 66t112 113.5t42 157.5v670q0 92 -42 163t-113 113t-156.5 63t-180.5 21q-95 -1 -179.5 -22.5t-154 -64t-110.5 -113t-41 -160.5z" />
    <glyph glyph-name="P" unicode="P" horiz-adv-x="1232" 
d="M242 0h-52v1450h512q107 -1 193.5 -40t140.5 -102t82.5 -139.5t28.5 -158.5q0 -81 -28.5 -156.5t-81.5 -137.5t-139 -99.5t-193 -38.5h-463v-578zM242 629h460q96 0 173 33t124 88t72 122.5t25 139.5q0 73 -25.5 141.5t-73 124.5t-124 90t-171.5 35h-460v-774z" />
    <glyph glyph-name="Q" unicode="Q" horiz-adv-x="1396" 
d="M1190 -35l-107 125q-162 -110 -385 -110q-103 0 -198 26.5t-171.5 76.5t-122.5 130t-46 178v670q0 98 46 178t122.5 129t171.5 75.5t198 26.5q81 0 158.5 -16t147 -50t121 -81.5t82 -115t30.5 -146.5v-670q0 -90 -28 -148.5t-89 -121.5l109 -129zM967 319l120 -157
q99 80 99 229v670q0 87 -41.5 157.5t-111.5 113.5t-155.5 66t-179.5 23q-95 -1 -179.5 -22.5t-154.5 -64t-111.5 -113t-41.5 -160.5v-670q0 -85 41.5 -155.5t110 -114.5t155 -68t180.5 -24q198 0 357 102l-127 160z" />
    <glyph glyph-name="R" unicode="R" horiz-adv-x="1251" 
d="M1116 0h-59l-488 647h-329v-647h-50v1450h512q443 0 451 -393q0 -410 -448 -410h-78zM240 692h465q201 0 300 87t99 276q0 96 -29.5 165t-84 109t-125 58t-160.5 16h-465v-711z" />
    <glyph glyph-name="S" unicode="S" horiz-adv-x="1183" 
d="M176 1118q-5 -63 16 -115t59 -88.5t96 -66t119 -48.5t136 -34q80 -16 144 -35t131 -54t111 -79t69.5 -111t19.5 -149q-8 -112 -80.5 -195t-178.5 -123t-228 -40q-143 0 -271 58t-206 175l47 20q69 -98 185.5 -151t248.5 -53q77 0 148 19t130.5 55.5t99 97t50.5 137.5
q4 54 -7 99.5t-31 79.5t-54 63t-69 48.5t-84 37t-90.5 28.5t-96.5 23q-53 11 -95.5 22t-93.5 29t-89.5 39t-76.5 52t-61.5 67.5t-37 85.5t-11.5 106q2 70 29.5 128.5t72 99.5t103.5 69t125.5 41.5t136.5 13.5q148 0 266.5 -55t183.5 -168l-47 -18q-55 94 -164.5 143
t-238.5 49q-80 0 -150 -17.5t-129 -52.5t-95.5 -95t-41.5 -138z" />
    <glyph glyph-name="T" unicode="T" horiz-adv-x="1107" 
d="M1063 1450v-51h-483v-1399h-52v1399h-483v51h1018z" />
    <glyph glyph-name="U" unicode="U" horiz-adv-x="1378" 
d="M231 1450v-1053q0 -89 39 -161t104 -116t145.5 -67.5t168.5 -23.5q69 0 135 14.5t125 44.5t103 73t70 103.5t26 132.5v1053h51v-1053q0 -100 -43.5 -181t-116.5 -131.5t-163 -77.5t-187 -27t-187 27t-162 77.5t-115.5 131.5t-43.5 181v1053h51z" />
    <glyph glyph-name="V" unicode="V" horiz-adv-x="1232" 
d="M1135 1452h57l-533 -1452h-81l-545 1450h59l522 -1391h11z" />
    <glyph glyph-name="W" unicode="W" horiz-adv-x="1898" 
d="M1790 1450h55l-424 -1450h-84l-387 1184l-389 -1184h-80l-430 1450h55l412 -1378h10l387 1161h68l389 -1165h12z" />
    <glyph glyph-name="X" unicode="X" horiz-adv-x="1120" 
d="M590 723l475 -723h-59l-445 688l-444 -688h-64l477 723l-475 727h58l448 -680l447 680h59z" />
    <glyph glyph-name="Y" unicode="Y" horiz-adv-x="1126" 
d="M586 575v-575h-51v575l-496 875h61l461 -817l475 817h64z" />
    <glyph glyph-name="Z" unicode="Z" horiz-adv-x="1124" 
d="M100 1405v45h942l19 -27l-932 -1378h903v-45h-952l-21 25l932 1380h-891z" />
    <glyph glyph-name="bracketleft" unicode="[" horiz-adv-x="485" 
d="M211 1495v-1696h188v-45h-237v1784h237v-43h-188z" />
    <glyph glyph-name="backslash" unicode="\" horiz-adv-x="788" 
d="M686 -59l-627 1577l39 14l633 -1577z" />
    <glyph glyph-name="bracketright" unicode="]" horiz-adv-x="487" 
d="M272 -207v1696h-184v49h238v-1796h-238v51h184z" />
    <glyph glyph-name="asciicircum" unicode="^" horiz-adv-x="1042" 
d="M485 1450h58q225 -331 372 -524h-55l-346 489l-334 -489h-55z" />
    <glyph glyph-name="underscore" unicode="_" horiz-adv-x="1206" 
d="M1079 -43v-45h-954v45h954z" />
    <glyph glyph-name="grave" unicode="`" horiz-adv-x="430" 
d="M193 1554l-148 211h72l127 -211h-51z" />
    <glyph glyph-name="a" unicode="a" 
d="M285 518l-193 -518h-55l536 1450h82l537 -1450h-55l-193 518h-659zM618 1401h-8l-307 -832h623z" />
    <glyph glyph-name="b" unicode="b" horiz-adv-x="1284" 
d="M891 770l72 -25q57 -24 99.5 -65.5t65 -91.5t32.5 -99.5t9 -101.5q-2 -109 -36.5 -186t-97 -120t-140 -62t-176.5 -19h-529v1450h531q166 0 272.5 -93t106.5 -259q0 -96 -36.5 -173t-109.5 -120zM242 793h479q150 0 240 76t90 227q0 147 -93 227t-237 80h-479v-610z
M242 49h479q185 -3 291 78.5t106 261.5q0 357 -397 354h-479v-694z" />
    <glyph glyph-name="c" unicode="c" horiz-adv-x="1196" 
d="M160 385v680q0 96 44 175t117.5 128t164 75.5t188.5 26.5q143 0 265.5 -53.5t184.5 -154.5l-45 -33q-55 91 -168.5 141.5t-242.5 50.5q-86 0 -166.5 -22.5t-146 -65.5t-105 -112.5t-39.5 -155.5v-680q0 -86 39.5 -155t105 -111.5t146 -65t166.5 -22.5q129 0 241 46.5
t170 135.5l45 -23q-62 -101 -187 -155.5t-269 -54.5q-77 0 -150 16t-138 49.5t-114 81t-77.5 114t-28.5 144.5z" />
    <glyph glyph-name="d" unicode="d" horiz-adv-x="1312" 
d="M190 1450h490q98 0 180.5 -23t147.5 -68.5t102 -121.5t37 -176v-674q0 -99 -37 -174.5t-102 -121.5t-147.5 -68.5t-180.5 -22.5h-490v1450zM242 51h438q88 0 162 19t131.5 58.5t90 105.5t32.5 153v674q0 88 -32.5 154.5t-90 106t-131 58.5t-162.5 19h-438v-1348z" />
    <glyph glyph-name="e" unicode="e" horiz-adv-x="1157" 
d="M242 1399v-649h749v-56h-749v-643h811v-51h-863v1450h863v-51h-811z" />
    <glyph glyph-name="f" unicode="f" horiz-adv-x="1099" 
d="M1026 1399h-784v-676h712v-51h-712v-672h-52v1450h836v-51z" />
    <glyph glyph-name="g" unicode="g" horiz-adv-x="1298" 
d="M160 391v674q0 96 43.5 175t115.5 128t162 75.5t187 26.5q142 0 264 -54.5t184 -155.5l-47 -31q-53 95 -162.5 142.5t-242.5 47.5q-87 0 -167 -22.5t-144.5 -65t-103 -111.5t-38.5 -155v-674q0 -88 39 -158.5t104 -114t145.5 -66.5t168.5 -23q87 0 167.5 23t146 66.5
t105 114.5t39.5 158v275h-444v49h496v-324q0 -99 -43.5 -179t-116.5 -129.5t-163 -76t-187 -26.5t-186.5 26.5t-162 76t-116 129.5t-43.5 179z" />
    <glyph glyph-name="h" unicode="h" horiz-adv-x="1398" 
d="M242 698v-698h-52v1450h52v-700h915v700h51v-1450h-51v698h-915z" />
    <glyph glyph-name="i" unicode="i" horiz-adv-x="432" 
d="M242 1450v-1450h-52v1450h52z" />
    <glyph glyph-name="j" unicode="j" horiz-adv-x="1181" 
d="M467 1403v47h534v-1067q0 -96 -41.5 -174.5t-111 -127.5t-155.5 -75t-179 -26q-103 0 -195 32t-164 99.5t-100 160.5l51 17q29 -87 98 -148t148 -86.5t164 -25.5q82 0 158 22t138.5 64.5t100 111.5t37.5 156v1020h-483z" />
    <glyph glyph-name="k" unicode="k" horiz-adv-x="1210" 
d="M242 1450v-881l858 881h65l-669 -698l669 -752h-59l-647 715l-217 -217v-498h-52v1450h52z" />
    <glyph glyph-name="l" unicode="l" horiz-adv-x="1007" 
d="M965 0h-777v1450h52v-1399h725v-51z" />
    <glyph glyph-name="m" unicode="m" horiz-adv-x="1632" 
d="M782 229l-522 1170l-18 -2v-1397h-52v1450h109l518 -1174l516 1174h109v-1450h-51v1413h-19l-520 -1184h-70z" />
    <glyph glyph-name="n" unicode="n" horiz-adv-x="1374" 
d="M270 1450l863 -1401v1401h51v-1450h-88l-850 1384l-2 -1384h-54v1450h80z" />
    <glyph glyph-name="o" unicode="o" horiz-adv-x="1396" 
d="M158 391v670q0 98 46 178t122.5 129t171.5 75.5t198 26.5q82 0 160 -16t147 -50t121 -81.5t82.5 -115t30.5 -146.5v-670q0 -98 -46 -178t-123.5 -130t-173 -76.5t-198.5 -26.5t-198 26.5t-171.5 76.5t-122.5 130t-46 178zM209 1061v-670q0 -116 71.5 -199.5t179.5 -122
t236 -38.5q94 0 180 23t156 66t112 113.5t42 157.5v670q0 92 -42 163t-113 113t-156.5 63t-180.5 21q-95 -1 -179.5 -22.5t-154 -64t-110.5 -113t-41 -160.5z" />
    <glyph glyph-name="p" unicode="p" horiz-adv-x="1232" 
d="M242 0h-52v1450h512q107 -1 193.5 -40t140.5 -102t82.5 -139.5t28.5 -158.5q0 -81 -28.5 -156.5t-81.5 -137.5t-139 -99.5t-193 -38.5h-463v-578zM242 629h460q96 0 173 33t124 88t72 122.5t25 139.5q0 73 -25.5 141.5t-73 124.5t-124 90t-171.5 35h-460v-774z" />
    <glyph glyph-name="q" unicode="q" horiz-adv-x="1396" 
d="M1190 -35l-107 125q-162 -110 -385 -110q-103 0 -198 26.5t-171.5 76.5t-122.5 130t-46 178v670q0 98 46 178t122.5 129t171.5 75.5t198 26.5q81 0 158.5 -16t147 -50t121 -81.5t82 -115t30.5 -146.5v-670q0 -90 -28 -148.5t-89 -121.5l109 -129zM967 319l120 -157
q99 80 99 229v670q0 87 -41.5 157.5t-111.5 113.5t-155.5 66t-179.5 23q-95 -1 -179.5 -22.5t-154.5 -64t-111.5 -113t-41.5 -160.5v-670q0 -85 41.5 -155.5t110 -114.5t155 -68t180.5 -24q198 0 357 102l-127 160z" />
    <glyph glyph-name="r" unicode="r" horiz-adv-x="1251" 
d="M1116 0h-59l-488 647h-329v-647h-50v1450h512q443 0 451 -393q0 -410 -448 -410h-78zM240 692h465q201 0 300 87t99 276q0 96 -29.5 165t-84 109t-125 58t-160.5 16h-465v-711z" />
    <glyph glyph-name="s" unicode="s" horiz-adv-x="1183" 
d="M176 1118q-5 -63 16 -115t59 -88.5t96 -66t119 -48.5t136 -34q80 -16 144 -35t131 -54t111 -79t69.5 -111t19.5 -149q-8 -112 -80.5 -195t-178.5 -123t-228 -40q-143 0 -271 58t-206 175l47 20q69 -98 185.5 -151t248.5 -53q77 0 148 19t130.5 55.5t99 97t50.5 137.5
q4 54 -7 99.5t-31 79.5t-54 63t-69 48.5t-84 37t-90.5 28.5t-96.5 23q-53 11 -95.5 22t-93.5 29t-89.5 39t-76.5 52t-61.5 67.5t-37 85.5t-11.5 106q2 70 29.5 128.5t72 99.5t103.5 69t125.5 41.5t136.5 13.5q148 0 266.5 -55t183.5 -168l-47 -18q-55 94 -164.5 143
t-238.5 49q-80 0 -150 -17.5t-129 -52.5t-95.5 -95t-41.5 -138z" />
    <glyph glyph-name="t" unicode="t" horiz-adv-x="1107" 
d="M1063 1450v-51h-483v-1399h-52v1399h-483v51h1018z" />
    <glyph glyph-name="u" unicode="u" horiz-adv-x="1378" 
d="M231 1450v-1053q0 -89 39 -161t104 -116t145.5 -67.5t168.5 -23.5q69 0 135 14.5t125 44.5t103 73t70 103.5t26 132.5v1053h51v-1053q0 -100 -43.5 -181t-116.5 -131.5t-163 -77.5t-187 -27t-187 27t-162 77.5t-115.5 131.5t-43.5 181v1053h51z" />
    <glyph glyph-name="v" unicode="v" horiz-adv-x="1232" 
d="M1135 1452h57l-533 -1452h-81l-545 1450h59l522 -1391h11z" />
    <glyph glyph-name="w" unicode="w" horiz-adv-x="1898" 
d="M1790 1450h55l-424 -1450h-84l-387 1184l-389 -1184h-80l-430 1450h55l412 -1378h10l387 1161h68l389 -1165h12z" />
    <glyph glyph-name="x" unicode="x" horiz-adv-x="1120" 
d="M590 723l475 -723h-59l-445 688l-444 -688h-64l477 723l-475 727h58l448 -680l447 680h59z" />
    <glyph glyph-name="y" unicode="y" horiz-adv-x="1126" 
d="M586 575v-575h-51v575l-496 875h61l461 -817l475 817h64z" />
    <glyph glyph-name="z" unicode="z" horiz-adv-x="1124" 
d="M100 1405v45h942l19 -27l-932 -1378h903v-45h-952l-21 25l932 1380h-891z" />
    <glyph glyph-name="braceleft" unicode="{" horiz-adv-x="538" 
d="M451 1489h-45q-29 0 -50 -4.5t-34 -18t-20 -25t-10.5 -39t-4 -46t-0.5 -58.5v-299q1 -155 -39.5 -247t-91.5 -113q21 -9 40.5 -28t41 -57t34.5 -108t13 -163v-301q0 -92 26 -133.5t107 -41.5h33v-43h-35q-101 0 -139.5 54.5t-38.5 161.5v296q0 150 -32 237t-112 108v36
q78 20 112 115.5t34 231.5v296q0 46 2.5 75.5t11.5 62.5t26 51.5t48 30.5t75 12h48v-43z" />
    <glyph glyph-name="bar" unicode="|" horiz-adv-x="368" 
d="M207 -330h-45v1860h45v-1860z" />
    <glyph glyph-name="braceright" unicode="}" horiz-adv-x="538" 
d="M88 1530h47q97 0 130.5 -57t33.5 -173v-296q0 -310 145 -347v-36q-143 -37 -143 -345v-294q0 -218 -178 -218h-35v43h31q79 0 107 45t28 130v297q0 272 131 366q-51 21 -91.5 113t-39.5 246v294q0 37 -0.5 56t-4 45.5t-11.5 39.5t-21 26.5t-34 18.5t-50 5h-45v41z" />
    <glyph glyph-name="asciitilde" unicode="~" horiz-adv-x="1085" 
d="M907 694l21 -24q-33 -63 -87.5 -104.5t-121.5 -41.5q-53 0 -116.5 36t-123.5 72t-104 36q-111 0 -191 -115q-4 4 -12 14.5t-10 12.5q34 58 89 95.5t126 37.5q44 0 91 -22.5t82 -49.5t81 -49.5t88 -22.5q60 0 104 32.5t84 92.5z" />
    <glyph glyph-name="uni00A0" unicode="&#xa0;" horiz-adv-x="503" 
 />
    <glyph glyph-name="exclamdown" unicode="&#xa1;" horiz-adv-x="387" 
d="M258 1004q0 -26 -18.5 -45t-44.5 -19t-45 19t-19 45t19 44.5t45 18.5t44.5 -18.5t18.5 -44.5zM221 752v-1172h-55v1172h55z" />
    <glyph glyph-name="cent" unicode="&#xa2;" horiz-adv-x="950" 
d="M821 944l-33 -24q-40 53 -111.5 87t-148.5 31v-1013q86 3 168.5 45.5t110.5 105.5l39 -18q-39 -77 -124 -123t-194 -55v-173h-43v173q-146 16 -245 97t-99 214v481q0 90 50 160.5t127 107.5t167 41v174h43v-174q101 -6 171.5 -39t121.5 -98zM485 27v1009
q-123 -5 -211.5 -74.5t-87.5 -187.5v-483q0 -112 84.5 -178.5t214.5 -85.5z" />
    <glyph glyph-name="sterling" unicode="&#xa3;" horiz-adv-x="1013" 
d="M322 43v698h-213v41h213v303q0 54 10.5 105.5t37.5 103t68 90t107.5 62.5t150.5 24q133 0 230 -77l-31 -35q-85 69 -203 69q-83 0 -147.5 -30t-101.5 -79.5t-55.5 -107t-18.5 -118.5v-310h338v-41h-338v-698h501v-43h-761v43h213z" />
    <glyph glyph-name="currency" unicode="&#xa4;" horiz-adv-x="1265" 
d="M174 289l111 110q-127 139 -127 326q0 188 123 322l-107 106l27 33l106 -113q158 125 326 125q178 0 319 -121l105 109l30 -25l-110 -114q131 -143 131 -322q0 -180 -127 -319l117 -113l-31 -29l-113 111q-162 -129 -321 -129q-164 0 -324 125l-106 -109zM199 723
q0 -180 127 -306t303 -126q178 0 306 126t128 306q0 120 -59 221t-158.5 158t-216.5 57q-176 0 -303 -126.5t-127 -309.5z" />
    <glyph glyph-name="yen" unicode="&#xa5;" horiz-adv-x="1146" 
d="M621 598h313l-10 -47h-332v-152h342l-8 -45h-334v-354h-47v354h-338l6 45h332v152h-334l8 47h299l-459 852h60l450 -840l463 840h60z" />
    <glyph glyph-name="brokenbar" unicode="&#xa6;" horiz-adv-x="393" 
d="M221 764h-49v682h49v-682zM221 -260h-49v709h49v-709z" />
    <glyph glyph-name="section" unicode="&#xa7;" horiz-adv-x="958" 
d="M113 -66l47 21q48 -87 131 -128.5t168 -43.5q57 -1 105 10t92 37t69 76t25 121q0 46 -20 86.5t-47 68.5t-75 58.5t-82 47t-91.5 43t-82.5 38.5q-103 54 -161 116.5t-58 155.5q0 85 67.5 153.5t178.5 116.5q-99 59 -148 118.5t-49 135.5q0 133 101.5 213t238.5 80
q87 0 170 -36t119 -111l-41 -23q-70 123 -248 123q-71 0 -137 -28.5t-110 -86t-44 -131.5q0 -49 19.5 -87.5t67 -72.5t80 -51.5t103.5 -50.5q14 -7 21 -10q55 -25 91 -44t84 -51t76 -63t48.5 -75.5t20.5 -94.5q0 -80 -59 -153.5t-150 -124.5q84 -49 130 -116.5t46 -129.5
q0 -83 -29.5 -144.5t-80.5 -95.5t-110.5 -49.5t-129.5 -15.5q-109 0 -206 52.5t-140 145.5zM358 422l230 -113q78 41 140.5 108.5t62.5 141.5q0 54 -32 105.5t-70.5 83t-82.5 55.5l-168 82q-44 -15 -83.5 -35t-80.5 -50t-65.5 -71.5t-24.5 -87.5q0 -35 12.5 -66.5t28.5 -52
t44 -42.5t44.5 -32t44.5 -26z" />
    <glyph glyph-name="dieresis" unicode="&#xa8;" horiz-adv-x="614" 
d="M57 1657q0 20 14.5 34.5t34.5 14.5t35 -14.5t15 -34.5t-15 -34.5t-35 -14.5t-34.5 14.5t-14.5 34.5zM426 1657q0 20 14.5 34.5t34.5 14.5t34.5 -14.5t14.5 -34.5t-14.5 -34.5t-34.5 -14.5t-34.5 14.5t-14.5 34.5z" />
    <glyph glyph-name="copyright" unicode="&#xa9;" horiz-adv-x="1699" 
d="M123 725q0 196 98 363.5t265.5 265.5t363.5 98t363.5 -98t265.5 -265.5t98 -363.5t-98 -363.5t-265.5 -265.5t-363.5 -98t-363.5 98t-265.5 265.5t-98 363.5zM170 725q0 -187 90.5 -343t246.5 -246.5t343 -90.5t343 90.5t246.5 246.5t90.5 343t-90.5 343t-246.5 246.5
t-343 90.5t-343 -90.5t-246.5 -246.5t-90.5 -343zM1163 1053l-35 -23q-83 115 -278 115q-85 0 -156 -27t-118.5 -87.5t-47.5 -145.5v-314q0 -87 47.5 -148.5t118.5 -88.5t156 -27q96 0 178 39.5t119 112.5q11 -4 23 -11t20 -10q-44 -84 -137.5 -130t-202.5 -46
q-70 0 -134.5 19.5t-117 57t-84 97.5t-31.5 135v310q0 75 31.5 135t84 97.5t117 57t134.5 19.5q98 0 181 -34.5t132 -102.5z" />
    <glyph glyph-name="ordfeminine" unicode="&#xaa;" horiz-adv-x="761" 
d="M563 1151v104q0 75 -57.5 113.5t-140.5 38.5q-92 0 -172 -64l-31 27q93 80 207 80q97 0 167 -50t70 -143v-456q-136 -42 -264 -39q-94 2 -157.5 64.5t-63.5 160.5q1 57 22 97.5t58 62.5t79 31.5t93 9.5q101 0 190 -37zM563 825v287q-109 37 -194 37q-203 0 -205 -162
q0 -83 51.5 -132.5t130.5 -51.5q104 0 217 22z" />
    <glyph glyph-name="guillemotleft" unicode="&#xab;" horiz-adv-x="770" 
d="M94 604l250 371q24 -16 31 -23q4 -4 6 -4l-234 -344q61 -90 132.5 -198.5t97.5 -145.5l-33 -22zM348 604l250 371q24 -16 31 -23q4 -4 6 -4l-238 -344q149 -220 236 -344l-35 -22z" />
    <glyph glyph-name="logicalnot" unicode="&#xac;" horiz-adv-x="1236" 
d="M160 739v43h907v-399h-43v356h-864z" />
    <glyph glyph-name="uni00AD" unicode="&#xad;" horiz-adv-x="722" 
d="M629 575v-47h-467v47h467z" />
    <glyph glyph-name="registered" unicode="&#xae;" horiz-adv-x="1699" 
d="M123 725q0 196 98 363.5t265.5 265.5t363.5 98t363.5 -98t265.5 -265.5t98 -363.5t-98 -363.5t-265.5 -265.5t-363.5 -98t-363.5 98t-265.5 265.5t-98 363.5zM172 725q0 -139 53.5 -264.5t144 -216t216 -144t264.5 -53.5t264.5 53.5t216 144t144 216t53.5 264.5
t-53.5 264.5t-144 216t-216 144t-264.5 53.5t-264.5 -53.5t-216 -144t-144 -216t-53.5 -264.5zM604 324v815h279q126 0 197 -65t71 -163q0 -102 -69.5 -164.5t-176.5 -70.5l252 -352h-45l-256 348h-211v-348h-41zM645 709h176q46 0 83 4t76.5 16.5t66.5 34t44 59t17 88.5
q0 95 -68.5 142t-162.5 47h-232v-391z" />
    <glyph glyph-name="macron" unicode="&#xaf;" horiz-adv-x="563" 
d="M90 1610v43h404v-43h-404z" />
    <glyph glyph-name="degree" unicode="&#xb0;" horiz-adv-x="663" 
d="M332 1042q-86 0 -147.5 61.5t-61.5 149.5q0 86 61.5 146.5t147.5 60.5t147.5 -60.5t61.5 -146.5q0 -88 -61.5 -149.5t-147.5 -61.5zM332 1081q69 0 117.5 49t48.5 121t-48.5 121t-117.5 49t-117.5 -49t-48.5 -121t48.5 -121t117.5 -49z" />
    <glyph glyph-name="plusminus" unicode="&#xb1;" horiz-adv-x="1175" 
d="M559 858v367h43v-367h399v-43h-399v-373h-43v373h-385v43h385zM997 270v-41h-821v41h821z" />
    <glyph glyph-name="twosuperior" unicode="&#xb2;" horiz-adv-x="827" 
d="M674 655v-39h-529l-12 33l402 420q58 59 82 111.5t4 113.5q-31 68 -91 103t-131 35q-61 0 -119 -27t-92 -76l-32 17q80 124 243 124q86 0 156.5 -39.5t101.5 -115.5l-2 2q29 -76 1.5 -142t-91.5 -131l-370 -389h479z" />
    <glyph glyph-name="threesuperior" unicode="&#xb3;" horiz-adv-x="794" 
d="M535 1059q71 -23 104 -81t33 -128q0 -76 -45.5 -132.5t-113 -81t-142.5 -20.5q-76 5 -144 40.5t-100 97.5l39 14q30 -52 88 -81t121 -32q59 -4 116.5 16.5t98.5 68t41 110.5q0 99 -60 146t-155 42h-68v35h68q95 0 141 43q43 43 42 122.5t-40 125.5q-64 70 -170 70
q-60 0 -116 -24.5t-89 -68.5l-28 21q49 64 129.5 92t163.5 11.5t139 -74.5q48 -48 49.5 -145.5t-49.5 -151.5q-15 -15 -53 -35z" />
    <glyph glyph-name="acute" unicode="&#xb4;" horiz-adv-x="1208" 
d="M707 1765h71l-147 -211h-51z" />
    <glyph glyph-name="mu" unicode="&#xb5;" horiz-adv-x="1054" 
d="M854 0v281q-21 -76 -61 -132.5t-91.5 -87.5t-105.5 -46t-111 -15q-61 0 -112.5 15t-100 61.5t-69.5 120.5l2 -629h-45v1493h47v-672q0 -63 13 -120t42 -111t86.5 -86.5t136.5 -32.5q158 0 258.5 113.5t100.5 320.5v588h49l6 -1061h-45z" />
    <glyph glyph-name="paragraph" unicode="&#xb6;" horiz-adv-x="1140" 
d="M549 -231v837q-112 0 -204 35t-150 93.5t-89.5 131.5t-31.5 152q0 81 29.5 157t85.5 138.5t147 100.5t203 38h434v-1683h-43v1646h-336v-1646h-45z" />
    <glyph glyph-name="periodcentered" unicode="&#xb7;" horiz-adv-x="471" 
d="M156 651q0 32 24 56t56 24t55.5 -24t23.5 -56t-23.5 -56t-55.5 -24t-56 24t-24 56z" />
    <glyph glyph-name="cedilla" unicode="&#xb8;" horiz-adv-x="1169" 
d="M633 20l-90 -159q83 0 120.5 -43.5t26.5 -108.5q-10 -55 -63 -93t-135 -34q-59 3 -134 39l7 37q71 -37 127 -39q72 -3 110 26.5t47 73.5q11 56 -33.5 87.5t-128.5 21.5l107 192h39z" />
    <glyph glyph-name="onesuperior" unicode="&#xb9;" horiz-adv-x="481" 
d="M117 1223l-31 26l176 201h55v-836h-43v793z" />
    <glyph glyph-name="ordmasculine" unicode="&#xba;" horiz-adv-x="831" 
d="M416 748q-71 0 -133 24t-104 75.5t-42 121.5v262q0 70 42 121.5t104 75.5t133 24t133 -24t103.5 -75.5t41.5 -121.5v-262q0 -70 -41.5 -121.5t-103.5 -75.5t-133 -24zM178 1225v-250q0 -66 37 -110t88.5 -61.5t112.5 -17.5q45 0 85.5 10.5t75 31.5t55.5 59t21 88v250
q0 66 -37 110t-88 61t-112 17t-112.5 -17t-88.5 -61t-37 -110z" />
    <glyph glyph-name="guillemotright" unicode="&#xbb;" horiz-adv-x="768" 
d="M422 604l-250 -371q-24 16 -31 23q-4 4 -6 4l238 344q-226 329 -236 344l35 23zM422 233l-37 27l238 344q-226 329 -236 344l35 23l250 -367z" />
    <glyph glyph-name="onequarter" unicode="&#xbc;" horiz-adv-x="1323" 
d="M1047 1462l18 -12l-901 -1473l-31 19l899 1474zM117 1223l-31 26l176 201h55v-836h-43v793zM1235 252v-35h-82v-217h-39v217h-457l-24 37l469 592h51v-594h82zM1114 799l-438 -549l438 2v547z" />
    <glyph glyph-name="onehalf" unicode="&#xbd;" horiz-adv-x="1419" 
d="M1067 1462l18 -12l-901 -1473l-30 19l899 1474zM111 1223l-31 26l176 201h55v-836h-43v793zM1315 39v-39h-529l-2 4l-10 29l402 409q58 58 82 111.5t4 114.5q-31 68 -91 102.5t-131 34.5q-61 0 -116.5 -26.5t-89.5 -76.5l-33 13h2l-6 4q81 125 243 125q86 0 156.5 -40
t101.5 -116l-2 2q30 -77 0.5 -149t-90.5 -123l-370 -379h479z" />
    <glyph glyph-name="threequarters" unicode="&#xbe;" horiz-adv-x="1452" 
d="M1262 1450l-900 -1470l-28 18l897 1472zM508 1071q71 -23 104 -81t33 -128q0 -113 -91.5 -176t-209.5 -57q-77 5 -144.5 40t-99.5 97l39 14q30 -52 87.5 -80.5t121.5 -31.5q93 -7 174.5 47t81.5 147q0 99 -60 146.5t-155 42.5h-67v34h67q95 0 141 43q43 43 42 106
t-40 109q-64 70 -170 70q-60 0 -115.5 -24t-88.5 -68q-18 9 -29 20q49 64 129.5 92t163.5 11.5t139 -74.5q48 -48 49.5 -129t-49.5 -135q-15 -15 -53 -35zM1356 252v-35h-82v-217h-39v217h-457l-24 37l469 592h51v-594h82zM1235 799l-438 -549l438 2v547z" />
    <glyph glyph-name="questiondown" unicode="&#xbf;" horiz-adv-x="913" 
d="M535 930q-25 0 -42.5 18.5t-17.5 44.5t17.5 44t42.5 18q26 0 44.5 -18t18.5 -44t-18.5 -44.5t-44.5 -18.5zM821 -209l31 -31q-66 -64 -157 -102.5t-183 -38.5q-82 0 -158 25t-137 71.5t-97.5 121.5t-35.5 167q1 94 34 170t91 126.5t133 80.5t164 39q4 111 6 191.5
t2.5 130t1.5 71.5h37l12 -430q-116 -7 -213.5 -53t-159 -132t-59.5 -196q1 -81 34 -146t87 -105t121 -60.5t141 -20.5q76 0 159.5 34t145.5 87z" />
    <glyph glyph-name="Agrave" unicode="&#xc0;" 
d="M602 1554l-147 211h71l127 -211h-51zM285 518l-193 -518h-55l536 1450h82l537 -1450h-55l-193 518h-659zM618 1401h-8l-307 -832h623z" />
    <glyph glyph-name="Aacute" unicode="&#xc1;" 
d="M692 1765h72l-148 -211h-51zM285 518l-193 -518h-55l536 1450h82l537 -1450h-55l-193 518h-659zM618 1401h-8l-307 -832h623z" />
    <glyph glyph-name="Acircumflex" unicode="&#xc2;" 
d="M819 1546h-57l-148 162l-145 -162h-59l176 193h57zM285 518l-193 -518h-55l536 1450h82l537 -1450h-55l-193 518h-659zM618 1401h-8l-307 -832h623z" />
    <glyph glyph-name="Atilde" unicode="&#xc3;" 
d="M432 1614l-31 12q16 43 48 71.5t75 28.5q35 0 72.5 -24.5t71 -49t59.5 -24.5q31 0 49 16.5t31 49.5l33 -13q-32 -98 -113 -98q-34 0 -70 25t-70.5 50t-64.5 25q-61 0 -90 -69zM285 518l-193 -518h-55l536 1450h82l537 -1450h-55l-193 518h-659zM618 1401h-8l-307 -832
h623z" />
    <glyph glyph-name="Adieresis" unicode="&#xc4;" 
d="M375 1657q0 20 14.5 34.5t34.5 14.5t34.5 -14.5t14.5 -34.5t-14.5 -34.5t-34.5 -14.5t-34.5 14.5t-14.5 34.5zM743 1657q0 20 15 34.5t35 14.5t34.5 -14.5t14.5 -34.5t-14.5 -34.5t-34.5 -14.5t-35 14.5t-15 34.5zM285 518l-193 -518h-55l536 1450h82l537 -1450h-55
l-193 518h-659zM618 1401h-8l-307 -832h623z" />
    <glyph glyph-name="Aring" unicode="&#xc5;" 
d="M1192 0h-55l-193 518h-659l-193 -518h-55l526 1419q-47 15 -76.5 55.5t-29.5 96.5q0 75 45.5 117.5t113.5 42.5q67 0 110.5 -48.5t43.5 -113.5q0 -49 -29 -91t-75 -59zM504 1569q0 -47 32 -81t78 -34q47 0 80 35.5t33 81.5t-33 81.5t-80 35.5q-48 0 -79 -32.5t-31 -86.5z
M926 569l-308 832h-8l-307 -832h623z" />
    <glyph glyph-name="AE" unicode="&#xc6;" horiz-adv-x="1579" 
d="M1475 1450v-49h-623v-672h559v-49h-559v-635h623v-45h-670v518h-473l-262 -518h-58l719 1450h744zM764 1405l-410 -840h451v842z" />
    <glyph glyph-name="Ccedilla" unicode="&#xc7;" horiz-adv-x="1196" 
d="M668 31q129 0 241 46.5t170 135.5l45 -23q-57 -91 -165.5 -145t-237.5 -63l-70 -123q83 0 121 -43.5t27 -108.5q-10 -55 -63.5 -93t-135.5 -34q-58 3 -133 39l6 37q71 -37 127 -39q72 -3 110.5 26.5t47.5 73.5q11 56 -33.5 87.5t-128.5 21.5l86 154h-14q-77 0 -150 16
t-138 49.5t-114 81t-77.5 114t-28.5 144.5v680q0 96 44 175t117.5 128t164 75.5t188.5 26.5q143 0 265.5 -53.5t184.5 -154.5l-45 -33q-55 91 -168.5 141.5t-242.5 50.5q-86 0 -166.5 -22.5t-146 -65.5t-105 -112.5t-39.5 -155.5v-680q0 -86 39.5 -155t105 -111.5t146 -65
t166.5 -22.5z" />
    <glyph glyph-name="Egrave" unicode="&#xc8;" horiz-adv-x="1157" 
d="M616 1554l-147 211h72l127 -211h-52zM242 1399v-649h749v-56h-749v-643h811v-51h-863v1450h863v-51h-811z" />
    <glyph glyph-name="Eacute" unicode="&#xc9;" horiz-adv-x="1157" 
d="M707 1765h71l-147 -211h-51zM242 1399v-649h749v-56h-749v-643h811v-51h-863v1450h863v-51h-811z" />
    <glyph glyph-name="Ecircumflex" unicode="&#xca;" horiz-adv-x="1157" 
d="M834 1546h-58l-147 162l-146 -162h-59l176 193h57zM242 1399v-649h749v-56h-749v-643h811v-51h-863v1450h863v-51h-811z" />
    <glyph glyph-name="Edieresis" unicode="&#xcb;" horiz-adv-x="1157" 
d="M389 1657q0 20 14.5 34.5t34.5 14.5t34.5 -14.5t14.5 -34.5t-14.5 -34.5t-34.5 -14.5t-34.5 14.5t-14.5 34.5zM758 1657q0 20 14.5 34.5t34.5 14.5t34.5 -14.5t14.5 -34.5t-14.5 -34.5t-34.5 -14.5t-34.5 14.5t-14.5 34.5zM242 1399v-649h749v-56h-749v-643h811v-51h-863
v1450h863v-51h-811z" />
    <glyph glyph-name="Igrave" unicode="&#xcc;" horiz-adv-x="432" 
d="M205 1554l-148 211h72l127 -211h-51zM242 1450v-1450h-52v1450h52z" />
    <glyph glyph-name="Iacute" unicode="&#xcd;" horiz-adv-x="432" 
d="M295 1765h72l-148 -211h-51zM242 1450v-1450h-52v1450h52z" />
    <glyph glyph-name="Icircumflex" unicode="&#xce;" horiz-adv-x="432" 
d="M422 1546h-57l-148 162l-145 -162h-60l176 193h58zM242 1450v-1450h-52v1450h52z" />
    <glyph glyph-name="Idieresis" unicode="&#xcf;" horiz-adv-x="432" 
d="M31 1657q0 20 14.5 34.5t34.5 14.5t34.5 -14.5t14.5 -34.5t-14.5 -34.5t-34.5 -14.5t-34.5 14.5t-14.5 34.5zM297 1657q0 20 14.5 34.5t34.5 14.5t34.5 -14.5t14.5 -34.5t-14.5 -34.5t-34.5 -14.5t-34.5 14.5t-14.5 34.5zM242 1450v-1450h-52v1450h52z" />
    <glyph glyph-name="Eth" unicode="&#xd0;" horiz-adv-x="1308" 
d="M193 741v709h448q97 0 186.5 -26t162 -75.5t116 -129.5t43.5 -179v-632q0 -98 -43.5 -177.5t-116 -129t-162 -75.5t-186.5 -26h-448v700h-130v41h130zM244 51h397q118 0 219.5 38t169.5 121t68 198v632q0 70 -26 130t-69.5 101.5t-102.5 70.5t-124.5 43t-134.5 14h-397
v-658h297v-41h-297v-649z" />
    <glyph glyph-name="Ntilde" unicode="&#xd1;" horiz-adv-x="1374" 
d="M518 1614l-31 12q16 43 48 71.5t75 28.5q35 0 72.5 -24.5t71 -49t59.5 -24.5q31 0 49 16.5t31 49.5l33 -13q-32 -98 -113 -98q-34 0 -70 25t-70.5 50t-64.5 25q-61 0 -90 -69zM270 1450l863 -1401v1401h51v-1450h-88l-850 1384l-2 -1384h-54v1450h80z" />
    <glyph glyph-name="Ograve" unicode="&#xd2;" horiz-adv-x="1396" 
d="M682 1552l-147 211h71l127 -211h-51zM158 391v670q0 98 46 178t122.5 129t171.5 75.5t198 26.5q82 0 160 -16t147 -50t121 -81.5t82.5 -115t30.5 -146.5v-670q0 -98 -46 -178t-123.5 -130t-173 -76.5t-198.5 -26.5t-198 26.5t-171.5 76.5t-122.5 130t-46 178zM209 1061
v-670q0 -116 71.5 -199.5t179.5 -122t236 -38.5q94 0 180 23t156 66t112 113.5t42 157.5v670q0 92 -42 163t-113 113t-156.5 63t-180.5 21q-95 -1 -179.5 -22.5t-154 -64t-110.5 -113t-41 -160.5z" />
    <glyph glyph-name="Oacute" unicode="&#xd3;" horiz-adv-x="1396" 
d="M772 1763h72l-148 -211h-51zM158 391v670q0 98 46 178t122.5 129t171.5 75.5t198 26.5q82 0 160 -16t147 -50t121 -81.5t82.5 -115t30.5 -146.5v-670q0 -98 -46 -178t-123.5 -130t-173 -76.5t-198.5 -26.5t-198 26.5t-171.5 76.5t-122.5 130t-46 178zM209 1061v-670
q0 -116 71.5 -199.5t179.5 -122t236 -38.5q94 0 180 23t156 66t112 113.5t42 157.5v670q0 92 -42 163t-113 113t-156.5 63t-180.5 21q-95 -1 -179.5 -22.5t-154 -64t-110.5 -113t-41 -160.5z" />
    <glyph glyph-name="Ocircumflex" unicode="&#xd4;" horiz-adv-x="1396" 
d="M899 1544h-57l-148 162l-145 -162h-60l177 193h57zM158 391v670q0 98 46 178t122.5 129t171.5 75.5t198 26.5q82 0 160 -16t147 -50t121 -81.5t82.5 -115t30.5 -146.5v-670q0 -98 -46 -178t-123.5 -130t-173 -76.5t-198.5 -26.5t-198 26.5t-171.5 76.5t-122.5 130
t-46 178zM209 1061v-670q0 -116 71.5 -199.5t179.5 -122t236 -38.5q94 0 180 23t156 66t112 113.5t42 157.5v670q0 92 -42 163t-113 113t-156.5 63t-180.5 21q-95 -1 -179.5 -22.5t-154 -64t-110.5 -113t-41 -160.5z" />
    <glyph glyph-name="Otilde" unicode="&#xd5;" horiz-adv-x="1396" 
d="M512 1612l-31 12q16 43 48 71.5t75 28.5q35 0 72.5 -24.5t71 -49t59.5 -24.5q31 0 49 16.5t31 49.5l33 -13q-32 -98 -113 -98q-34 0 -70 25t-70.5 50t-64.5 25q-61 0 -90 -69zM158 391v670q0 98 46 178t122.5 129t171.5 75.5t198 26.5q82 0 160 -16t147 -50t121 -81.5
t82.5 -115t30.5 -146.5v-670q0 -98 -46 -178t-123.5 -130t-173 -76.5t-198.5 -26.5t-198 26.5t-171.5 76.5t-122.5 130t-46 178zM209 1061v-670q0 -116 71.5 -199.5t179.5 -122t236 -38.5q94 0 180 23t156 66t112 113.5t42 157.5v670q0 92 -42 163t-113 113t-156.5 63
t-180.5 21q-95 -1 -179.5 -22.5t-154 -64t-110.5 -113t-41 -160.5z" />
    <glyph glyph-name="Odieresis" unicode="&#xd6;" horiz-adv-x="1396" 
d="M455 1655q0 20 14.5 34.5t34.5 14.5t34.5 -14.5t14.5 -34.5t-14.5 -34.5t-34.5 -14.5t-34.5 14.5t-14.5 34.5zM823 1655q0 20 14.5 34.5t34.5 14.5t35 -14.5t15 -34.5t-15 -34.5t-35 -14.5t-34.5 14.5t-14.5 34.5zM158 391v670q0 98 46 178t122.5 129t171.5 75.5
t198 26.5q82 0 160 -16t147 -50t121 -81.5t82.5 -115t30.5 -146.5v-670q0 -98 -46 -178t-123.5 -130t-173 -76.5t-198.5 -26.5t-198 26.5t-171.5 76.5t-122.5 130t-46 178zM209 1061v-670q0 -116 71.5 -199.5t179.5 -122t236 -38.5q94 0 180 23t156 66t112 113.5t42 157.5
v670q0 92 -42 163t-113 113t-156.5 63t-180.5 21q-95 -1 -179.5 -22.5t-154 -64t-110.5 -113t-41 -160.5z" />
    <glyph glyph-name="multiply" unicode="&#xd7;" horiz-adv-x="1011" 
d="M508 725l326 326l34 -33l-327 -326l321 -321l-33 -35l-321 321l-330 -329l-33 34l328 328l-334 336l35 33z" />
    <glyph glyph-name="Oslash" unicode="&#xd8;" horiz-adv-x="1394" 
d="M158 408v636q0 98 46 178t122.5 129.5t171.5 76t198 26.5q138 0 252 -43l60 145l39 -14l-60 -145q114 -59 182 -149t68 -204v-636q0 -79 -30.5 -147t-82.5 -116t-121 -82t-147 -50.5t-160 -16.5q-98 0 -245 43l-62 -152l-39 11l60 155q-117 59 -184.5 148t-67.5 207z
M207 1044v-636q0 -186 223 -312l500 1274q-45 17 -91.5 25.5t-69 9t-75.5 0.5q-95 -1 -180 -23t-154.5 -64t-111 -113t-41.5 -161zM1190 408v636q0 185 -221 310l-500 -1270q139 -39 227 -39q93 0 179.5 23t157 67t113.5 115t44 158z" />
    <glyph glyph-name="Ugrave" unicode="&#xd9;" horiz-adv-x="1378" 
d="M678 1554l-148 211h72l127 -211h-51zM231 1450v-1053q0 -89 39 -161t104 -116t145.5 -67.5t168.5 -23.5q69 0 135 14.5t125 44.5t103 73t70 103.5t26 132.5v1053h51v-1053q0 -100 -43.5 -181t-116.5 -131.5t-163 -77.5t-187 -27t-187 27t-162 77.5t-115.5 131.5
t-43.5 181v1053h51z" />
    <glyph glyph-name="Uacute" unicode="&#xda;" horiz-adv-x="1378" 
d="M768 1765h72l-148 -211h-51zM231 1450v-1053q0 -89 39 -161t104 -116t145.5 -67.5t168.5 -23.5q69 0 135 14.5t125 44.5t103 73t70 103.5t26 132.5v1053h51v-1053q0 -100 -43.5 -181t-116.5 -131.5t-163 -77.5t-187 -27t-187 27t-162 77.5t-115.5 131.5t-43.5 181v1053
h51z" />
    <glyph glyph-name="Ucircumflex" unicode="&#xdb;" horiz-adv-x="1378" 
d="M895 1546h-57l-148 162l-145 -162h-60l177 193h57zM231 1450v-1053q0 -89 39 -161t104 -116t145.5 -67.5t168.5 -23.5q69 0 135 14.5t125 44.5t103 73t70 103.5t26 132.5v1053h51v-1053q0 -100 -43.5 -181t-116.5 -131.5t-163 -77.5t-187 -27t-187 27t-162 77.5
t-115.5 131.5t-43.5 181v1053h51z" />
    <glyph glyph-name="Udieresis" unicode="&#xdc;" horiz-adv-x="1378" 
d="M451 1657q0 20 14.5 34.5t34.5 14.5t34.5 -14.5t14.5 -34.5t-14.5 -34.5t-34.5 -14.5t-34.5 14.5t-14.5 34.5zM819 1657q0 20 14.5 34.5t34.5 14.5t35 -14.5t15 -34.5t-15 -34.5t-35 -14.5t-34.5 14.5t-14.5 34.5zM231 1450v-1053q0 -89 39 -161t104 -116t145.5 -67.5
t168.5 -23.5q69 0 135 14.5t125 44.5t103 73t70 103.5t26 132.5v1053h51v-1053q0 -100 -43.5 -181t-116.5 -131.5t-163 -77.5t-187 -27t-187 27t-162 77.5t-115.5 131.5t-43.5 181v1053h51z" />
    <glyph glyph-name="Yacute" unicode="&#xdd;" horiz-adv-x="1126" 
d="M639 1765h72l-148 -211h-51zM586 575v-575h-51v575l-496 875h61l461 -817l475 817h64z" />
    <glyph glyph-name="Thorn" unicode="&#xde;" horiz-adv-x="1236" 
d="M242 0h-52v1450h52v-246h460q106 0 193 -38.5t141 -102t82.5 -140.5t28.5 -159q0 -81 -28.5 -156.5t-81.5 -137.5t-139 -99.5t-193 -38.5h-463v-332zM242 383h460q96 0 173 33t124 88t72 122.5t25 139.5q0 73 -25.5 141.5t-73 124.5t-124 90t-171.5 35h-460v-774z" />
    <glyph glyph-name="germandbls" unicode="&#xdf;" horiz-adv-x="1189" 
d="M575 53q85 -2 166 23.5t145 72t103 119t39 158.5q0 171 -110.5 257.5t-288.5 84.5h-238v45h238q92 0 166.5 33.5t121 105.5t46.5 172q0 78 -32.5 137.5t-87 93.5t-118.5 51t-135 17q-68 0 -134 -21t-119.5 -59.5t-86.5 -98.5t-33 -132v-1112h-49v1112q0 83 36 152
t96 113.5t135 68.5t155 24q109 0 203.5 -37.5t157.5 -118.5t63 -190q0 -249 -211 -327q278 -85 278 -373q0 -98 -43.5 -180.5t-115 -135.5t-161 -81.5t-183.5 -26.5q-103 3 -211 49l2 53q118 -46 206 -49z" />
    <glyph glyph-name="agrave" unicode="&#xe0;" 
d="M602 1554l-147 211h71l127 -211h-51zM285 518l-193 -518h-55l536 1450h82l537 -1450h-55l-193 518h-659zM618 1401h-8l-307 -832h623z" />
    <glyph glyph-name="aacute" unicode="&#xe1;" 
d="M692 1765h72l-148 -211h-51zM285 518l-193 -518h-55l536 1450h82l537 -1450h-55l-193 518h-659zM618 1401h-8l-307 -832h623z" />
    <glyph glyph-name="acircumflex" unicode="&#xe2;" 
d="M819 1546h-57l-148 162l-145 -162h-59l176 193h57zM285 518l-193 -518h-55l536 1450h82l537 -1450h-55l-193 518h-659zM618 1401h-8l-307 -832h623z" />
    <glyph glyph-name="atilde" unicode="&#xe3;" 
d="M432 1614l-31 12q16 43 48 71.5t75 28.5q35 0 72.5 -24.5t71 -49t59.5 -24.5q31 0 49 16.5t31 49.5l33 -13q-32 -98 -113 -98q-34 0 -70 25t-70.5 50t-64.5 25q-61 0 -90 -69zM285 518l-193 -518h-55l536 1450h82l537 -1450h-55l-193 518h-659zM618 1401h-8l-307 -832
h623z" />
    <glyph glyph-name="adieresis" unicode="&#xe4;" 
d="M375 1657q0 20 14.5 34.5t34.5 14.5t34.5 -14.5t14.5 -34.5t-14.5 -34.5t-34.5 -14.5t-34.5 14.5t-14.5 34.5zM743 1657q0 20 15 34.5t35 14.5t34.5 -14.5t14.5 -34.5t-14.5 -34.5t-34.5 -14.5t-35 14.5t-15 34.5zM285 518l-193 -518h-55l536 1450h82l537 -1450h-55
l-193 518h-659zM618 1401h-8l-307 -832h623z" />
    <glyph glyph-name="aring" unicode="&#xe5;" 
d="M1192 0h-55l-193 518h-659l-193 -518h-55l526 1419q-47 15 -76.5 55.5t-29.5 96.5q0 75 45.5 117.5t113.5 42.5q67 0 110.5 -48.5t43.5 -113.5q0 -49 -29 -91t-75 -59zM504 1569q0 -47 32 -81t78 -34q47 0 80 35.5t33 81.5t-33 81.5t-80 35.5q-48 0 -79 -32.5t-31 -86.5z
M926 569l-308 832h-8l-307 -832h623z" />
    <glyph glyph-name="ae" unicode="&#xe6;" horiz-adv-x="1579" 
d="M1475 1450v-49h-623v-672h559v-49h-559v-635h623v-45h-670v518h-473l-262 -518h-58l719 1450h744zM764 1405l-410 -840h451v842z" />
    <glyph glyph-name="ccedilla" unicode="&#xe7;" horiz-adv-x="1196" 
d="M668 31q129 0 241 46.5t170 135.5l45 -23q-57 -91 -165.5 -145t-237.5 -63l-70 -123q83 0 121 -43.5t27 -108.5q-10 -55 -63.5 -93t-135.5 -34q-58 3 -133 39l6 37q71 -37 127 -39q72 -3 110.5 26.5t47.5 73.5q11 56 -33.5 87.5t-128.5 21.5l86 154h-14q-77 0 -150 16
t-138 49.5t-114 81t-77.5 114t-28.5 144.5v680q0 96 44 175t117.5 128t164 75.5t188.5 26.5q143 0 265.5 -53.5t184.5 -154.5l-45 -33q-55 91 -168.5 141.5t-242.5 50.5q-86 0 -166.5 -22.5t-146 -65.5t-105 -112.5t-39.5 -155.5v-680q0 -86 39.5 -155t105 -111.5t146 -65
t166.5 -22.5z" />
    <glyph glyph-name="egrave" unicode="&#xe8;" horiz-adv-x="1157" 
d="M616 1554l-147 211h72l127 -211h-52zM242 1399v-649h749v-56h-749v-643h811v-51h-863v1450h863v-51h-811z" />
    <glyph glyph-name="eacute" unicode="&#xe9;" horiz-adv-x="1157" 
d="M707 1765h71l-147 -211h-51zM242 1399v-649h749v-56h-749v-643h811v-51h-863v1450h863v-51h-811z" />
    <glyph glyph-name="ecircumflex" unicode="&#xea;" horiz-adv-x="1157" 
d="M834 1546h-58l-147 162l-146 -162h-59l176 193h57zM242 1399v-649h749v-56h-749v-643h811v-51h-863v1450h863v-51h-811z" />
    <glyph glyph-name="edieresis" unicode="&#xeb;" horiz-adv-x="1157" 
d="M389 1657q0 20 14.5 34.5t34.5 14.5t34.5 -14.5t14.5 -34.5t-14.5 -34.5t-34.5 -14.5t-34.5 14.5t-14.5 34.5zM758 1657q0 20 14.5 34.5t34.5 14.5t34.5 -14.5t14.5 -34.5t-14.5 -34.5t-34.5 -14.5t-34.5 14.5t-14.5 34.5zM242 1399v-649h749v-56h-749v-643h811v-51h-863
v1450h863v-51h-811z" />
    <glyph glyph-name="igrave" unicode="&#xec;" horiz-adv-x="432" 
d="M205 1554l-148 211h72l127 -211h-51zM242 1450v-1450h-52v1450h52z" />
    <glyph glyph-name="iacute" unicode="&#xed;" horiz-adv-x="432" 
d="M295 1765h72l-148 -211h-51zM242 1450v-1450h-52v1450h52z" />
    <glyph glyph-name="icircumflex" unicode="&#xee;" horiz-adv-x="432" 
d="M422 1546h-57l-148 162l-145 -162h-60l176 193h58zM242 1450v-1450h-52v1450h52z" />
    <glyph glyph-name="idieresis" unicode="&#xef;" horiz-adv-x="432" 
d="M31 1657q0 20 14.5 34.5t34.5 14.5t34.5 -14.5t14.5 -34.5t-14.5 -34.5t-34.5 -14.5t-34.5 14.5t-14.5 34.5zM297 1657q0 20 14.5 34.5t34.5 14.5t34.5 -14.5t14.5 -34.5t-14.5 -34.5t-34.5 -14.5t-34.5 14.5t-14.5 34.5zM242 1450v-1450h-52v1450h52z" />
    <glyph glyph-name="eth" unicode="&#xf0;" horiz-adv-x="1308" 
d="M193 741v709h448q97 0 186.5 -26t162 -75.5t116 -129.5t43.5 -179v-632q0 -98 -43.5 -177.5t-116 -129t-162 -75.5t-186.5 -26h-448v700h-130v41h130zM244 51h397q118 0 219.5 38t169.5 121t68 198v632q0 70 -26 130t-69.5 101.5t-102.5 70.5t-124.5 43t-134.5 14h-397
v-658h297v-41h-297v-649z" />
    <glyph glyph-name="ntilde" unicode="&#xf1;" horiz-adv-x="1374" 
d="M518 1614l-31 12q16 43 48 71.5t75 28.5q35 0 72.5 -24.5t71 -49t59.5 -24.5q31 0 49 16.5t31 49.5l33 -13q-32 -98 -113 -98q-34 0 -70 25t-70.5 50t-64.5 25q-61 0 -90 -69zM270 1450l863 -1401v1401h51v-1450h-88l-850 1384l-2 -1384h-54v1450h80z" />
    <glyph glyph-name="ograve" unicode="&#xf2;" horiz-adv-x="1396" 
d="M682 1552l-147 211h71l127 -211h-51zM158 391v670q0 98 46 178t122.5 129t171.5 75.5t198 26.5q82 0 160 -16t147 -50t121 -81.5t82.5 -115t30.5 -146.5v-670q0 -98 -46 -178t-123.5 -130t-173 -76.5t-198.5 -26.5t-198 26.5t-171.5 76.5t-122.5 130t-46 178zM209 1061
v-670q0 -116 71.5 -199.5t179.5 -122t236 -38.5q94 0 180 23t156 66t112 113.5t42 157.5v670q0 92 -42 163t-113 113t-156.5 63t-180.5 21q-95 -1 -179.5 -22.5t-154 -64t-110.5 -113t-41 -160.5z" />
    <glyph glyph-name="oacute" unicode="&#xf3;" horiz-adv-x="1396" 
d="M772 1763h72l-148 -211h-51zM158 391v670q0 98 46 178t122.5 129t171.5 75.5t198 26.5q82 0 160 -16t147 -50t121 -81.5t82.5 -115t30.5 -146.5v-670q0 -98 -46 -178t-123.5 -130t-173 -76.5t-198.5 -26.5t-198 26.5t-171.5 76.5t-122.5 130t-46 178zM209 1061v-670
q0 -116 71.5 -199.5t179.5 -122t236 -38.5q94 0 180 23t156 66t112 113.5t42 157.5v670q0 92 -42 163t-113 113t-156.5 63t-180.5 21q-95 -1 -179.5 -22.5t-154 -64t-110.5 -113t-41 -160.5z" />
    <glyph glyph-name="ocircumflex" unicode="&#xf4;" horiz-adv-x="1396" 
d="M899 1544h-57l-148 162l-145 -162h-60l177 193h57zM158 391v670q0 98 46 178t122.5 129t171.5 75.5t198 26.5q82 0 160 -16t147 -50t121 -81.5t82.5 -115t30.5 -146.5v-670q0 -98 -46 -178t-123.5 -130t-173 -76.5t-198.5 -26.5t-198 26.5t-171.5 76.5t-122.5 130
t-46 178zM209 1061v-670q0 -116 71.5 -199.5t179.5 -122t236 -38.5q94 0 180 23t156 66t112 113.5t42 157.5v670q0 92 -42 163t-113 113t-156.5 63t-180.5 21q-95 -1 -179.5 -22.5t-154 -64t-110.5 -113t-41 -160.5z" />
    <glyph glyph-name="otilde" unicode="&#xf5;" horiz-adv-x="1396" 
d="M512 1612l-31 12q16 43 48 71.5t75 28.5q35 0 72.5 -24.5t71 -49t59.5 -24.5q31 0 49 16.5t31 49.5l33 -13q-32 -98 -113 -98q-34 0 -70 25t-70.5 50t-64.5 25q-61 0 -90 -69zM158 391v670q0 98 46 178t122.5 129t171.5 75.5t198 26.5q82 0 160 -16t147 -50t121 -81.5
t82.5 -115t30.5 -146.5v-670q0 -98 -46 -178t-123.5 -130t-173 -76.5t-198.5 -26.5t-198 26.5t-171.5 76.5t-122.5 130t-46 178zM209 1061v-670q0 -116 71.5 -199.5t179.5 -122t236 -38.5q94 0 180 23t156 66t112 113.5t42 157.5v670q0 92 -42 163t-113 113t-156.5 63
t-180.5 21q-95 -1 -179.5 -22.5t-154 -64t-110.5 -113t-41 -160.5z" />
    <glyph glyph-name="odieresis" unicode="&#xf6;" horiz-adv-x="1396" 
d="M455 1655q0 20 14.5 34.5t34.5 14.5t34.5 -14.5t14.5 -34.5t-14.5 -34.5t-34.5 -14.5t-34.5 14.5t-14.5 34.5zM823 1655q0 20 14.5 34.5t34.5 14.5t35 -14.5t15 -34.5t-15 -34.5t-35 -14.5t-34.5 14.5t-14.5 34.5zM158 391v670q0 98 46 178t122.5 129t171.5 75.5
t198 26.5q82 0 160 -16t147 -50t121 -81.5t82.5 -115t30.5 -146.5v-670q0 -98 -46 -178t-123.5 -130t-173 -76.5t-198.5 -26.5t-198 26.5t-171.5 76.5t-122.5 130t-46 178zM209 1061v-670q0 -116 71.5 -199.5t179.5 -122t236 -38.5q94 0 180 23t156 66t112 113.5t42 157.5
v670q0 92 -42 163t-113 113t-156.5 63t-180.5 21q-95 -1 -179.5 -22.5t-154 -64t-110.5 -113t-41 -160.5z" />
    <glyph glyph-name="divide" unicode="&#xf7;" horiz-adv-x="1011" 
d="M508 725l326 326l34 -33l-327 -326l321 -321l-33 -35l-321 321l-330 -329l-33 34l328 328l-334 336l35 33z" />
    <glyph glyph-name="oslash" unicode="&#xf8;" horiz-adv-x="1394" 
d="M158 408v636q0 98 46 178t122.5 129.5t171.5 76t198 26.5q138 0 252 -43l60 145l39 -14l-60 -145q114 -59 182 -149t68 -204v-636q0 -79 -30.5 -147t-82.5 -116t-121 -82t-147 -50.5t-160 -16.5q-98 0 -245 43l-62 -152l-39 11l60 155q-117 59 -184.5 148t-67.5 207z
M207 1044v-636q0 -186 223 -312l500 1274q-45 17 -91.5 25.5t-69 9t-75.5 0.5q-95 -1 -180 -23t-154.5 -64t-111 -113t-41.5 -161zM1190 408v636q0 185 -221 310l-500 -1270q139 -39 227 -39q93 0 179.5 23t157 67t113.5 115t44 158z" />
    <glyph glyph-name="ugrave" unicode="&#xf9;" horiz-adv-x="1378" 
d="M678 1554l-148 211h72l127 -211h-51zM231 1450v-1053q0 -89 39 -161t104 -116t145.5 -67.5t168.5 -23.5q69 0 135 14.5t125 44.5t103 73t70 103.5t26 132.5v1053h51v-1053q0 -100 -43.5 -181t-116.5 -131.5t-163 -77.5t-187 -27t-187 27t-162 77.5t-115.5 131.5
t-43.5 181v1053h51z" />
    <glyph glyph-name="uacute" unicode="&#xfa;" horiz-adv-x="1378" 
d="M768 1765h72l-148 -211h-51zM231 1450v-1053q0 -89 39 -161t104 -116t145.5 -67.5t168.5 -23.5q69 0 135 14.5t125 44.5t103 73t70 103.5t26 132.5v1053h51v-1053q0 -100 -43.5 -181t-116.5 -131.5t-163 -77.5t-187 -27t-187 27t-162 77.5t-115.5 131.5t-43.5 181v1053
h51z" />
    <glyph glyph-name="ucircumflex" unicode="&#xfb;" horiz-adv-x="1378" 
d="M895 1546h-57l-148 162l-145 -162h-60l177 193h57zM231 1450v-1053q0 -89 39 -161t104 -116t145.5 -67.5t168.5 -23.5q69 0 135 14.5t125 44.5t103 73t70 103.5t26 132.5v1053h51v-1053q0 -100 -43.5 -181t-116.5 -131.5t-163 -77.5t-187 -27t-187 27t-162 77.5
t-115.5 131.5t-43.5 181v1053h51z" />
    <glyph glyph-name="udieresis" unicode="&#xfc;" horiz-adv-x="1378" 
d="M451 1657q0 20 14.5 34.5t34.5 14.5t34.5 -14.5t14.5 -34.5t-14.5 -34.5t-34.5 -14.5t-34.5 14.5t-14.5 34.5zM819 1657q0 20 14.5 34.5t34.5 14.5t35 -14.5t15 -34.5t-15 -34.5t-35 -14.5t-34.5 14.5t-14.5 34.5zM231 1450v-1053q0 -89 39 -161t104 -116t145.5 -67.5
t168.5 -23.5q69 0 135 14.5t125 44.5t103 73t70 103.5t26 132.5v1053h51v-1053q0 -100 -43.5 -181t-116.5 -131.5t-163 -77.5t-187 -27t-187 27t-162 77.5t-115.5 131.5t-43.5 181v1053h51z" />
    <glyph glyph-name="yacute" unicode="&#xfd;" horiz-adv-x="1126" 
d="M639 1765h72l-148 -211h-51zM586 575v-575h-51v575l-496 875h61l461 -817l475 817h64z" />
    <glyph glyph-name="thorn" unicode="&#xfe;" horiz-adv-x="1236" 
d="M242 0h-52v1450h52v-246h460q106 0 193 -38.5t141 -102t82.5 -140.5t28.5 -159q0 -81 -28.5 -156.5t-81.5 -137.5t-139 -99.5t-193 -38.5h-463v-332zM242 383h460q96 0 173 33t124 88t72 122.5t25 139.5q0 73 -25.5 141.5t-73 124.5t-124 90t-171.5 35h-460v-774z" />
    <glyph glyph-name="ydieresis" unicode="&#xff;" horiz-adv-x="1126" 
d="M322 1657q0 20 14.5 34.5t34.5 14.5t34.5 -14.5t14.5 -34.5t-14.5 -34.5t-34.5 -14.5t-34.5 14.5t-14.5 34.5zM690 1657q0 20 14.5 34.5t34.5 14.5t34.5 -14.5t14.5 -34.5t-14.5 -34.5t-34.5 -14.5t-34.5 14.5t-14.5 34.5zM586 575v-575h-51v575l-496 875h61l461 -817
l475 817h64z" />
    <glyph glyph-name="Amacron" unicode="&#x100;" 
d="M412 1610v43h403v-43h-403zM285 518l-193 -518h-55l536 1450h82l537 -1450h-55l-193 518h-659zM618 1401h-8l-307 -832h623z" />
    <glyph glyph-name="amacron" unicode="&#x101;" 
d="M412 1610v43h403v-43h-403zM285 518l-193 -518h-55l536 1450h82l537 -1450h-55l-193 518h-659zM618 1401h-8l-307 -832h623z" />
    <glyph glyph-name="Abreve" unicode="&#x102;" 
d="M614 1591q-71 0 -128.5 41.5t-75.5 116.5h47q17 -55 60 -84t97 -29t97.5 29t60.5 84h47q-18 -75 -76 -116.5t-129 -41.5zM285 518l-193 -518h-55l536 1450h82l537 -1450h-55l-193 518h-659zM618 1401h-8l-307 -832h623z" />
    <glyph glyph-name="abreve" unicode="&#x103;" 
d="M614 1591q-71 0 -128.5 41.5t-75.5 116.5h47q17 -55 60 -84t97 -29t97.5 29t60.5 84h47q-18 -75 -76 -116.5t-129 -41.5zM285 518l-193 -518h-55l536 1450h82l537 -1450h-55l-193 518h-659zM618 1401h-8l-307 -832h623z" />
    <glyph glyph-name="Aogonek" unicode="&#x104;" 
d="M1264 -336l12 -31q-47 -39 -100 -48.5t-97 16t-61 82.5q-20 68 10.5 142.5t112.5 174.5h-4l-193 518h-659l-193 -518h-55l536 1450h82l537 -1450h-4q-91 -113 -116 -181t-9 -124q18 -56 73 -67t128 36zM926 569l-308 832h-8l-307 -832h623z" />
    <glyph glyph-name="aogonek" unicode="&#x105;" 
d="M1264 -336l12 -31q-47 -39 -100 -48.5t-97 16t-61 82.5q-20 68 10.5 142.5t112.5 174.5h-4l-193 518h-659l-193 -518h-55l536 1450h82l537 -1450h-4q-91 -113 -116 -181t-9 -124q18 -56 73 -67t128 36zM926 569l-308 832h-8l-307 -832h623z" />
    <glyph glyph-name="Cacute" unicode="&#x106;" horiz-adv-x="1196" 
d="M752 1765h71l-147 -211h-51zM160 385v680q0 96 44 175t117.5 128t164 75.5t188.5 26.5q143 0 265.5 -53.5t184.5 -154.5l-45 -33q-55 91 -168.5 141.5t-242.5 50.5q-86 0 -166.5 -22.5t-146 -65.5t-105 -112.5t-39.5 -155.5v-680q0 -86 39.5 -155t105 -111.5t146 -65
t166.5 -22.5q129 0 241 46.5t170 135.5l45 -23q-62 -101 -187 -155.5t-269 -54.5q-77 0 -150 16t-138 49.5t-114 81t-77.5 114t-28.5 144.5z" />
    <glyph glyph-name="cacute" unicode="&#x107;" horiz-adv-x="1196" 
d="M752 1765h71l-147 -211h-51zM160 385v680q0 96 44 175t117.5 128t164 75.5t188.5 26.5q143 0 265.5 -53.5t184.5 -154.5l-45 -33q-55 91 -168.5 141.5t-242.5 50.5q-86 0 -166.5 -22.5t-146 -65.5t-105 -112.5t-39.5 -155.5v-680q0 -86 39.5 -155t105 -111.5t146 -65
t166.5 -22.5q129 0 241 46.5t170 135.5l45 -23q-62 -101 -187 -155.5t-269 -54.5q-77 0 -150 16t-138 49.5t-114 81t-77.5 114t-28.5 144.5z" />
    <glyph glyph-name="Cdotaccent" unicode="&#x10a;" horiz-adv-x="1196" 
d="M618 1647q0 25 16 41t40 16q23 0 39 -16t16 -41q0 -23 -16 -39.5t-39 -16.5t-39.5 16.5t-16.5 39.5zM160 385v680q0 96 44 175t117.5 128t164 75.5t188.5 26.5q143 0 265.5 -53.5t184.5 -154.5l-45 -33q-55 91 -168.5 141.5t-242.5 50.5q-86 0 -166.5 -22.5t-146 -65.5
t-105 -112.5t-39.5 -155.5v-680q0 -86 39.5 -155t105 -111.5t146 -65t166.5 -22.5q129 0 241 46.5t170 135.5l45 -23q-62 -101 -187 -155.5t-269 -54.5q-77 0 -150 16t-138 49.5t-114 81t-77.5 114t-28.5 144.5z" />
    <glyph glyph-name="cdotaccent" unicode="&#x10b;" horiz-adv-x="1196" 
d="M618 1647q0 25 16 41t40 16q23 0 39 -16t16 -41q0 -23 -16 -39.5t-39 -16.5t-39.5 16.5t-16.5 39.5zM160 385v680q0 96 44 175t117.5 128t164 75.5t188.5 26.5q143 0 265.5 -53.5t184.5 -154.5l-45 -33q-55 91 -168.5 141.5t-242.5 50.5q-86 0 -166.5 -22.5t-146 -65.5
t-105 -112.5t-39.5 -155.5v-680q0 -86 39.5 -155t105 -111.5t146 -65t166.5 -22.5q129 0 241 46.5t170 135.5l45 -23q-62 -101 -187 -155.5t-269 -54.5q-77 0 -150 16t-138 49.5t-114 81t-77.5 114t-28.5 144.5z" />
    <glyph glyph-name="Ccaron" unicode="&#x10c;" horiz-adv-x="1196" 
d="M645 1556l-176 193h59l146 -162l147 162h58l-177 -193h-57zM160 385v680q0 96 44 175t117.5 128t164 75.5t188.5 26.5q143 0 265.5 -53.5t184.5 -154.5l-45 -33q-55 91 -168.5 141.5t-242.5 50.5q-86 0 -166.5 -22.5t-146 -65.5t-105 -112.5t-39.5 -155.5v-680
q0 -86 39.5 -155t105 -111.5t146 -65t166.5 -22.5q129 0 241 46.5t170 135.5l45 -23q-62 -101 -187 -155.5t-269 -54.5q-77 0 -150 16t-138 49.5t-114 81t-77.5 114t-28.5 144.5z" />
    <glyph glyph-name="ccaron" unicode="&#x10d;" horiz-adv-x="1196" 
d="M645 1556l-176 193h59l146 -162l147 162h58l-177 -193h-57zM160 385v680q0 96 44 175t117.5 128t164 75.5t188.5 26.5q143 0 265.5 -53.5t184.5 -154.5l-45 -33q-55 91 -168.5 141.5t-242.5 50.5q-86 0 -166.5 -22.5t-146 -65.5t-105 -112.5t-39.5 -155.5v-680
q0 -86 39.5 -155t105 -111.5t146 -65t166.5 -22.5q129 0 241 46.5t170 135.5l45 -23q-62 -101 -187 -155.5t-269 -54.5q-77 0 -150 16t-138 49.5t-114 81t-77.5 114t-28.5 144.5z" />
    <glyph glyph-name="Dcaron" unicode="&#x10e;" horiz-adv-x="1312" 
d="M592 1556l-176 193h59l146 -162l147 162h57l-176 -193h-57zM190 1450h490q98 0 180.5 -23t147.5 -68.5t102 -121.5t37 -176v-674q0 -99 -37 -174.5t-102 -121.5t-147.5 -68.5t-180.5 -22.5h-490v1450zM242 51h438q88 0 162 19t131.5 58.5t90 105.5t32.5 153v674
q0 88 -32.5 154.5t-90 106t-131 58.5t-162.5 19h-438v-1348z" />
    <glyph glyph-name="dcaron" unicode="&#x10f;" horiz-adv-x="1312" 
d="M592 1556l-176 193h59l146 -162l147 162h57l-176 -193h-57zM190 1450h490q98 0 180.5 -23t147.5 -68.5t102 -121.5t37 -176v-674q0 -99 -37 -174.5t-102 -121.5t-147.5 -68.5t-180.5 -22.5h-490v1450zM242 51h438q88 0 162 19t131.5 58.5t90 105.5t32.5 153v674
q0 88 -32.5 154.5t-90 106t-131 58.5t-162.5 19h-438v-1348z" />
    <glyph glyph-name="Dcroat" unicode="&#x110;" horiz-adv-x="1308" 
d="M193 741v709h448q97 0 186.5 -26t162 -75.5t116 -129.5t43.5 -179v-632q0 -98 -43.5 -177.5t-116 -129t-162 -75.5t-186.5 -26h-448v700h-130v41h130zM244 51h397q118 0 219.5 38t169.5 121t68 198v632q0 70 -26 130t-69.5 101.5t-102.5 70.5t-124.5 43t-134.5 14h-397
v-658h297v-41h-297v-649z" />
    <glyph glyph-name="dcroat" unicode="&#x111;" horiz-adv-x="1308" 
d="M193 741v709h448q97 0 186.5 -26t162 -75.5t116 -129.5t43.5 -179v-632q0 -98 -43.5 -177.5t-116 -129t-162 -75.5t-186.5 -26h-448v700h-130v41h130zM244 51h397q118 0 219.5 38t169.5 121t68 198v632q0 70 -26 130t-69.5 101.5t-102.5 70.5t-124.5 43t-134.5 14h-397
v-658h297v-41h-297v-649z" />
    <glyph glyph-name="Emacron" unicode="&#x112;" horiz-adv-x="1157" 
d="M426 1610v43h403v-43h-403zM242 1399v-649h749v-56h-749v-643h811v-51h-863v1450h863v-51h-811z" />
    <glyph glyph-name="emacron" unicode="&#x113;" horiz-adv-x="1157" 
d="M426 1610v43h403v-43h-403zM242 1399v-649h749v-56h-749v-643h811v-51h-863v1450h863v-51h-811z" />
    <glyph glyph-name="Edotaccent" unicode="&#x116;" horiz-adv-x="1157" 
d="M573 1647q0 25 16.5 41t39.5 16t39 -16t16 -41q0 -23 -16 -39.5t-39 -16.5t-39.5 16.5t-16.5 39.5zM242 1399v-649h749v-56h-749v-643h811v-51h-863v1450h863v-51h-811z" />
    <glyph glyph-name="edotaccent" unicode="&#x117;" horiz-adv-x="1157" 
d="M573 1647q0 25 16.5 41t39.5 16t39 -16t16 -41q0 -23 -16 -39.5t-39 -16.5t-39.5 16.5t-16.5 39.5zM242 1399v-649h749v-56h-749v-643h811v-51h-863v1450h863v-51h-811z" />
    <glyph glyph-name="Eogonek" unicode="&#x118;" horiz-adv-x="1155" 
d="M1124 -336l13 -31q-47 -39 -100 -48.5t-97 16t-61 82.5q-20 69 10 143t112 174h-813v1450h863v-51h-811v-649h749v-56h-749v-643h811v-51h-2q-91 -113 -116 -181t-9 -124q18 -56 72.5 -67t127.5 36z" />
    <glyph glyph-name="eogonek" unicode="&#x119;" horiz-adv-x="1155" 
d="M1124 -336l13 -31q-47 -39 -100 -48.5t-97 16t-61 82.5q-20 69 10 143t112 174h-813v1450h863v-51h-811v-649h749v-56h-749v-643h811v-51h-2q-91 -113 -116 -181t-9 -124q18 -56 72.5 -67t127.5 36z" />
    <glyph glyph-name="Ecaron" unicode="&#x11a;" horiz-adv-x="1157" 
d="M600 1556l-176 193h59l146 -162l147 162h58l-177 -193h-57zM242 1399v-649h749v-56h-749v-643h811v-51h-863v1450h863v-51h-811z" />
    <glyph glyph-name="ecaron" unicode="&#x11b;" horiz-adv-x="1157" 
d="M600 1556l-176 193h59l146 -162l147 162h58l-177 -193h-57zM242 1399v-649h749v-56h-749v-643h811v-51h-863v1450h863v-51h-811z" />
    <glyph glyph-name="Gbreve" unicode="&#x11e;" horiz-adv-x="1298" 
d="M668 1591q-71 0 -129 41.5t-76 116.5h47q17 -55 60.5 -84t97.5 -29t97 29t60 84h47q-18 -75 -75.5 -116.5t-128.5 -41.5zM160 391v674q0 96 43.5 175t115.5 128t162 75.5t187 26.5q142 0 264 -54.5t184 -155.5l-47 -31q-53 95 -162.5 142.5t-242.5 47.5q-87 0 -167 -22.5
t-144.5 -65t-103 -111.5t-38.5 -155v-674q0 -88 39 -158.5t104 -114t145.5 -66.5t168.5 -23q87 0 167.5 23t146 66.5t105 114.5t39.5 158v275h-444v49h496v-324q0 -99 -43.5 -179t-116.5 -129.5t-163 -76t-187 -26.5t-186.5 26.5t-162 76t-116 129.5t-43.5 179z" />
    <glyph glyph-name="gbreve" unicode="&#x11f;" horiz-adv-x="1298" 
d="M668 1591q-71 0 -129 41.5t-76 116.5h47q17 -55 60.5 -84t97.5 -29t97 29t60 84h47q-18 -75 -75.5 -116.5t-128.5 -41.5zM160 391v674q0 96 43.5 175t115.5 128t162 75.5t187 26.5q142 0 264 -54.5t184 -155.5l-47 -31q-53 95 -162.5 142.5t-242.5 47.5q-87 0 -167 -22.5
t-144.5 -65t-103 -111.5t-38.5 -155v-674q0 -88 39 -158.5t104 -114t145.5 -66.5t168.5 -23q87 0 167.5 23t146 66.5t105 114.5t39.5 158v275h-444v49h496v-324q0 -99 -43.5 -179t-116.5 -129.5t-163 -76t-187 -26.5t-186.5 26.5t-162 76t-116 129.5t-43.5 179z" />
    <glyph glyph-name="Gdotaccent" unicode="&#x120;" horiz-adv-x="1298" 
d="M612 1647q0 25 16 41t40 16q23 0 39 -16t16 -41q0 -23 -16 -39.5t-39 -16.5t-39.5 16.5t-16.5 39.5zM160 391v674q0 96 43.5 175t115.5 128t162 75.5t187 26.5q142 0 264 -54.5t184 -155.5l-47 -31q-53 95 -162.5 142.5t-242.5 47.5q-87 0 -167 -22.5t-144.5 -65
t-103 -111.5t-38.5 -155v-674q0 -88 39 -158.5t104 -114t145.5 -66.5t168.5 -23q87 0 167.5 23t146 66.5t105 114.5t39.5 158v275h-444v49h496v-324q0 -99 -43.5 -179t-116.5 -129.5t-163 -76t-187 -26.5t-186.5 26.5t-162 76t-116 129.5t-43.5 179z" />
    <glyph glyph-name="gdotaccent" unicode="&#x121;" horiz-adv-x="1298" 
d="M612 1647q0 25 16 41t40 16q23 0 39 -16t16 -41q0 -23 -16 -39.5t-39 -16.5t-39.5 16.5t-16.5 39.5zM160 391v674q0 96 43.5 175t115.5 128t162 75.5t187 26.5q142 0 264 -54.5t184 -155.5l-47 -31q-53 95 -162.5 142.5t-242.5 47.5q-87 0 -167 -22.5t-144.5 -65
t-103 -111.5t-38.5 -155v-674q0 -88 39 -158.5t104 -114t145.5 -66.5t168.5 -23q87 0 167.5 23t146 66.5t105 114.5t39.5 158v275h-444v49h496v-324q0 -99 -43.5 -179t-116.5 -129.5t-163 -76t-187 -26.5t-186.5 26.5t-162 76t-116 129.5t-43.5 179z" />
    <glyph glyph-name="Gcommaaccent" unicode="&#x122;" horiz-adv-x="1298" 
d="M160 391v674q0 96 43.5 175t115.5 128t162 75.5t187 26.5q142 0 264 -54.5t184 -155.5l-47 -31q-53 95 -162.5 142.5t-242.5 47.5q-87 0 -167 -22.5t-144.5 -65t-103 -111.5t-38.5 -155v-674q0 -88 39 -158.5t104 -114t145.5 -66.5t168.5 -23q87 0 167.5 23t146 66.5
t105 114.5t39.5 158v275h-444v49h496v-324q0 -99 -43.5 -179t-116.5 -129.5t-163 -76t-187 -26.5t-186.5 26.5t-162 76t-116 129.5t-43.5 179zM696 -201l-125 -305h-45l103 305h67z" />
    <glyph glyph-name="gcommaaccent" unicode="&#x123;" horiz-adv-x="1298" 
d="M160 391v674q0 96 43.5 175t115.5 128t162 75.5t187 26.5q142 0 264 -54.5t184 -155.5l-47 -31q-53 95 -162.5 142.5t-242.5 47.5q-87 0 -167 -22.5t-144.5 -65t-103 -111.5t-38.5 -155v-674q0 -88 39 -158.5t104 -114t145.5 -66.5t168.5 -23q87 0 167.5 23t146 66.5
t105 114.5t39.5 158v275h-444v49h496v-324q0 -99 -43.5 -179t-116.5 -129.5t-163 -76t-187 -26.5t-186.5 26.5t-162 76t-116 129.5t-43.5 179zM696 -201l-125 -305h-45l103 305h67z" />
    <glyph glyph-name="Hbar" unicode="&#x126;" horiz-adv-x="1409" 
d="M1214 1102v-1102h-51v698h-915v-698h-51v1102h-154v47h154v301h51v-301h915v301h51v-301h148v-47h-148zM248 1102v-352h915v352h-915z" />
    <glyph glyph-name="hbar" unicode="&#x127;" horiz-adv-x="1409" 
d="M1214 1102v-1102h-51v698h-915v-698h-51v1102h-154v47h154v301h51v-301h915v301h51v-301h148v-47h-148zM248 1102v-352h915v352h-915z" />
    <glyph glyph-name="Imacron" unicode="&#x12a;" horiz-adv-x="432" 
d="M14 1610v43h404v-43h-404zM242 1450v-1450h-52v1450h52z" />
    <glyph glyph-name="imacron" unicode="&#x12b;" horiz-adv-x="432" 
d="M14 1610v43h404v-43h-404zM242 1450v-1450h-52v1450h52z" />
    <glyph glyph-name="Iogonek" unicode="&#x12e;" horiz-adv-x="432" 
d="M317 -336l13 -31q-47 -39 -100 -48.5t-97 16t-61 82.5q-20 68 10.5 142.5t112.5 174.5h-5v1450h52v-1450q-91 -113 -116 -181t-9 -124q18 -56 72.5 -67t127.5 36z" />
    <glyph glyph-name="iogonek" unicode="&#x12f;" horiz-adv-x="432" 
d="M317 -336l13 -31q-47 -39 -100 -48.5t-97 16t-61 82.5q-20 68 10.5 142.5t112.5 174.5h-5v1450h52v-1450q-91 -113 -116 -181t-9 -124q18 -56 72.5 -67t127.5 36z" />
    <glyph glyph-name="Idotaccent" unicode="&#x130;" horiz-adv-x="432" 
d="M162 1647q0 25 16 41t39 16t39 -16t16 -41q0 -23 -16 -39.5t-39 -16.5t-39 16.5t-16 39.5zM242 1450v-1450h-52v1450h52z" />
    <glyph glyph-name="dotlessi" unicode="&#x131;" horiz-adv-x="432" 
d="M242 1450v-1450h-52v1450h52z" />
    <glyph glyph-name="IJ" unicode="&#x132;" horiz-adv-x="1611" 
d="M240 1450v-1450h-52v1450h52zM897 1403v47h535v-1067q0 -77 -27.5 -143.5t-74 -113.5t-109 -80.5t-133 -49.5t-144.5 -16q-103 0 -195 32t-164 99.5t-100 160.5l52 17q29 -87 97.5 -148t147.5 -86.5t164 -25.5q82 0 158 22t138.5 64.5t100 111.5t37.5 156v1020h-483z" />
    <glyph glyph-name="ij" unicode="&#x133;" horiz-adv-x="1611" 
d="M240 1450v-1450h-52v1450h52zM897 1403v47h535v-1067q0 -77 -27.5 -143.5t-74 -113.5t-109 -80.5t-133 -49.5t-144.5 -16q-103 0 -195 32t-164 99.5t-100 160.5l52 17q29 -87 97.5 -148t147.5 -86.5t164 -25.5q82 0 158 22t138.5 64.5t100 111.5t37.5 156v1020h-483z" />
    <glyph glyph-name="Kcommaaccent" unicode="&#x136;" horiz-adv-x="1210" 
d="M242 1450v-881l858 881h65l-669 -698l669 -752h-59l-647 715l-217 -217v-498h-52v1450h52zM700 -201l-125 -305h-45l103 305h67z" />
    <glyph glyph-name="kcommaaccent" unicode="&#x137;" horiz-adv-x="1210" 
d="M242 1450v-881l858 881h65l-669 -698l669 -752h-59l-647 715l-217 -217v-498h-52v1450h52zM700 -201l-125 -305h-45l103 305h67z" />
    <glyph glyph-name="Lacute" unicode="&#x139;" horiz-adv-x="1009" 
d="M297 1765h72l-148 -211h-51zM967 0h-777v1450h52v-1399h725v-51z" />
    <glyph glyph-name="lacute" unicode="&#x13a;" horiz-adv-x="1009" 
d="M297 1765h72l-148 -211h-51zM967 0h-777v1450h52v-1399h725v-51z" />
    <glyph glyph-name="Lcommaaccent" unicode="&#x13b;" horiz-adv-x="1009" 
d="M967 0h-777v1450h52v-1399h725v-51zM629 -201l-125 -305h-45l102 305h68z" />
    <glyph glyph-name="lcommaaccent" unicode="&#x13c;" horiz-adv-x="1009" 
d="M967 0h-777v1450h52v-1399h725v-51zM629 -201l-125 -305h-45l102 305h68z" />
    <glyph glyph-name="Lcaron" unicode="&#x13d;" horiz-adv-x="1011" 
d="M967 0h-777v1450h52v-1399h725v-51zM877 1448l-125 -305h-45l102 305h68z" />
    <glyph glyph-name="lcaron" unicode="&#x13e;" horiz-adv-x="1011" 
d="M967 0h-777v1450h52v-1399h725v-51zM877 1448l-125 -305h-45l102 305h68z" />
    <glyph glyph-name="Ldot" unicode="&#x13f;" horiz-adv-x="1013" 
d="M967 0h-777v1450h52v-1399h725v-51zM580 637q0 28 19.5 48t47.5 20q26 0 46 -20t20 -48q0 -26 -20 -46t-46 -20q-27 0 -47 19.5t-20 46.5z" />
    <glyph glyph-name="ldot" unicode="&#x140;" horiz-adv-x="1013" 
d="M967 0h-777v1450h52v-1399h725v-51zM580 637q0 28 19.5 48t47.5 20q26 0 46 -20t20 -48q0 -26 -20 -46t-46 -20q-27 0 -47 19.5t-20 46.5z" />
    <glyph glyph-name="Lslash" unicode="&#x141;" horiz-adv-x="1007" 
d="M938 0h-741v602l-138 -61l-16 34l154 70v807h45v-788l303 137l16 -37l-319 -143v-574h696v-47z" />
    <glyph glyph-name="lslash" unicode="&#x142;" horiz-adv-x="1007" 
d="M938 0h-741v602l-138 -61l-16 34l154 70v807h45v-788l303 137l16 -37l-319 -143v-574h696v-47z" />
    <glyph glyph-name="Nacute" unicode="&#x143;" horiz-adv-x="1374" 
d="M778 1765h72l-148 -211h-51zM270 1450l863 -1401v1401h51v-1450h-88l-850 1384l-2 -1384h-54v1450h80z" />
    <glyph glyph-name="nacute" unicode="&#x144;" horiz-adv-x="1374" 
d="M778 1765h72l-148 -211h-51zM270 1450l863 -1401v1401h51v-1450h-88l-850 1384l-2 -1384h-54v1450h80z" />
    <glyph glyph-name="Ncommaaccent" unicode="&#x145;" horiz-adv-x="1374" 
d="M270 1450l863 -1401v1401h51v-1450h-88l-850 1384l-2 -1384h-54v1450h80zM741 -201l-125 -305h-45l103 305h67z" />
    <glyph glyph-name="ncommaaccent" unicode="&#x146;" horiz-adv-x="1374" 
d="M270 1450l863 -1401v1401h51v-1450h-88l-850 1384l-2 -1384h-54v1450h80zM741 -201l-125 -305h-45l103 305h67z" />
    <glyph glyph-name="Ncaron" unicode="&#x147;" horiz-adv-x="1374" 
d="M672 1556l-176 193h59l145 -162l148 162h57l-176 -193h-57zM270 1450l863 -1401v1401h51v-1450h-88l-850 1384l-2 -1384h-54v1450h80z" />
    <glyph glyph-name="ncaron" unicode="&#x148;" horiz-adv-x="1374" 
d="M672 1556l-176 193h59l145 -162l148 162h57l-176 -193h-57zM270 1450l863 -1401v1401h51v-1450h-88l-850 1384l-2 -1384h-54v1450h80z" />
    <glyph glyph-name="Eng" unicode="&#x14a;" horiz-adv-x="1372" 
d="M1182 1450v-1495q0 -143 -75 -224t-208 -89v45q111 9 171 76.5t60 191.5v18l-886 1411l-2 -1384h-54v1450h80l862 -1374v1374h52z" />
    <glyph glyph-name="eng" unicode="&#x14b;" horiz-adv-x="1372" 
d="M1182 1450v-1495q0 -143 -75 -224t-208 -89v45q111 9 171 76.5t60 191.5v18l-886 1411l-2 -1384h-54v1450h80l862 -1374v1374h52z" />
    <glyph glyph-name="Omacron" unicode="&#x14c;" horiz-adv-x="1396" 
d="M492 1608v43h403v-43h-403zM158 391v670q0 98 46 178t122.5 129t171.5 75.5t198 26.5q82 0 160 -16t147 -50t121 -81.5t82.5 -115t30.5 -146.5v-670q0 -98 -46 -178t-123.5 -130t-173 -76.5t-198.5 -26.5t-198 26.5t-171.5 76.5t-122.5 130t-46 178zM209 1061v-670
q0 -116 71.5 -199.5t179.5 -122t236 -38.5q94 0 180 23t156 66t112 113.5t42 157.5v670q0 92 -42 163t-113 113t-156.5 63t-180.5 21q-95 -1 -179.5 -22.5t-154 -64t-110.5 -113t-41 -160.5z" />
    <glyph glyph-name="omacron" unicode="&#x14d;" horiz-adv-x="1396" 
d="M492 1608v43h403v-43h-403zM158 391v670q0 98 46 178t122.5 129t171.5 75.5t198 26.5q82 0 160 -16t147 -50t121 -81.5t82.5 -115t30.5 -146.5v-670q0 -98 -46 -178t-123.5 -130t-173 -76.5t-198.5 -26.5t-198 26.5t-171.5 76.5t-122.5 130t-46 178zM209 1061v-670
q0 -116 71.5 -199.5t179.5 -122t236 -38.5q94 0 180 23t156 66t112 113.5t42 157.5v670q0 92 -42 163t-113 113t-156.5 63t-180.5 21q-95 -1 -179.5 -22.5t-154 -64t-110.5 -113t-41 -160.5z" />
    <glyph glyph-name="Ohungarumlaut" unicode="&#x150;" horiz-adv-x="1396" 
d="M688 1772l-127 -226h-41l105 226h63zM975 1772l-121 -226h-45l104 226h62zM158 391v670q0 98 46 178t122.5 129t171.5 75.5t198 26.5q82 0 160 -16t147 -50t121 -81.5t82.5 -115t30.5 -146.5v-670q0 -98 -46 -178t-123.5 -130t-173 -76.5t-198.5 -26.5t-198 26.5
t-171.5 76.5t-122.5 130t-46 178zM209 1061v-670q0 -116 71.5 -199.5t179.5 -122t236 -38.5q94 0 180 23t156 66t112 113.5t42 157.5v670q0 92 -42 163t-113 113t-156.5 63t-180.5 21q-95 -1 -179.5 -22.5t-154 -64t-110.5 -113t-41 -160.5z" />
    <glyph glyph-name="ohungarumlaut" unicode="&#x151;" horiz-adv-x="1396" 
d="M688 1772l-127 -226h-41l105 226h63zM975 1772l-121 -226h-45l104 226h62zM158 391v670q0 98 46 178t122.5 129t171.5 75.5t198 26.5q82 0 160 -16t147 -50t121 -81.5t82.5 -115t30.5 -146.5v-670q0 -98 -46 -178t-123.5 -130t-173 -76.5t-198.5 -26.5t-198 26.5
t-171.5 76.5t-122.5 130t-46 178zM209 1061v-670q0 -116 71.5 -199.5t179.5 -122t236 -38.5q94 0 180 23t156 66t112 113.5t42 157.5v670q0 92 -42 163t-113 113t-156.5 63t-180.5 21q-95 -1 -179.5 -22.5t-154 -64t-110.5 -113t-41 -160.5z" />
    <glyph glyph-name="OE" unicode="&#x152;" horiz-adv-x="1902" 
d="M1798 1403h-747v-655h684v-50h-684v-649h747v-49h-797v90q-201 -105 -329 -102q-100 2 -193.5 32.5t-167.5 84.5t-119 136.5t-45 178.5v618q0 79 30 146.5t81.5 115.5t119.5 82.5t145.5 51.5t158.5 18q68 0 156.5 -27t162.5 -77v102h797v-47zM1001 139v1174
q-174 91 -317 88q-94 0 -179 -22t-154.5 -65t-110.5 -114.5t-41 -161.5v-618q0 -88 41.5 -161.5t110 -120.5t155 -73t178.5 -26q128 0 317 100z" />
    <glyph glyph-name="oe" unicode="&#x153;" horiz-adv-x="1902" 
d="M1798 1403h-747v-655h684v-50h-684v-649h747v-49h-797v90q-201 -105 -329 -102q-100 2 -193.5 32.5t-167.5 84.5t-119 136.5t-45 178.5v618q0 79 30 146.5t81.5 115.5t119.5 82.5t145.5 51.5t158.5 18q68 0 156.5 -27t162.5 -77v102h797v-47zM1001 139v1174
q-174 91 -317 88q-94 0 -179 -22t-154.5 -65t-110.5 -114.5t-41 -161.5v-618q0 -88 41.5 -161.5t110 -120.5t155 -73t178.5 -26q128 0 317 100z" />
    <glyph glyph-name="Racute" unicode="&#x154;" horiz-adv-x="1251" 
d="M700 1765h72l-147 -211h-52zM1116 0h-59l-488 647h-329v-647h-50v1450h512q443 0 451 -393q0 -410 -448 -410h-78zM240 692h465q201 0 300 87t99 276q0 96 -29.5 165t-84 109t-125 58t-160.5 16h-465v-711z" />
    <glyph glyph-name="racute" unicode="&#x155;" horiz-adv-x="1251" 
d="M700 1765h72l-147 -211h-52zM1116 0h-59l-488 647h-329v-647h-50v1450h512q443 0 451 -393q0 -410 -448 -410h-78zM240 692h465q201 0 300 87t99 276q0 96 -29.5 165t-84 109t-125 58t-160.5 16h-465v-711z" />
    <glyph glyph-name="Rcommaaccent" unicode="&#x156;" horiz-adv-x="1251" 
d="M1116 0h-59l-488 647h-329v-647h-50v1450h512q443 0 451 -393q0 -410 -448 -410h-78zM240 692h465q201 0 300 87t99 276q0 96 -29.5 165t-84 109t-125 58t-160.5 16h-465v-711zM674 -201l-125 -305h-45l102 305h68z" />
    <glyph glyph-name="rcommaaccent" unicode="&#x157;" horiz-adv-x="1251" 
d="M1116 0h-59l-488 647h-329v-647h-50v1450h512q443 0 451 -393q0 -410 -448 -410h-78zM240 692h465q201 0 300 87t99 276q0 96 -29.5 165t-84 109t-125 58t-160.5 16h-465v-711zM674 -201l-125 -305h-45l102 305h68z" />
    <glyph glyph-name="Rcaron" unicode="&#x158;" horiz-adv-x="1251" 
d="M594 1556l-176 193h59l146 -162l147 162h57l-176 -193h-57zM1116 0h-59l-488 647h-329v-647h-50v1450h512q443 0 451 -393q0 -410 -448 -410h-78zM240 692h465q201 0 300 87t99 276q0 96 -29.5 165t-84 109t-125 58t-160.5 16h-465v-711z" />
    <glyph glyph-name="rcaron" unicode="&#x159;" horiz-adv-x="1251" 
d="M594 1556l-176 193h59l146 -162l147 162h57l-176 -193h-57zM1116 0h-59l-488 647h-329v-647h-50v1450h512q443 0 451 -393q0 -410 -448 -410h-78zM240 692h465q201 0 300 87t99 276q0 96 -29.5 165t-84 109t-125 58t-160.5 16h-465v-711z" />
    <glyph glyph-name="Sacute" unicode="&#x15a;" horiz-adv-x="1183" 
d="M670 1765h71l-147 -211h-51zM176 1118q-5 -63 16 -115t59 -88.5t96 -66t119 -48.5t136 -34q80 -16 144 -35t131 -54t111 -79t69.5 -111t19.5 -149q-8 -112 -80.5 -195t-178.5 -123t-228 -40q-143 0 -271 58t-206 175l47 20q69 -98 185.5 -151t248.5 -53q77 0 148 19
t130.5 55.5t99 97t50.5 137.5q4 54 -7 99.5t-31 79.5t-54 63t-69 48.5t-84 37t-90.5 28.5t-96.5 23q-53 11 -95.5 22t-93.5 29t-89.5 39t-76.5 52t-61.5 67.5t-37 85.5t-11.5 106q2 70 29.5 128.5t72 99.5t103.5 69t125.5 41.5t136.5 13.5q148 0 266.5 -55t183.5 -168
l-47 -18q-55 94 -164.5 143t-238.5 49q-80 0 -150 -17.5t-129 -52.5t-95.5 -95t-41.5 -138z" />
    <glyph glyph-name="sacute" unicode="&#x15b;" horiz-adv-x="1183" 
d="M670 1765h71l-147 -211h-51zM176 1118q-5 -63 16 -115t59 -88.5t96 -66t119 -48.5t136 -34q80 -16 144 -35t131 -54t111 -79t69.5 -111t19.5 -149q-8 -112 -80.5 -195t-178.5 -123t-228 -40q-143 0 -271 58t-206 175l47 20q69 -98 185.5 -151t248.5 -53q77 0 148 19
t130.5 55.5t99 97t50.5 137.5q4 54 -7 99.5t-31 79.5t-54 63t-69 48.5t-84 37t-90.5 28.5t-96.5 23q-53 11 -95.5 22t-93.5 29t-89.5 39t-76.5 52t-61.5 67.5t-37 85.5t-11.5 106q2 70 29.5 128.5t72 99.5t103.5 69t125.5 41.5t136.5 13.5q148 0 266.5 -55t183.5 -168
l-47 -18q-55 94 -164.5 143t-238.5 49q-80 0 -150 -17.5t-129 -52.5t-95.5 -95t-41.5 -138z" />
    <glyph glyph-name="Scedilla" unicode="&#x15e;" horiz-adv-x="1183" 
d="M602 766q80 -16 144 -35t131 -54t111 -79t69.5 -111t19.5 -149q-7 -103 -70 -182.5t-157 -122t-207 -51.5l-70 -125q83 0 121 -43.5t27 -108.5q-10 -55 -63.5 -93t-135.5 -34q-58 3 -133 39l6 37q71 -37 127 -39q72 -3 110.5 26.5t47.5 73.5q11 56 -33.5 87.5
t-128.5 21.5l86 156h-14q-143 0 -271 58t-206 175l47 20q69 -98 185.5 -151t248.5 -53q77 0 148 19t130.5 55.5t99 97t50.5 137.5q4 54 -7 99.5t-31 79.5t-54 63t-69 48.5t-84 37t-90.5 28.5t-96.5 23q-53 11 -95.5 22t-93.5 29t-89.5 39t-76.5 52t-61.5 67.5t-37 85.5
t-11.5 106q2 70 29.5 128.5t72 99.5t103.5 69t125.5 41.5t136.5 13.5q148 0 266.5 -55t183.5 -168l-47 -18q-55 94 -164.5 143t-238.5 49q-80 0 -150 -17.5t-129 -52.5t-95.5 -95t-41.5 -138q-5 -63 16 -115t59 -88.5t96 -66t119 -48.5t136 -34z" />
    <glyph glyph-name="scedilla" unicode="&#x15f;" horiz-adv-x="1183" 
d="M602 766q80 -16 144 -35t131 -54t111 -79t69.5 -111t19.5 -149q-7 -103 -70 -182.5t-157 -122t-207 -51.5l-70 -125q83 0 121 -43.5t27 -108.5q-10 -55 -63.5 -93t-135.5 -34q-58 3 -133 39l6 37q71 -37 127 -39q72 -3 110.5 26.5t47.5 73.5q11 56 -33.5 87.5
t-128.5 21.5l86 156h-14q-143 0 -271 58t-206 175l47 20q69 -98 185.5 -151t248.5 -53q77 0 148 19t130.5 55.5t99 97t50.5 137.5q4 54 -7 99.5t-31 79.5t-54 63t-69 48.5t-84 37t-90.5 28.5t-96.5 23q-53 11 -95.5 22t-93.5 29t-89.5 39t-76.5 52t-61.5 67.5t-37 85.5
t-11.5 106q2 70 29.5 128.5t72 99.5t103.5 69t125.5 41.5t136.5 13.5q148 0 266.5 -55t183.5 -168l-47 -18q-55 94 -164.5 143t-238.5 49q-80 0 -150 -17.5t-129 -52.5t-95.5 -95t-41.5 -138q-5 -63 16 -115t59 -88.5t96 -66t119 -48.5t136 -34z" />
    <glyph glyph-name="Scaron" unicode="&#x160;" horiz-adv-x="1183" 
d="M563 1556l-176 193h59l146 -162l147 162h58l-176 -193h-58zM176 1118q-5 -63 16 -115t59 -88.5t96 -66t119 -48.5t136 -34q80 -16 144 -35t131 -54t111 -79t69.5 -111t19.5 -149q-8 -112 -80.5 -195t-178.5 -123t-228 -40q-143 0 -271 58t-206 175l47 20
q69 -98 185.5 -151t248.5 -53q77 0 148 19t130.5 55.5t99 97t50.5 137.5q4 54 -7 99.5t-31 79.5t-54 63t-69 48.5t-84 37t-90.5 28.5t-96.5 23q-53 11 -95.5 22t-93.5 29t-89.5 39t-76.5 52t-61.5 67.5t-37 85.5t-11.5 106q2 70 29.5 128.5t72 99.5t103.5 69t125.5 41.5
t136.5 13.5q148 0 266.5 -55t183.5 -168l-47 -18q-55 94 -164.5 143t-238.5 49q-80 0 -150 -17.5t-129 -52.5t-95.5 -95t-41.5 -138z" />
    <glyph glyph-name="scaron" unicode="&#x161;" horiz-adv-x="1183" 
d="M563 1556l-176 193h59l146 -162l147 162h58l-176 -193h-58zM176 1118q-5 -63 16 -115t59 -88.5t96 -66t119 -48.5t136 -34q80 -16 144 -35t131 -54t111 -79t69.5 -111t19.5 -149q-8 -112 -80.5 -195t-178.5 -123t-228 -40q-143 0 -271 58t-206 175l47 20
q69 -98 185.5 -151t248.5 -53q77 0 148 19t130.5 55.5t99 97t50.5 137.5q4 54 -7 99.5t-31 79.5t-54 63t-69 48.5t-84 37t-90.5 28.5t-96.5 23q-53 11 -95.5 22t-93.5 29t-89.5 39t-76.5 52t-61.5 67.5t-37 85.5t-11.5 106q2 70 29.5 128.5t72 99.5t103.5 69t125.5 41.5
t136.5 13.5q148 0 266.5 -55t183.5 -168l-47 -18q-55 94 -164.5 143t-238.5 49q-80 0 -150 -17.5t-129 -52.5t-95.5 -95t-41.5 -138z" />
    <glyph glyph-name="Tcommaaccent" unicode="&#x162;" horiz-adv-x="1107" 
d="M1063 1450v-51h-483v-1399h-52v1399h-483v51h1018zM594 -201l-125 -305h-45l102 305h68z" />
    <glyph glyph-name="tcommaaccent" unicode="&#x163;" horiz-adv-x="1107" 
d="M1063 1450v-51h-483v-1399h-52v1399h-483v51h1018zM594 -201l-125 -305h-45l102 305h68z" />
    <glyph glyph-name="Tcaron" unicode="&#x164;" horiz-adv-x="1107" 
d="M526 1556l-176 193h60l145 -162l147 162h58l-176 -193h-58zM1063 1450v-51h-483v-1399h-52v1399h-483v51h1018z" />
    <glyph glyph-name="tcaron" unicode="&#x165;" horiz-adv-x="1107" 
d="M526 1556l-176 193h60l145 -162l147 162h58l-176 -193h-58zM1063 1450v-51h-483v-1399h-52v1399h-483v51h1018z" />
    <glyph glyph-name="Tbar" unicode="&#x166;" horiz-adv-x="1114" 
d="M582 737h196v-39h-196v-698h-52v698h-196v39h196v662h-483v51h1018v-51h-483v-662z" />
    <glyph glyph-name="tbar" unicode="&#x167;" horiz-adv-x="1114" 
d="M582 737h196v-39h-196v-698h-52v698h-196v39h196v662h-483v51h1018v-51h-483v-662z" />
    <glyph glyph-name="Umacron" unicode="&#x16a;" horiz-adv-x="1378" 
d="M487 1610v43h404v-43h-404zM231 1450v-1053q0 -89 39 -161t104 -116t145.5 -67.5t168.5 -23.5q69 0 135 14.5t125 44.5t103 73t70 103.5t26 132.5v1053h51v-1053q0 -100 -43.5 -181t-116.5 -131.5t-163 -77.5t-187 -27t-187 27t-162 77.5t-115.5 131.5t-43.5 181v1053h51
z" />
    <glyph glyph-name="umacron" unicode="&#x16b;" horiz-adv-x="1378" 
d="M487 1610v43h404v-43h-404zM231 1450v-1053q0 -89 39 -161t104 -116t145.5 -67.5t168.5 -23.5q69 0 135 14.5t125 44.5t103 73t70 103.5t26 132.5v1053h51v-1053q0 -100 -43.5 -181t-116.5 -131.5t-163 -77.5t-187 -27t-187 27t-162 77.5t-115.5 131.5t-43.5 181v1053h51
z" />
    <glyph glyph-name="Uring" unicode="&#x16e;" horiz-adv-x="1378" 
d="M537 1700q0 75 45.5 117.5t113.5 42.5q67 0 110.5 -48.5t43.5 -113.5q0 -62 -46 -110t-108 -48q-67 0 -113 44t-46 116zM807 1700q0 46 -33 81.5t-80 35.5q-48 0 -79 -32.5t-31 -86.5q0 -47 32 -81t78 -34q47 0 80 35.5t33 81.5zM231 1450v-1053q0 -89 39 -161t104 -116
t145.5 -67.5t168.5 -23.5q69 0 135 14.5t125 44.5t103 73t70 103.5t26 132.5v1053h51v-1053q0 -100 -43.5 -181t-116.5 -131.5t-163 -77.5t-187 -27t-187 27t-162 77.5t-115.5 131.5t-43.5 181v1053h51z" />
    <glyph glyph-name="uring" unicode="&#x16f;" horiz-adv-x="1378" 
d="M537 1700q0 75 45.5 117.5t113.5 42.5q67 0 110.5 -48.5t43.5 -113.5q0 -62 -46 -110t-108 -48q-67 0 -113 44t-46 116zM807 1700q0 46 -33 81.5t-80 35.5q-48 0 -79 -32.5t-31 -86.5q0 -47 32 -81t78 -34q47 0 80 35.5t33 81.5zM231 1450v-1053q0 -89 39 -161t104 -116
t145.5 -67.5t168.5 -23.5q69 0 135 14.5t125 44.5t103 73t70 103.5t26 132.5v1053h51v-1053q0 -100 -43.5 -181t-116.5 -131.5t-163 -77.5t-187 -27t-187 27t-162 77.5t-115.5 131.5t-43.5 181v1053h51z" />
    <glyph glyph-name="Uhungarumlaut" unicode="&#x170;" horiz-adv-x="1378" 
d="M684 1774l-127 -226h-41l105 226h63zM971 1774l-121 -226h-45l104 226h62zM231 1450v-1053q0 -89 39 -161t104 -116t145.5 -67.5t168.5 -23.5q69 0 135 14.5t125 44.5t103 73t70 103.5t26 132.5v1053h51v-1053q0 -100 -43.5 -181t-116.5 -131.5t-163 -77.5t-187 -27
t-187 27t-162 77.5t-115.5 131.5t-43.5 181v1053h51z" />
    <glyph glyph-name="uhungarumlaut" unicode="&#x171;" horiz-adv-x="1378" 
d="M684 1774l-127 -226h-41l105 226h63zM971 1774l-121 -226h-45l104 226h62zM231 1450v-1053q0 -89 39 -161t104 -116t145.5 -67.5t168.5 -23.5q69 0 135 14.5t125 44.5t103 73t70 103.5t26 132.5v1053h51v-1053q0 -100 -43.5 -181t-116.5 -131.5t-163 -77.5t-187 -27
t-187 27t-162 77.5t-115.5 131.5t-43.5 181v1053h51z" />
    <glyph glyph-name="Uogonek" unicode="&#x172;" horiz-adv-x="1378" 
d="M1198 1450v-1055q0 -70 -23.5 -130.5t-67.5 -108t-86.5 -80t-100.5 -66.5q-33 -19 -67.5 -49t-68 -71.5t-48.5 -93t-1 -101.5q16 -56 72 -67t129 36l12 -31q-47 -39 -100 -48.5t-97 16t-61 82.5q-22 74 8 148t131 165q-52 -16 -141 -16q-97 0 -187 27t-162 77.5
t-115.5 131.5t-43.5 181v1053h51v-1053q0 -89 39 -161t104 -116t145.5 -67.5t168.5 -23.5q69 0 135 14.5t125 44.5t103 73t70 103.5t26 132.5v1053h51z" />
    <glyph glyph-name="uogonek" unicode="&#x173;" horiz-adv-x="1378" 
d="M1198 1450v-1055q0 -70 -23.5 -130.5t-67.5 -108t-86.5 -80t-100.5 -66.5q-33 -19 -67.5 -49t-68 -71.5t-48.5 -93t-1 -101.5q16 -56 72 -67t129 36l12 -31q-47 -39 -100 -48.5t-97 16t-61 82.5q-22 74 8 148t131 165q-52 -16 -141 -16q-97 0 -187 27t-162 77.5
t-115.5 131.5t-43.5 181v1053h51v-1053q0 -89 39 -161t104 -116t145.5 -67.5t168.5 -23.5q69 0 135 14.5t125 44.5t103 73t70 103.5t26 132.5v1053h51z" />
    <glyph glyph-name="Wcircumflex" unicode="&#x174;" horiz-adv-x="1898" 
d="M1153 1546h-57l-148 162l-145 -162h-60l177 193h57zM1790 1450h55l-424 -1450h-84l-387 1184l-389 -1184h-80l-430 1450h55l412 -1378h10l387 1161h68l389 -1165h12z" />
    <glyph glyph-name="wcircumflex" unicode="&#x175;" horiz-adv-x="1898" 
d="M1153 1546h-57l-148 162l-145 -162h-60l177 193h57zM1790 1450h55l-424 -1450h-84l-387 1184l-389 -1184h-80l-430 1450h55l412 -1378h10l387 1161h68l389 -1165h12z" />
    <glyph glyph-name="Ycircumflex" unicode="&#x176;" horiz-adv-x="1126" 
d="M766 1546h-57l-148 162l-145 -162h-60l176 193h58zM586 575v-575h-51v575l-496 875h61l461 -817l475 817h64z" />
    <glyph glyph-name="ycircumflex" unicode="&#x177;" horiz-adv-x="1126" 
d="M766 1546h-57l-148 162l-145 -162h-60l176 193h58zM586 575v-575h-51v575l-496 875h61l461 -817l475 817h64z" />
    <glyph glyph-name="Ydieresis" unicode="&#x178;" horiz-adv-x="1126" 
d="M322 1657q0 20 14.5 34.5t34.5 14.5t34.5 -14.5t14.5 -34.5t-14.5 -34.5t-34.5 -14.5t-34.5 14.5t-14.5 34.5zM690 1657q0 20 14.5 34.5t34.5 14.5t34.5 -14.5t14.5 -34.5t-14.5 -34.5t-34.5 -14.5t-34.5 14.5t-14.5 34.5zM586 575v-575h-51v575l-496 875h61l461 -817
l475 817h64z" />
    <glyph glyph-name="Zacute" unicode="&#x179;" horiz-adv-x="1124" 
d="M664 1765h71l-147 -211h-51zM100 1405v45h942l19 -27l-932 -1378h903v-45h-952l-21 25l932 1380h-891z" />
    <glyph glyph-name="zacute" unicode="&#x17a;" horiz-adv-x="1124" 
d="M664 1765h71l-147 -211h-51zM100 1405v45h942l19 -27l-932 -1378h903v-45h-952l-21 25l932 1380h-891z" />
    <glyph glyph-name="Zdotaccent" unicode="&#x17b;" horiz-adv-x="1124" 
d="M530 1647q0 25 16 41t40 16q23 0 39 -16t16 -41q0 -23 -16 -39.5t-39 -16.5t-39.5 16.5t-16.5 39.5zM100 1405v45h942l19 -27l-932 -1378h903v-45h-952l-21 25l932 1380h-891z" />
    <glyph glyph-name="zdotaccent" unicode="&#x17c;" horiz-adv-x="1124" 
d="M530 1647q0 25 16 41t40 16q23 0 39 -16t16 -41q0 -23 -16 -39.5t-39 -16.5t-39.5 16.5t-16.5 39.5zM100 1405v45h942l19 -27l-932 -1378h903v-45h-952l-21 25l932 1380h-891z" />
    <glyph glyph-name="Zcaron" unicode="&#x17d;" horiz-adv-x="1124" 
d="M557 1556l-176 193h59l146 -162l147 162h58l-177 -193h-57zM100 1405v45h942l19 -27l-932 -1378h903v-45h-952l-21 25l932 1380h-891z" />
    <glyph glyph-name="zcaron" unicode="&#x17e;" horiz-adv-x="1124" 
d="M557 1556l-176 193h59l146 -162l147 162h58l-177 -193h-57zM100 1405v45h942l19 -27l-932 -1378h903v-45h-952l-21 25l932 1380h-891z" />
    <glyph glyph-name="florin" unicode="&#x192;" horiz-adv-x="839" 
d="M805 1450l-19 -43q-52 18 -81 18q-86 0 -137 -56.5t-64 -137.5l-74 -408h232l-9 -41h-233l-152 -817q-30 -118 -88 -171.5t-170 -53.5l8 49q20 0 39 2.5t45.5 13.5t47.5 28.5t40.5 51t28.5 78.5l148 819h-228l11 41h227l76 406v-2q52 243 252 243q45 0 100 -20z" />
    <glyph glyph-name="Scommaaccent" unicode="&#x218;" horiz-adv-x="1183" 
d="M176 1118q-5 -63 16 -115t59 -88.5t96 -66t119 -48.5t136 -34q80 -16 144 -35t131 -54t111 -79t69.5 -111t19.5 -149q-8 -112 -80.5 -195t-178.5 -123t-228 -40q-143 0 -271 58t-206 175l47 20q69 -98 185.5 -151t248.5 -53q77 0 148 19t130.5 55.5t99 97t50.5 137.5
q4 54 -7 99.5t-31 79.5t-54 63t-69 48.5t-84 37t-90.5 28.5t-96.5 23q-53 11 -95.5 22t-93.5 29t-89.5 39t-76.5 52t-61.5 67.5t-37 85.5t-11.5 106q2 70 29.5 128.5t72 99.5t103.5 69t125.5 41.5t136.5 13.5q148 0 266.5 -55t183.5 -168l-47 -18q-55 94 -164.5 143
t-238.5 49q-80 0 -150 -17.5t-129 -52.5t-95.5 -95t-41.5 -138zM629 -205l-125 -305h-45l102 305h68z" />
    <glyph glyph-name="scommaaccent" unicode="&#x219;" horiz-adv-x="1183" 
d="M176 1118q-5 -63 16 -115t59 -88.5t96 -66t119 -48.5t136 -34q80 -16 144 -35t131 -54t111 -79t69.5 -111t19.5 -149q-8 -112 -80.5 -195t-178.5 -123t-228 -40q-143 0 -271 58t-206 175l47 20q69 -98 185.5 -151t248.5 -53q77 0 148 19t130.5 55.5t99 97t50.5 137.5
q4 54 -7 99.5t-31 79.5t-54 63t-69 48.5t-84 37t-90.5 28.5t-96.5 23q-53 11 -95.5 22t-93.5 29t-89.5 39t-76.5 52t-61.5 67.5t-37 85.5t-11.5 106q2 70 29.5 128.5t72 99.5t103.5 69t125.5 41.5t136.5 13.5q148 0 266.5 -55t183.5 -168l-47 -18q-55 94 -164.5 143
t-238.5 49q-80 0 -150 -17.5t-129 -52.5t-95.5 -95t-41.5 -138zM629 -205l-125 -305h-45l102 305h68z" />
    <glyph glyph-name="uni021A" unicode="&#x21a;" horiz-adv-x="1107" 
d="M1063 1450v-51h-483v-1399h-52v1399h-483v51h1018zM594 -201l-125 -305h-45l102 305h68z" />
    <glyph glyph-name="uni021B" unicode="&#x21b;" horiz-adv-x="1107" 
d="M1063 1450v-51h-483v-1399h-52v1399h-483v51h1018zM594 -201l-125 -305h-45l102 305h68z" />
    <glyph glyph-name="circumflex" unicode="&#x2c6;" horiz-adv-x="573" 
d="M494 1546h-58l-147 162l-146 -162h-59l176 193h57z" />
    <glyph glyph-name="caron" unicode="&#x2c7;" horiz-adv-x="569" 
d="M266 1556l-176 193h60l145 -162l147 162h58l-176 -193h-58z" />
    <glyph glyph-name="uni02C9" unicode="&#x2c9;" horiz-adv-x="546" 
d="M49 1604v49h486v-49h-486z" />
    <glyph glyph-name="breve" unicode="&#x2d8;" horiz-adv-x="1245" 
d="M623 1591q-71 0 -129 41.5t-76 116.5h47q17 -55 60.5 -84t97.5 -29t97 29t60 84h47q-18 -75 -75.5 -116.5t-128.5 -41.5z" />
    <glyph glyph-name="dotaccent" unicode="&#x2d9;" horiz-adv-x="491" 
d="M236 1647q0 25 16 41t39 16t39 -16t16 -41q0 -23 -16 -39.5t-39 -16.5t-39 16.5t-16 39.5z" />
    <glyph glyph-name="ring" unicode="&#x2da;" horiz-adv-x="489" 
d="M55 1700q0 75 46 117.5t114 42.5q67 0 110.5 -48.5t43.5 -113.5q0 -62 -46 -110t-108 -48q-67 0 -113.5 44.5t-46.5 115.5zM326 1700q0 46 -33 81.5t-80 35.5q-48 0 -79.5 -32.5t-31.5 -86.5q0 -47 32.5 -81t78.5 -34q47 0 80 35.5t33 81.5z" />
    <glyph glyph-name="ogonek" unicode="&#x2db;" horiz-adv-x="468" 
d="M389 -336l12 -31q-47 -39 -100 -48.5t-97 16t-61 82.5q-20 68 10.5 142.5t112.5 174.5h47q-91 -113 -116 -181t-9 -124q18 -56 73 -67t128 36z" />
    <glyph glyph-name="tilde" unicode="&#x2dc;" horiz-adv-x="555" 
d="M123 1614l-31 12q16 43 48 71.5t75 28.5q35 0 72.5 -24.5t71 -49t59.5 -24.5q31 0 49 16.5t31 49.5l32 -13q-32 -98 -112 -98q-34 0 -70 25t-70.5 50t-64.5 25q-61 0 -90 -69z" />
    <glyph glyph-name="hungarumlaut" unicode="&#x2dd;" horiz-adv-x="489" 
d="M240 1774l-127 -226h-41l104 226h64zM526 1774l-120 -226h-46l105 226h61z" />
    <glyph glyph-name="uni0326" unicode="&#x326;" horiz-adv-x="0" 
d="M662 -201l-125 -305h-45l102 305h68z" />
    <glyph glyph-name="uni03A9" unicode="&#x3a9;" horiz-adv-x="1568" 
d="M510 76l-74 61q-134 109 -216.5 272t-82.5 365q0 147 52 273.5t141 212.5t209.5 135t255.5 49q184 0 331 -91.5t225.5 -242t78.5 -328.5q0 -212 -102 -398t-261 -308h389v-45h-493v24q176 106 295.5 307.5t119.5 419.5q0 88 -24.5 175.5t-74.5 166.5t-118 140t-163 97
t-203 36q-129 0 -241.5 -47.5t-192 -130.5t-125.5 -199t-46 -248q0 -118 32.5 -226t91.5 -196.5t132 -160t164 -132.5v-24h-497v43h397z" />
    <glyph glyph-name="uni03BC" unicode="&#x3bc;" horiz-adv-x="1071" 
d="M862 0v281q-21 -76 -60.5 -132.5t-91 -87.5t-105.5 -46t-111 -15q-45 0 -85 9t-80 30t-71 61t-47 97l2 -629h-45v1493h47v-672q0 -49 7.5 -95t27 -93.5t49.5 -82.5t80.5 -57t114.5 -22q158 0 258 113.5t100 320.5v588h49l6 -1061h-45z" />
    <glyph glyph-name="pi" unicode="&#x3c0;" horiz-adv-x="1112" 
d="M983 37l2 -39q-104 0 -132 39.5t-28 179.5v793h-495v-996h-43v996q-41 0 -70.5 -1t-55 -5t-34.5 -5.5t-35.5 -8.5t-32.5 -9l-6 39q83 33 226 33h759l-2 -43h-166v-793v-44t1.5 -36.5t4.5 -32t8 -24t13.5 -20t20.5 -12.5t28 -9t37 -2z" />
    <glyph glyph-name="uni0401" unicode="&#x401;" horiz-adv-x="1157" 
d="M389 1657q0 20 14.5 34.5t34.5 14.5t34.5 -14.5t14.5 -34.5t-14.5 -34.5t-34.5 -14.5t-34.5 14.5t-14.5 34.5zM758 1657q0 20 14.5 34.5t34.5 14.5t34.5 -14.5t14.5 -34.5t-14.5 -34.5t-34.5 -14.5t-34.5 14.5t-14.5 34.5zM242 1399v-649h749v-56h-749v-643h811v-51h-863
v1450h863v-51h-811z" />
    <glyph glyph-name="uni0410" unicode="&#x410;" 
d="M285 518l-193 -518h-55l536 1450h82l537 -1450h-55l-193 518h-659zM618 1401h-8l-307 -832h623z" />
    <glyph glyph-name="uni0411" unicode="&#x411;" horiz-adv-x="1267" 
d="M1069 1403h-827v-598h495q217 0 326 -103.5t106 -314.5q-1 -109 -35.5 -186t-97.5 -120t-140 -62t-177 -19h-529v1450h879v-47zM242 756v-707h479q185 -3 291 78.5t106 261.5q0 367 -397 367h-479z" />
    <glyph glyph-name="uni0412" unicode="&#x412;" horiz-adv-x="1284" 
d="M891 770l72 -25q57 -24 99.5 -65.5t65 -91.5t32.5 -99.5t9 -101.5q-2 -109 -36.5 -186t-97 -120t-140 -62t-176.5 -19h-529v1450h531q166 0 272.5 -93t106.5 -259q0 -96 -36.5 -173t-109.5 -120zM242 793h479q150 0 240 76t90 227q0 147 -93 227t-237 80h-479v-610z
M242 49h479q185 -3 291 78.5t106 261.5q0 357 -397 354h-479v-694z" />
    <glyph glyph-name="uni0413" unicode="&#x413;" horiz-adv-x="1054" 
d="M1010 1399h-768v-1399h-52v1450h820v-51z" />
    <glyph glyph-name="uni0414" unicode="&#x414;" horiz-adv-x="1386" 
d="M1171 53h138v-375h-54v322h-1179v-322h-53v375h51q59 8 104.5 39.5t78.5 92t55.5 131.5t39 180.5t27 214t20.5 256.5l33 483h739v-1397zM481 1397l-35 -533q-26 -385 -88.5 -578.5t-167.5 -232.5h928v1344h-637z" />
    <glyph glyph-name="uni0415" unicode="&#x415;" horiz-adv-x="1157" 
d="M242 1399v-649h749v-56h-749v-643h811v-51h-863v1450h863v-51h-811z" />
    <glyph glyph-name="uni0416" unicode="&#x416;" horiz-adv-x="1767" 
d="M1110 762l598 -762h-70l-565 721l-164 -182v-539h-51v539l-164 182l-565 -721h-70l598 762l-620 688l78 -2l743 -836v838h51v-838l744 836l78 2z" />
    <glyph glyph-name="uni0417" unicode="&#x417;" horiz-adv-x="1091" 
d="M526 1470q168 0 273.5 -96t105.5 -276q0 -117 -46 -190t-177 -138q78 -25 133.5 -58.5t86.5 -68t48 -80t21.5 -84.5t3.5 -92q-2 -109 -37 -189t-97 -127t-140.5 -69t-176.5 -22q-308 0 -456 208l43 27q144 -186 415 -186q181 -3 289.5 87.5t108.5 272.5q0 184 -104 271.5
t-294 87.5h-178v43h178q149 0 239.5 77t90.5 228q0 160 -92 243.5t-238 83.5q-114 0 -206.5 -37t-147.5 -114l-41 20q119 178 395 178z" />
    <glyph glyph-name="uni0418" unicode="&#x418;" horiz-adv-x="1406" 
d="M1217 0h-52v1276l2 108h-2l-73 -110l-822 -1274h-80v1450h52v-1260l-2 -141h2l88 135l817 1266h70v-1450z" />
    <glyph glyph-name="uni0419" unicode="&#x419;" horiz-adv-x="1406" 
d="M961 1886h51q-19 -119 -100 -193.5t-205 -74.5t-205.5 74.5t-100.5 193.5h52q22 -99 84.5 -158t169.5 -59t169.5 59t84.5 158zM1217 0h-52v1278l2 106h-2l-69 -106l-826 -1278h-80v1450h52v-1223l-2 -178h2l106 164l797 1237h72v-1450z" />
    <glyph glyph-name="uni041A" unicode="&#x41a;" horiz-adv-x="1210" 
d="M242 1450v-881l858 881h65l-669 -698l669 -752h-59l-647 715l-217 -217v-498h-52v1450h52z" />
    <glyph glyph-name="uni041B" unicode="&#x41b;" horiz-adv-x="1351" 
d="M1161 0h-51v1399h-633l-41 -578q-7 -101 -13 -165.5t-20.5 -160.5t-32.5 -157t-50 -131.5t-73 -111t-101 -68t-134 -27.5v51q60 0 110 23.5t85.5 62t64 99.5t46.5 123t32 146t21 156t14 164l45 625h731v-1450z" />
    <glyph glyph-name="uni041C" unicode="&#x41c;" horiz-adv-x="1632" 
d="M782 229l-522 1170l-18 -2v-1397h-52v1450h109l518 -1174l516 1174h109v-1450h-51v1413h-19l-520 -1184h-70z" />
    <glyph glyph-name="uni041D" unicode="&#x41d;" horiz-adv-x="1398" 
d="M242 698v-698h-52v1450h52v-700h915v700h51v-1450h-51v698h-915z" />
    <glyph glyph-name="uni041E" unicode="&#x41e;" horiz-adv-x="1396" 
d="M158 391v670q0 98 46 178t122.5 129t171.5 75.5t198 26.5q82 0 160 -16t147 -50t121 -81.5t82.5 -115t30.5 -146.5v-670q0 -98 -46 -178t-123.5 -130t-173 -76.5t-198.5 -26.5t-198 26.5t-171.5 76.5t-122.5 130t-46 178zM209 1061v-670q0 -116 71.5 -199.5t179.5 -122
t236 -38.5q94 0 180 23t156 66t112 113.5t42 157.5v670q0 92 -42 163t-113 113t-156.5 63t-180.5 21q-95 -1 -179.5 -22.5t-154 -64t-110.5 -113t-41 -160.5z" />
    <glyph glyph-name="uni041F" unicode="&#x41f;" horiz-adv-x="1382" 
d="M242 1399v-1399h-52v1450h1002v-1450h-51v1399h-899z" />
    <glyph glyph-name="uni0420" unicode="&#x420;" horiz-adv-x="1232" 
d="M242 0h-52v1450h512q107 -1 193.5 -40t140.5 -102t82.5 -139.5t28.5 -158.5q0 -81 -28.5 -156.5t-81.5 -137.5t-139 -99.5t-193 -38.5h-463v-578zM242 629h460q96 0 173 33t124 88t72 122.5t25 139.5q0 73 -25.5 141.5t-73 124.5t-124 90t-171.5 35h-460v-774z" />
    <glyph glyph-name="uni0421" unicode="&#x421;" horiz-adv-x="1196" 
d="M160 385v680q0 96 44 175t117.5 128t164 75.5t188.5 26.5q143 0 265.5 -53.5t184.5 -154.5l-45 -33q-55 91 -168.5 141.5t-242.5 50.5q-116 0 -218 -40.5t-170.5 -126t-68.5 -199.5v-670q0 -86 39.5 -155t105 -111.5t146 -65t166.5 -22.5q129 0 241 46.5t170 135.5
l45 -23q-62 -101 -187 -155.5t-269 -54.5q-77 0 -150 16t-138 49.5t-114 81t-77.5 114t-28.5 144.5z" />
    <glyph glyph-name="uni0422" unicode="&#x422;" horiz-adv-x="1107" 
d="M1063 1450v-51h-483v-1399h-52v1399h-483v51h1018z" />
    <glyph glyph-name="uni0423" unicode="&#x423;" horiz-adv-x="1036" 
d="M358 0h-59l203 442l-496 1008h66l354 -731l104 -213h2l89 199l335 745h60z" />
    <glyph glyph-name="uni0424" unicode="&#x424;" horiz-adv-x="1484" 
d="M768 1450v-176q99 0 179 -8t160 -31t134 -60t87.5 -100t33.5 -147v-406q0 -84 -33.5 -147t-87.5 -100t-134 -60t-160 -31t-179 -8v-176h-51v176q-99 0 -179 8t-160 31t-134 60t-87.5 100t-33.5 147v406q0 84 33.5 147t87.5 100t134 60t160 31t179 8v176h51zM717 227v996
q-84 0 -154 -6t-145 -25t-126.5 -50t-84.5 -86t-33 -128v-406q0 -73 33 -128t84.5 -86t126.5 -50t145 -25t154 -6zM768 1223v-996q84 0 154 6t145 25t126.5 50t84.5 86t33 128v406q0 73 -33 128t-84.5 86t-126.5 50t-145 25t-154 6z" />
    <glyph glyph-name="uni0425" unicode="&#x425;" horiz-adv-x="1120" 
d="M596 727l469 -727h-59l-445 688l-444 -688h-64l477 723l-475 727h58l448 -680l447 680h59z" />
    <glyph glyph-name="uni0426" unicode="&#x426;" horiz-adv-x="1390" 
d="M1176 53h137v-375h-53v322h-1072v1450h52v-1397h882v1397h54v-1397z" />
    <glyph glyph-name="uni0427" unicode="&#x427;" horiz-adv-x="1236" 
d="M1047 0h-52v700q-183 -202 -428 -202q-93 0 -173 26.5t-142 77.5t-97.5 132.5t-35.5 185.5v530h51v-530q0 -91 33.5 -163.5t90.5 -117t126.5 -67.5t146.5 -23q139 0 238 55.5t190 161.5v684h52v-1450z" />
    <glyph glyph-name="uni0428" unicode="&#x428;" horiz-adv-x="1804" 
d="M1614 0h-1424v1450h52v-1399h635v1399h51v-1399h635v1399h51v-1450z" />
    <glyph glyph-name="uni0429" unicode="&#x429;" horiz-adv-x="1826" 
d="M1612 53h135v-375h-51v322h-1510v1450h52v-1397h634v1397h52v-1397h635v1397h53v-1397z" />
    <glyph glyph-name="uni042A" unicode="&#x42a;" horiz-adv-x="1386" 
d="M379 831h483q219 0 327 -108t105 -336q-1 -109 -35.5 -186t-97.5 -120t-140 -62t-177 -19h-516v1401h-279v49h330v-619zM379 782v-733h467q397 0 397 340q0 207 -102 300t-295 93h-467z" />
    <glyph glyph-name="uni042B" unicode="&#x42b;" horiz-adv-x="1658" 
d="M242 831h483q219 0 327 -108t105 -336q-1 -109 -35.5 -186t-97.5 -120t-140 -62t-177 -19h-517v1450h52v-619zM1468 0h-51v1450h51v-1450zM242 782v-733h467q397 0 397 340q0 207 -102 300t-295 93h-467z" />
    <glyph glyph-name="uni042C" unicode="&#x42c;" horiz-adv-x="1249" 
d="M242 831h483q219 0 327 -108t105 -336q-1 -109 -35.5 -186t-97.5 -120t-140 -62t-177 -19h-517v1450h52v-619zM242 782v-733h467q397 0 397 340q0 207 -102 300t-295 93h-467z" />
    <glyph glyph-name="uni042D" unicode="&#x42d;" horiz-adv-x="1218" 
d="M547 1470q103 0 195 -26.5t163 -76t112.5 -127.5t41.5 -175v-680q0 -78 -28.5 -144.5t-77.5 -114t-114 -81t-138 -49.5t-150 -16q-144 0 -269.5 54.5t-187.5 155.5l45 23q58 -89 170 -135.5t242 -46.5q86 0 166.5 22.5t146 65t105 111.5t39.5 155v313h-693v56h693v311
q0 86 -39.5 155.5t-105 112.5t-146 65.5t-166.5 22.5q-130 0 -244.5 -50.5t-169.5 -141.5l-43 33q62 100 186 154t267 54z" />
    <glyph glyph-name="uni042E" unicode="&#x42e;" horiz-adv-x="1882" 
d="M1192 1470q83 0 160 -15.5t147 -48t121.5 -79.5t82 -115.5t30.5 -150.5v-668q0 -81 -30.5 -149.5t-82.5 -116t-121 -81t-147 -49t-160 -15.5q-104 0 -198.5 25.5t-171.5 74.5t-123 129.5t-46 181.5v312h-415v-705h-52v1450h52v-694h415v305q0 101 46 181t123 128.5
t171.5 74t198.5 25.5zM1190 1421q-95 -1 -179.5 -22.5t-154 -64t-110.5 -113t-41 -160.5v-668q0 -116 71.5 -199.5t179.5 -122t236 -38.5q94 0 180 23t156 66t111.5 113.5t41.5 157.5v668q0 74 -28 135t-74.5 102t-110 69t-133.5 41t-145 13z" />
    <glyph glyph-name="uni042F" unicode="&#x42f;" horiz-adv-x="1271" 
d="M1081 0h-51l4 633h-344l-549 -633h-65l549 633q-104 0 -192.5 21t-161.5 64.5t-114.5 120.5t-41.5 181q0 89 27.5 164.5t83.5 136t149.5 95t216.5 34.5h489v-1450zM1030 1401h-455q-107 0 -188.5 -32t-128 -87t-69.5 -121t-23 -141q0 -86 40.5 -153.5t106 -106
t139.5 -58.5t150 -20h432z" />
    <glyph glyph-name="uni0430" unicode="&#x430;" 
d="M285 518l-193 -518h-55l536 1450h82l537 -1450h-55l-193 518h-659zM618 1401h-8l-307 -832h623z" />
    <glyph glyph-name="uni0431" unicode="&#x431;" horiz-adv-x="1267" 
d="M1069 1403h-827v-598h495q217 0 326 -103.5t106 -314.5q-1 -109 -35.5 -186t-97.5 -120t-140 -62t-177 -19h-529v1450h879v-47zM242 756v-707h479q185 -3 291 78.5t106 261.5q0 367 -397 367h-479z" />
    <glyph glyph-name="uni0432" unicode="&#x432;" horiz-adv-x="1284" 
d="M891 770l72 -25q57 -24 99.5 -65.5t65 -91.5t32.5 -99.5t9 -101.5q-2 -109 -36.5 -186t-97 -120t-140 -62t-176.5 -19h-529v1450h531q166 0 272.5 -93t106.5 -259q0 -96 -36.5 -173t-109.5 -120zM242 793h479q150 0 240 76t90 227q0 147 -93 227t-237 80h-479v-610z
M242 49h479q185 -3 291 78.5t106 261.5q0 357 -397 354h-479v-694z" />
    <glyph glyph-name="uni0433" unicode="&#x433;" horiz-adv-x="1054" 
d="M1010 1399h-768v-1399h-52v1450h820v-51z" />
    <glyph glyph-name="uni0434" unicode="&#x434;" horiz-adv-x="1372" 
d="M1196 53h137v-375h-53v322h-1188v-322h-53v375h137l471 1397h76zM231 53h912l-459 1348z" />
    <glyph glyph-name="uni0435" unicode="&#x435;" horiz-adv-x="1157" 
d="M242 1399v-649h749v-56h-749v-643h811v-51h-863v1450h863v-51h-811z" />
    <glyph glyph-name="uni0436" unicode="&#x436;" horiz-adv-x="1767" 
d="M1110 762l598 -762h-70l-565 721l-164 -182v-539h-51v539l-164 182l-565 -721h-70l598 762l-620 688l78 -2l743 -836v838h51v-838l744 836l78 2z" />
    <glyph glyph-name="uni0437" unicode="&#x437;" horiz-adv-x="1091" 
d="M526 1470q168 0 273.5 -96t105.5 -276q0 -117 -46 -190t-177 -138q78 -25 133.5 -58.5t86.5 -68t48 -80t21.5 -84.5t3.5 -92q-2 -109 -37 -189t-97 -127t-140.5 -69t-176.5 -22q-308 0 -456 208l43 27q144 -186 415 -186q181 -3 289.5 87.5t108.5 272.5q0 184 -104 271.5
t-294 87.5h-178v43h178q149 0 239.5 77t90.5 228q0 160 -92 243.5t-238 83.5q-114 0 -206.5 -37t-147.5 -114l-41 20q119 178 395 178z" />
    <glyph glyph-name="uni0438" unicode="&#x438;" horiz-adv-x="1406" 
d="M1217 0h-52v1276l2 108h-2l-73 -110l-822 -1274h-80v1450h52v-1260l-2 -141h2l88 135l817 1266h70v-1450z" />
    <glyph glyph-name="uni0439" unicode="&#x439;" horiz-adv-x="1406" 
d="M961 1886h51q-19 -119 -100 -193.5t-205 -74.5t-205.5 74.5t-100.5 193.5h52q22 -99 84.5 -158t169.5 -59t169.5 59t84.5 158zM1217 0h-52v1278l2 106h-2l-69 -106l-826 -1278h-80v1450h52v-1223l-2 -178h2l106 164l797 1237h72v-1450z" />
    <glyph glyph-name="uni043A" unicode="&#x43a;" horiz-adv-x="1210" 
d="M242 1450v-881l858 881h65l-669 -698l669 -752h-59l-647 715l-217 -217v-498h-52v1450h52z" />
    <glyph glyph-name="uni043B" unicode="&#x43b;" horiz-adv-x="1204" 
d="M1165 0h-57l-397 1133l-107 290h-10l-105 -299l-395 -1124h-55l514 1450h96z" />
    <glyph glyph-name="uni043C" unicode="&#x43c;" horiz-adv-x="1632" 
d="M782 229l-522 1170l-18 -2v-1397h-52v1450h109l518 -1174l516 1174h109v-1450h-51v1413h-19l-520 -1184h-70z" />
    <glyph glyph-name="uni043D" unicode="&#x43d;" horiz-adv-x="1398" 
d="M242 698v-698h-52v1450h52v-700h915v700h51v-1450h-51v698h-915z" />
    <glyph glyph-name="uni043E" unicode="&#x43e;" horiz-adv-x="1396" 
d="M158 391v670q0 98 46 178t122.5 129t171.5 75.5t198 26.5q82 0 160 -16t147 -50t121 -81.5t82.5 -115t30.5 -146.5v-670q0 -98 -46 -178t-123.5 -130t-173 -76.5t-198.5 -26.5t-198 26.5t-171.5 76.5t-122.5 130t-46 178zM209 1061v-670q0 -116 71.5 -199.5t179.5 -122
t236 -38.5q94 0 180 23t156 66t112 113.5t42 157.5v670q0 92 -42 163t-113 113t-156.5 63t-180.5 21q-95 -1 -179.5 -22.5t-154 -64t-110.5 -113t-41 -160.5z" />
    <glyph glyph-name="uni043F" unicode="&#x43f;" horiz-adv-x="1382" 
d="M242 1399v-1399h-52v1450h1002v-1450h-51v1399h-899z" />
    <glyph glyph-name="uni0440" unicode="&#x440;" horiz-adv-x="1232" 
d="M242 0h-52v1450h512q107 -1 193.5 -40t140.5 -102t82.5 -139.5t28.5 -158.5q0 -81 -28.5 -156.5t-81.5 -137.5t-139 -99.5t-193 -38.5h-463v-578zM242 629h460q96 0 173 33t124 88t72 122.5t25 139.5q0 73 -25.5 141.5t-73 124.5t-124 90t-171.5 35h-460v-774z" />
    <glyph glyph-name="uni0441" unicode="&#x441;" horiz-adv-x="1196" 
d="M160 385v680q0 96 44 175t117.5 128t164 75.5t188.5 26.5q143 0 265.5 -53.5t184.5 -154.5l-45 -33q-55 91 -168.5 141.5t-242.5 50.5q-116 0 -218 -40.5t-170.5 -126t-68.5 -199.5v-670q0 -86 39.5 -155t105 -111.5t146 -65t166.5 -22.5q129 0 241 46.5t170 135.5
l45 -23q-62 -101 -187 -155.5t-269 -54.5q-77 0 -150 16t-138 49.5t-114 81t-77.5 114t-28.5 144.5z" />
    <glyph glyph-name="uni0442" unicode="&#x442;" horiz-adv-x="1107" 
d="M1063 1450v-51h-483v-1399h-52v1399h-483v51h1018z" />
    <glyph glyph-name="uni0443" unicode="&#x443;" horiz-adv-x="1036" 
d="M358 0h-59l203 442l-496 1008h66l354 -731l104 -213h2l89 199l335 745h60z" />
    <glyph glyph-name="uni0444" unicode="&#x444;" horiz-adv-x="1484" 
d="M768 1450v-176q99 0 179 -8t160 -31t134 -60t87.5 -100t33.5 -147v-406q0 -84 -33.5 -147t-87.5 -100t-134 -60t-160 -31t-179 -8v-176h-51v176q-99 0 -179 8t-160 31t-134 60t-87.5 100t-33.5 147v406q0 84 33.5 147t87.5 100t134 60t160 31t179 8v176h51zM717 227v996
q-84 0 -154 -6t-145 -25t-126.5 -50t-84.5 -86t-33 -128v-406q0 -73 33 -128t84.5 -86t126.5 -50t145 -25t154 -6zM768 1223v-996q84 0 154 6t145 25t126.5 50t84.5 86t33 128v406q0 73 -33 128t-84.5 86t-126.5 50t-145 25t-154 6z" />
    <glyph glyph-name="uni0445" unicode="&#x445;" horiz-adv-x="1120" 
d="M596 727l469 -727h-59l-445 688l-444 -688h-64l477 723l-475 727h58l448 -680l447 680h59z" />
    <glyph glyph-name="uni0446" unicode="&#x446;" horiz-adv-x="1390" 
d="M1176 53h137v-375h-53v322h-1072v1450h52v-1397h882v1397h54v-1397z" />
    <glyph glyph-name="uni0447" unicode="&#x447;" horiz-adv-x="1236" 
d="M1047 0h-52v700q-183 -202 -428 -202q-93 0 -173 26.5t-142 77.5t-97.5 132.5t-35.5 185.5v530h51v-530q0 -91 33.5 -163.5t90.5 -117t126.5 -67.5t146.5 -23q139 0 238 55.5t190 161.5v684h52v-1450z" />
    <glyph glyph-name="uni0448" unicode="&#x448;" horiz-adv-x="1804" 
d="M1614 0h-1424v1450h52v-1399h635v1399h51v-1399h635v1399h51v-1450z" />
    <glyph glyph-name="uni0449" unicode="&#x449;" horiz-adv-x="1826" 
d="M1612 53h135v-375h-51v322h-1510v1450h52v-1397h634v1397h52v-1397h635v1397h53v-1397z" />
    <glyph glyph-name="uni044A" unicode="&#x44a;" horiz-adv-x="1386" 
d="M379 831h483q219 0 327 -108t105 -336q-1 -109 -35.5 -186t-97.5 -120t-140 -62t-177 -19h-516v1401h-279v49h330v-619zM379 782v-733h467q397 0 397 340q0 207 -102 300t-295 93h-467z" />
    <glyph glyph-name="uni044B" unicode="&#x44b;" horiz-adv-x="1658" 
d="M242 831h483q219 0 327 -108t105 -336q-1 -109 -35.5 -186t-97.5 -120t-140 -62t-177 -19h-517v1450h52v-619zM1468 0h-51v1450h51v-1450zM242 782v-733h467q397 0 397 340q0 207 -102 300t-295 93h-467z" />
    <glyph glyph-name="uni044C" unicode="&#x44c;" horiz-adv-x="1249" 
d="M242 831h483q219 0 327 -108t105 -336q-1 -109 -35.5 -186t-97.5 -120t-140 -62t-177 -19h-517v1450h52v-619zM242 782v-733h467q397 0 397 340q0 207 -102 300t-295 93h-467z" />
    <glyph glyph-name="uni044D" unicode="&#x44d;" horiz-adv-x="1218" 
d="M547 1470q103 0 195 -26.5t163 -76t112.5 -127.5t41.5 -175v-680q0 -78 -28.5 -144.5t-77.5 -114t-114 -81t-138 -49.5t-150 -16q-144 0 -269.5 54.5t-187.5 155.5l45 23q58 -89 170 -135.5t242 -46.5q86 0 166.5 22.5t146 65t105 111.5t39.5 155v313h-693v56h693v311
q0 86 -39.5 155.5t-105 112.5t-146 65.5t-166.5 22.5q-130 0 -244.5 -50.5t-169.5 -141.5l-43 33q62 100 186 154t267 54z" />
    <glyph glyph-name="uni044E" unicode="&#x44e;" horiz-adv-x="1882" 
d="M1192 1470q83 0 160 -15.5t147 -48t121.5 -79.5t82 -115.5t30.5 -150.5v-668q0 -81 -30.5 -149.5t-82.5 -116t-121 -81t-147 -49t-160 -15.5q-104 0 -198.5 25.5t-171.5 74.5t-123 129.5t-46 181.5v312h-415v-705h-52v1450h52v-694h415v305q0 101 46 181t123 128.5
t171.5 74t198.5 25.5zM1190 1421q-95 -1 -179.5 -22.5t-154 -64t-110.5 -113t-41 -160.5v-668q0 -116 71.5 -199.5t179.5 -122t236 -38.5q94 0 180 23t156 66t111.5 113.5t41.5 157.5v668q0 74 -28 135t-74.5 102t-110 69t-133.5 41t-145 13z" />
    <glyph glyph-name="uni044F" unicode="&#x44f;" horiz-adv-x="1271" 
d="M1081 0h-51l4 633h-344l-549 -633h-65l549 633q-104 0 -192.5 21t-161.5 64.5t-114.5 120.5t-41.5 181q0 89 27.5 164.5t83.5 136t149.5 95t216.5 34.5h489v-1450zM1030 1401h-455q-107 0 -188.5 -32t-128 -87t-69.5 -121t-23 -141q0 -86 40.5 -153.5t106 -106
t139.5 -58.5t150 -20h432z" />
    <glyph glyph-name="uni0451" unicode="&#x451;" horiz-adv-x="1157" 
d="M389 1657q0 20 14.5 34.5t34.5 14.5t34.5 -14.5t14.5 -34.5t-14.5 -34.5t-34.5 -14.5t-34.5 14.5t-14.5 34.5zM758 1657q0 20 14.5 34.5t34.5 14.5t34.5 -14.5t14.5 -34.5t-14.5 -34.5t-34.5 -14.5t-34.5 14.5t-14.5 34.5zM242 1399v-649h749v-56h-749v-643h811v-51h-863
v1450h863v-51h-811z" />
    <glyph glyph-name="Wgrave" unicode="&#x1e80;" horiz-adv-x="1898" 
d="M936 1554l-148 211h72l127 -211h-51zM1790 1450h55l-424 -1450h-84l-387 1184l-389 -1184h-80l-430 1450h55l412 -1378h10l387 1161h68l389 -1165h12z" />
    <glyph glyph-name="wgrave" unicode="&#x1e81;" horiz-adv-x="1898" 
d="M936 1554l-148 211h72l127 -211h-51zM1790 1450h55l-424 -1450h-84l-387 1184l-389 -1184h-80l-430 1450h55l412 -1378h10l387 1161h68l389 -1165h12z" />
    <glyph glyph-name="Wacute" unicode="&#x1e82;" horiz-adv-x="1898" 
d="M1026 1765h72l-148 -211h-51zM1790 1450h55l-424 -1450h-84l-387 1184l-389 -1184h-80l-430 1450h55l412 -1378h10l387 1161h68l389 -1165h12z" />
    <glyph glyph-name="wacute" unicode="&#x1e83;" horiz-adv-x="1898" 
d="M1026 1765h72l-148 -211h-51zM1790 1450h55l-424 -1450h-84l-387 1184l-389 -1184h-80l-430 1450h55l412 -1378h10l387 1161h68l389 -1165h12z" />
    <glyph glyph-name="Wdieresis" unicode="&#x1e84;" horiz-adv-x="1898" 
d="M709 1657q0 20 14.5 34.5t34.5 14.5t34.5 -14.5t14.5 -34.5t-14.5 -34.5t-34.5 -14.5t-34.5 14.5t-14.5 34.5zM1077 1657q0 20 14.5 34.5t34.5 14.5t35 -14.5t15 -34.5t-15 -34.5t-35 -14.5t-34.5 14.5t-14.5 34.5zM1790 1450h55l-424 -1450h-84l-387 1184l-389 -1184
h-80l-430 1450h55l412 -1378h10l387 1161h68l389 -1165h12z" />
    <glyph glyph-name="wdieresis" unicode="&#x1e85;" horiz-adv-x="1898" 
d="M709 1657q0 20 14.5 34.5t34.5 14.5t34.5 -14.5t14.5 -34.5t-14.5 -34.5t-34.5 -14.5t-34.5 14.5t-14.5 34.5zM1077 1657q0 20 14.5 34.5t34.5 14.5t35 -14.5t15 -34.5t-15 -34.5t-35 -14.5t-34.5 14.5t-14.5 34.5zM1790 1450h55l-424 -1450h-84l-387 1184l-389 -1184
h-80l-430 1450h55l412 -1378h10l387 1161h68l389 -1165h12z" />
    <glyph glyph-name="Ygrave" unicode="&#x1ef2;" horiz-adv-x="1126" 
d="M549 1554l-148 211h72l127 -211h-51zM586 575v-575h-51v575l-496 875h61l461 -817l475 817h64z" />
    <glyph glyph-name="ygrave" unicode="&#x1ef3;" horiz-adv-x="1126" 
d="M549 1554l-148 211h72l127 -211h-51zM586 575v-575h-51v575l-496 875h61l461 -817l475 817h64z" />
    <glyph glyph-name="endash" unicode="&#x2013;" horiz-adv-x="1191" 
d="M1036 637v-47h-880v47h880z" />
    <glyph glyph-name="emdash" unicode="&#x2014;" horiz-adv-x="2076" 
d="M1921 637v-47h-1765v47h1765z" />
    <glyph glyph-name="quoteleft" unicode="&#x2018;" horiz-adv-x="411" 
d="M133 1090l113 360h51l-92 -360h-72z" />
    <glyph glyph-name="quoteright" unicode="&#x2019;" horiz-adv-x="411" 
d="M309 1450l-129 -363h-45l98 363h76z" />
    <glyph glyph-name="quotesinglbase" unicode="&#x201a;" horiz-adv-x="382" 
d="M238 68l-138 -316h-47l107 316h78z" />
    <glyph glyph-name="quotedblleft" unicode="&#x201c;" horiz-adv-x="643" 
d="M207 1090h-74q22 68 63.5 188t59.5 174h47zM434 1090h-74q22 68 63.5 188t59.5 174h47z" />
    <glyph glyph-name="quotedblright" unicode="&#x201d;" horiz-adv-x="626" 
d="M215 1450h72q-17 -57 -53 -184t-56 -191h-43zM444 1450h72q-17 -58 -53 -185t-55 -190h-43z" />
    <glyph glyph-name="quotedblbase" unicode="&#x201e;" horiz-adv-x="657" 
d="M240 70l-136 -318h-47l107 318h76zM506 70l-144 -318h-47l107 318h84z" />
    <glyph glyph-name="dagger" unicode="&#x2020;" horiz-adv-x="985" 
d="M76 995v43h391v414h45v-414h397v-43h-397v-1228h-45v1228h-391z" />
    <glyph glyph-name="daggerdbl" unicode="&#x2021;" horiz-adv-x="1130" 
d="M150 178v41h393v797h-393v45h393v391h45v-391h393v-45h-393v-797h393v-41h-393v-401h-45v401h-393z" />
    <glyph glyph-name="bullet" unicode="&#x2022;" horiz-adv-x="745" 
d="M186 725q0 76 55 131t132 55t131.5 -54.5t54.5 -131.5t-54.5 -131.5t-131.5 -54.5t-132 55t-55 131z" />
    <glyph glyph-name="ellipsis" unicode="&#x2026;" horiz-adv-x="1247" 
d="M963 66q0 26 18.5 44.5t44.5 18.5t45 -18.5t19 -44.5t-19 -45t-45 -19t-44.5 19t-18.5 45zM555 61q0 26 18.5 45t44.5 19t45 -19t19 -45t-19 -44.5t-45 -18.5t-44.5 18.5t-18.5 44.5zM158 59q0 26 18.5 45t44.5 19t45 -19t19 -45t-19 -44.5t-45 -18.5t-44.5 18.5
t-18.5 44.5z" />
    <glyph glyph-name="perthousand" unicode="&#x2030;" horiz-adv-x="2095" 
d="M1257 1497l-1005 -1595q-9 5 -23.5 14t-19.5 12l1008 1594zM664 1075q0 -169 -79 -268.5t-204 -99.5q-136 0 -209.5 95.5t-73.5 276.5q0 174 78 270.5t205 96.5q133 0 208 -97.5t75 -273.5zM606 1075q0 161 -59 239.5t-168 78.5q-113 0 -167 -78t-54 -236
q0 -168 53.5 -242.5t169.5 -74.5q114 0 169.5 76t55.5 237zM1364 354q0 -169 -79 -268.5t-204 -99.5q-136 0 -209 95.5t-73 276.5q0 178 77.5 272.5t204.5 94.5q133 0 208 -97.5t75 -273.5zM2009 354q0 -169 -79 -268.5t-204 -99.5q-136 0 -209 95.5t-73 276.5
q0 178 77.5 272.5t204.5 94.5q133 0 208 -97.5t75 -273.5zM1307 352q0 161 -60.5 239.5t-169.5 78.5q-225 0 -225 -312q0 -167 55 -242t172 -75q114 0 171 76t57 235zM1952 352q0 161 -60.5 239.5t-169.5 78.5q-225 0 -225 -312q0 -167 55 -242t172 -75q114 0 171 76t57 235
z" />
    <glyph glyph-name="guilsinglleft" unicode="&#x2039;" horiz-adv-x="520" 
d="M94 604l250 371q1 -1 19 -10t22 -13q3 -3 -233 -348q185 -273 235 -344l-43 -22z" />
    <glyph glyph-name="guilsinglright" unicode="&#x203a;" horiz-adv-x="522" 
d="M426 604l-250 -371q-1 1 -18 10t-21 13q-3 3 234 348q-226 329 -236 344l41 23z" />
    <glyph glyph-name="fraction" unicode="&#x2044;" horiz-adv-x="1009" 
d="M975 1450l-901 -1473l-39 19l897 1474z" />
    <glyph glyph-name="Euro" unicode="&#x20ac;" horiz-adv-x="1220" 
d="M219 842v217q0 98 40.5 177.5t107 129.5t149.5 77t172 27q128 0 241.5 -55.5t176.5 -157.5l-43 -24q-53 91 -158 140.5t-217 49.5q-81 0 -155 -22.5t-134 -66t-95.5 -114.5t-35.5 -161v-217h555l-10 -45h-545v-168h561l-10 -43h-551v-197q0 -87 35.5 -157.5t94.5 -114
t132 -67t152 -23.5q118 0 220 48.5t165 141.5l39 -24q-63 -102 -178 -157.5t-246 -55.5q-88 0 -169.5 26.5t-147.5 75.5t-106 129t-40 178v197h-125l8 43h117v168h-117l11 45h106z" />
    <glyph glyph-name="uni2113" unicode="&#x2113;" horiz-adv-x="774" 
d="M678 109l27 -33q-96 -86 -209 -86q-144 0 -210 92.5t-69 271.5v125l-133 -133l-12 39l145 147v578q0 125 22 216t59 140t79 71t90 22q97 0 147 -75t50 -212q0 -346 -404 -760v-143q1 -97 19 -165t52 -104t75 -51.5t96 -15.5q85 0 176 76zM264 1114l-2 -551
q176 206 266 373.5t90 331.5q0 43 -3.5 76t-13.5 65.5t-27 54t-45.5 34.5t-67.5 13q-37 0 -70 -19.5t-62.5 -63t-47 -124t-17.5 -190.5z" />
    <glyph glyph-name="trademark" unicode="&#x2122;" horiz-adv-x="1687" 
d="M383 721h-37v698h-266v31h569v-31h-266v-698zM852 1421v-700h-35v729h66l284 -612q93 205 157.5 343t91 192.5t36.5 76.5h66v-729h-37l2 706h-6l-285 -612h-49l-283 606h-8z" />
    <glyph glyph-name="Omega" unicode="&#x2126;" horiz-adv-x="1572" 
d="M512 76l-74 61q-134 109 -216.5 272t-82.5 365q0 147 52 273.5t141 212.5t209.5 135t255.5 49q184 0 331 -91.5t225.5 -242t78.5 -328.5q0 -212 -102 -398t-261 -308h389v-45h-493v24q176 106 295.5 307.5t119.5 419.5q0 88 -24.5 175.5t-74.5 166.5t-118 140t-163 97
t-203 36q-172 0 -310 -81t-216 -224t-78 -320q0 -118 32.5 -226t91.5 -196.5t131.5 -160t163.5 -132.5v-24h-497v43h397z" />
    <glyph glyph-name="estimated" unicode="&#x212e;" horiz-adv-x="1869" 
d="M1784 705h-1348q-10 0 -10 -11v-407q0 -25 16 -47q101 -104 232.5 -163t277.5 -59q157 0 296.5 66t240.5 182h121q-115 -133 -289 -211t-371 -78q-169 0 -323 59t-265 159t-177 239t-66 291q0 153 66 291.5t177 239t265 160t323 59.5q170 0 324.5 -59.5t266 -160
t177.5 -239t66 -291.5v-20zM1479 758v409q0 29 -21 50q-102 100 -231.5 156.5t-274.5 56.5q-144 0 -275.5 -58.5t-232.5 -161.5q-18 -21 -18 -51v-401q0 -4 3 -9.5t7 -5.5h1034q9 0 9 15z" />
    <glyph glyph-name="partialdiff" unicode="&#x2202;" horiz-adv-x="1028" 
d="M199 1391l-19 41q118 79 273 79q134 0 236 -85.5t157 -236.5t55 -345q0 -143 -18 -269q-20 -130 -57 -234t-91.5 -182.5t-130.5 -121.5t-168 -43q-105 0 -183 61.5t-115.5 155.5t-37.5 205q0 105 32.5 196t86.5 152t123.5 96t142.5 35q120 0 220 -70t133 -168
q16 76 16 203q-1 118 -27 224.5t-75.5 191t-129.5 134.5t-180 50q-139 0 -243 -69zM438 45h2q101 0 189 74t141.5 200t56.5 271q-28 89 -126 171.5t-214 82.5q-137 0 -237 -123.5t-100 -300.5q0 -167 80 -271t208 -104z" />
    <glyph glyph-name="Delta" unicode="&#x2206;" horiz-adv-x="1163" 
d="M59 0v49q81 232 241 700.5t241 700.5h86l477 -1399v-51h-1045zM113 45h931l-454 1364h-12z" />
    <glyph glyph-name="product" unicode="&#x220f;" horiz-adv-x="1280" 
d="M1012 -109h-47v1514h-646v-1514h-49v1514h-209v45h1160v-45h-209v-1514z" />
    <glyph glyph-name="summation" unicode="&#x2211;" horiz-adv-x="1071" 
d="M78 -106l555 735q-87 123 -265.5 387t-265.5 387v47h850v-45h-788q238 -348 530 -768l-559 -746h850v-43h-907v46z" />
    <glyph glyph-name="minus" unicode="&#x2212;" horiz-adv-x="1294" 
d="M1135 651v-45h-975v45h975z" />
    <glyph glyph-name="uni2215" unicode="&#x2215;" horiz-adv-x="1009" 
d="M973 1450l-899 -1491l-39 18l899 1493z" />
    <glyph glyph-name="uni2219" unicode="&#x2219;" horiz-adv-x="438" 
d="M156 651q0 26 18.5 45t44.5 19t45 -19t19 -45t-19 -44.5t-45 -18.5t-44.5 18.5t-18.5 44.5z" />
    <glyph glyph-name="radical" unicode="&#x221a;" horiz-adv-x="1034" 
d="M514 -281l-307 961l-148 -53q-3 10 -9.5 22.5t-8.5 16.5l197 71l297 -936l10 2l389 1876h49l-414 -1960h-55z" />
    <glyph glyph-name="infinity" unicode="&#x221e;" horiz-adv-x="1523" 
d="M1391 600v-2q0 -122 -82.5 -201.5t-192.5 -79.5q-76 0 -157 58t-197 184q-54 -59 -86.5 -91t-82.5 -73t-98 -59.5t-98 -18.5q-108 0 -186 81t-78 194q0 121 74.5 201.5t193.5 80.5q48 0 95.5 -19t97.5 -59t83.5 -73t86.5 -90l41 47v-2q43 47 71 74t71 60.5t88 49t95 15.5
q115 -1 188 -79t73 -198zM408 358h2q38 0 78 16.5t78.5 47t67 57.5t62.5 64l45 45q-44 52 -75.5 85t-79.5 75.5t-96.5 64t-96.5 21.5q-99 0 -159 -71.5t-60 -172.5q2 -99 67 -165.5t167 -66.5zM1120 834h-2q-40 0 -80 -15.5t-78 -46t-63 -54.5t-59 -61l-58 -59
q127 -135 195.5 -187.5t146.5 -52.5q99 0 161.5 71t62.5 163q0 112 -64 177t-162 65z" />
    <glyph glyph-name="integral" unicode="&#x222b;" horiz-adv-x="626" 
d="M582 1724l-7 -41q-59 19 -79 19q-80 0 -126.5 -68.5t-45.5 -183.5l10 -543q16 -692 16 -936q0 -125 -63.5 -191.5t-157.5 -66.5q-48 0 -86 13l6 45q7 -1 21 -5t25 -6t18 -2q188 0 188 215q0 170 -12 756q-13 626 -13 733q0 129 62.5 207t148.5 78q44 0 95 -23z" />
    <glyph glyph-name="approxequal" unicode="&#x2248;" horiz-adv-x="1083" 
d="M895 760l29 -21q-73 -92 -176 -92q-43 0 -87.5 18t-117.5 58q-50 28 -73 39.5t-60 24t-68 12.5q-92 0 -154 -84l-28 20q78 107 186 107q83 0 176 -56l33 -18q75 -43 115.5 -59.5t83.5 -16.5q84 0 141 68zM895 492l27 -21q-73 -92 -177 -92q-43 0 -85 17.5t-117 58.5
q-48 27 -72.5 39t-61 24t-67.5 12q-92 0 -154 -84l-28 21q79 108 188 108q79 0 174 -57l33 -18q75 -43 115.5 -59.5t83.5 -16.5q84 0 141 68z" />
    <glyph glyph-name="notequal" unicode="&#x2260;" horiz-adv-x="1140" 
d="M987 788v-38h-330l-147 -328h477v-39h-493l-103 -219l-31 14l95 205h-301v39h317l147 328h-464v38h481l96 218l33 -13l-94 -205h317z" />
    <glyph glyph-name="lessequal" unicode="&#x2264;" horiz-adv-x="993" 
d="M197 752l624 -342v-48q-110 62 -325 181.5t-326 181.5v53l651 371v-49zM141 193h707v-41h-707v41z" />
    <glyph glyph-name="greaterequal" unicode="&#x2265;" horiz-adv-x="997" 
d="M172 1100v49q112 -65 327 -186t326 -185v-53l-653 -363v48l625 342q-514 286 -625 348zM145 193h707v-39h-707v39z" />
    <glyph glyph-name="lozenge" unicode="&#x25ca;" horiz-adv-x="1042" 
d="M477 -31l-416 758l160 289q49 91 142.5 256t121.5 215h78q69 -127 209.5 -379t210.5 -379l-426 -760h-80zM121 731l395 -739l408 735l-404 743z" />
    <glyph glyph-name="i.loclTRK" horiz-adv-x="432" 
d="M242 1450v-1450h-52v1450h52z" />
    <glyph glyph-name="uni0414.loclBGR" horiz-adv-x="1372" 
d="M1196 53h137v-375h-53v322h-1188v-322h-53v375h137l471 1397h76zM231 53h912l-459 1348z" />
    <glyph glyph-name="uni041B.loclBGR" horiz-adv-x="1204" 
d="M1165 0h-57l-397 1133l-107 290h-10l-105 -299l-395 -1124h-55l514 1450h96z" />
    <glyph glyph-name="uni0432.loclBGR" horiz-adv-x="1284" 
d="M891 770l72 -25q57 -24 99.5 -65.5t65 -91.5t32.5 -99.5t9 -101.5q-2 -109 -36.5 -186t-97 -120t-140 -62t-176.5 -19h-529v1450h531q166 0 272.5 -93t106.5 -259q0 -96 -36.5 -173t-109.5 -120zM242 793h479q150 0 240 76t90 227q0 147 -93 227t-237 80h-479v-610z
M242 49h479q185 -3 291 78.5t106 261.5q0 357 -397 354h-479v-694z" />
    <glyph glyph-name="uni0433.loclBGR" horiz-adv-x="1054" 
d="M1010 1399h-768v-1399h-52v1450h820v-51z" />
    <glyph glyph-name="uni0434.loclBGR" horiz-adv-x="1372" 
d="M1196 53h137v-375h-53v322h-1188v-322h-53v375h137l471 1397h76zM231 53h912l-459 1348z" />
    <glyph glyph-name="uni0436.loclBGR" horiz-adv-x="1767" 
d="M1110 762l598 -762h-70l-565 721l-164 -182v-539h-51v539l-164 182l-565 -721h-70l598 762l-620 688l78 -2l743 -836v838h51v-838l744 836l78 2z" />
    <glyph glyph-name="uni0438.loclBGR" horiz-adv-x="1406" 
d="M1217 0h-52v1276l2 108h-2l-73 -110l-822 -1274h-80v1450h52v-1260l-2 -141h2l88 135l817 1266h70v-1450z" />
    <glyph glyph-name="uni0439.loclBGR" horiz-adv-x="1406" 
d="M961 1886h51q-19 -119 -100 -193.5t-205 -74.5t-205.5 74.5t-100.5 193.5h52q22 -99 84.5 -158t169.5 -59t169.5 59t84.5 158zM1217 0h-52v1278l2 106h-2l-69 -106l-826 -1278h-80v1450h52v-1223l-2 -178h2l106 164l797 1237h72v-1450z" />
    <glyph glyph-name="uni043A.loclBGR" horiz-adv-x="1210" 
d="M242 1450v-881l858 881h65l-669 -698l669 -752h-59l-647 715l-217 -217v-498h-52v1450h52z" />
    <glyph glyph-name="uni043B.loclBGR" horiz-adv-x="1204" 
d="M1165 0h-57l-397 1133l-107 290h-10l-105 -299l-395 -1124h-55l514 1450h96z" />
    <glyph glyph-name="uni043F.loclBGR" horiz-adv-x="1382" 
d="M242 1399v-1399h-52v1450h1002v-1450h-51v1399h-899z" />
    <glyph glyph-name="uni0442.loclBGR" horiz-adv-x="1107" 
d="M1063 1450v-51h-483v-1399h-52v1399h-483v51h1018z" />
    <glyph glyph-name="uni0446.loclBGR" horiz-adv-x="1390" 
d="M1176 53h137v-375h-53v322h-1072v1450h52v-1397h882v1397h54v-1397z" />
    <glyph glyph-name="uni0448.loclBGR" horiz-adv-x="1804" 
d="M1614 0h-1424v1450h52v-1399h635v1399h51v-1399h635v1399h51v-1450z" />
    <glyph glyph-name="uni0449.loclBGR" horiz-adv-x="1826" 
d="M1612 53h135v-375h-51v322h-1510v1450h52v-1397h634v1397h52v-1397h635v1397h53v-1397z" />
    <glyph glyph-name="uni044E.loclBGR" horiz-adv-x="1882" 
d="M1192 1470q83 0 160 -15.5t147 -48t121.5 -79.5t82 -115.5t30.5 -150.5v-668q0 -81 -30.5 -149.5t-82.5 -116t-121 -81t-147 -49t-160 -15.5q-104 0 -198.5 25.5t-171.5 74.5t-123 129.5t-46 181.5v312h-415v-705h-52v1450h52v-694h415v305q0 101 46 181t123 128.5
t171.5 74t198.5 25.5zM1190 1421q-95 -1 -179.5 -22.5t-154 -64t-110.5 -113t-41 -160.5v-668q0 -116 71.5 -199.5t179.5 -122t236 -38.5q94 0 180 23t156 66t111.5 113.5t41.5 157.5v668q0 74 -28 135t-74.5 102t-110 69t-133.5 41t-145 13z" />
    </font>
</defs>
</svg>
