<?xml version="1.0" standalone="no"?>
<!DOCTYPE svg PUBLIC "-//W3C//DTD SVG 1.1//EN" "http://www.w3.org/Graphics/SVG/1.1/DTD/svg11.dtd" >
<svg xmlns="http://www.w3.org/2000/svg" xmlns:xlink="http://www.w3.org/1999/xlink" version="1.1">
<metadata>
Created by FontForge 20170731 at Sat Oct 14 21:34:55 2023
 By Aleksey,,,
Copyright (c) 2014 by (c) 2009 Designed by Svetoslav Simov (c) Fontfabric, Inc. All rights reserved.
</metadata>
<defs>
<font id="UniSansHeavyCAPS" horiz-adv-x="1204" >
  <font-face 
    font-family="Uni Sans Heavy CAPS"
    font-weight="900"
    font-variant="small-caps"
    font-stretch="normal"
    units-per-em="2048"
    panose-1="0 0 5 0 0 0 0 0 0 0"
    ascent="1548"
    descent="-500"
    x-height="1450"
    cap-height="1450"
    bbox="-117 -520 2222 2042"
    underline-thickness="102"
    underline-position="-307"
    unicode-range="U+0020-FB02"
  />
<missing-glyph horiz-adv-x="1230" 
d="M1106 1434v-1434h-1083v1434h1083zM422 1151l143 -213q16 23 62 93t80 120h-285zM469 715l-16 28l-164 248v-536zM686 743l-16 -28l180 -260v536zM420 285h285q-13 17 -142 209z" />
    <glyph glyph-name="fi" unicode="fi" horiz-adv-x="1705" 
d="M485 1102v-260h559v-342h-559v-500h-370v1450h1009v-348h-639zM1591 1450v-1450h-366v1450h366z" />
    <glyph glyph-name="fl" unicode="fl" horiz-adv-x="2252" 
d="M485 1102v-260h559v-342h-559v-500h-370v1450h1009v-348h-639zM1264 0v1450h368v-1088h590v-362h-958z" />
    <glyph glyph-name=".notdef" horiz-adv-x="1230" 
d="M1106 1434v-1434h-1083v1434h1083zM422 1151l143 -213q16 23 62 93t80 120h-285zM469 715l-16 28l-164 248v-536zM686 743l-16 -28l180 -260v536zM420 285h285q-13 17 -142 209z" />
    <glyph glyph-name=".null" horiz-adv-x="0" 
 />
    <glyph glyph-name="nonmarkingreturn" horiz-adv-x="682" 
 />
    <glyph glyph-name="space" unicode=" " horiz-adv-x="372" 
 />
    <glyph glyph-name="exclam" unicode="!" horiz-adv-x="595" 
d="M109 451l-21 1007h418l-21 -1007h-376zM96 182q0 86 59 146.5t144 60.5q86 0 146.5 -60.5t60.5 -146.5q0 -85 -60.5 -143.5t-146.5 -58.5q-85 0 -144 58.5t-59 143.5z" />
    <glyph glyph-name="quotedbl" unicode="&#x22;" horiz-adv-x="946" 
d="M451 1452l-43 -594h-312v594h355zM870 1452l-41 -594h-313v594h354z" />
    <glyph glyph-name="numbersign" unicode="#" horiz-adv-x="1325" 
d="M1030 645h135l-88 -299h-137l-102 -348h-324l100 348h-86l-100 -348h-334l103 348h-152l88 299h152l18 68h-151l92 311h151l97 330h323l-96 -330h86l96 330h338l-98 -330h135l-90 -311h-137zM631 739l-35 -121h121l33 121h-119z" />
    <glyph glyph-name="dollar" unicode="$" horiz-adv-x="1167" 
d="M461 -133v131q-125 4 -230.5 78.5t-181.5 206.5l262 180q38 -53 71.5 -73.5t78.5 -27.5v199q-392 92 -387 453q9 163 116.5 270t270.5 143v121h264v-118q110 -14 192 -69t162 -175l-245 -156q-36 61 -109 74v-230q72 -17 127 -38.5t108 -59t86.5 -86t52.5 -121t15 -163.5
q-13 -158 -121 -262.5t-268 -143.5v-133h-264zM397 1012v-2q-3 -93 78 -121v233q-37 -20 -57.5 -49.5t-20.5 -60.5zM791 444v2q3 93 -78 121v-233q37 20 57.5 49.5t20.5 60.5z" />
    <glyph glyph-name="percent" unicode="%" horiz-adv-x="1515" 
d="M113 14l1007 1557l264 -176l-1007 -1551zM666 1108q0 -166 -87 -264.5t-223 -98.5q-146 0 -224.5 94t-78.5 273q0 162 84.5 260t218.5 98q149 0 229.5 -94t80.5 -268zM422 1108q0 123 -68 123q-32 0 -51.5 -30t-19.5 -91q0 -121 71 -121q68 0 68 119zM1464 350
q0 -166 -86.5 -264t-222.5 -98q-146 0 -224.5 93.5t-78.5 272.5q0 162 84.5 260.5t218.5 98.5q149 0 229 -94.5t80 -268.5zM1221 350q0 123 -68 123q-32 0 -52 -30.5t-20 -90.5q0 -121 72 -121q68 0 68 119z" />
    <glyph glyph-name="ampersand" unicode="&#x26;" horiz-adv-x="1396" 
d="M1069 715l205 -262l-135 -111l272 -340h-430l-98 117q-73 -64 -164 -96.5t-181.5 -32t-177.5 32.5t-153.5 90t-107 148.5t-40.5 199.5q0 127 54.5 213t162.5 151q-61 64 -87.5 139t-19.5 145t42 136t91 114.5t133.5 76.5t164.5 26q161 -5 277 -109t116 -268
q0 -117 -46 -195t-130 -138l121 -150zM594 1174q-39 0 -67.5 -28t-28.5 -67q0 -17 12.5 -40.5t24.5 -39.5t38 -47q52 35 76.5 65.5t24.5 67.5q0 36 -23.5 62.5t-56.5 26.5zM670 365l-178 208q-43 -22 -64 -60.5t-18 -77.5t26 -70q39 -55 111.5 -55.5t122.5 55.5z" />
    <glyph glyph-name="quotesingle" unicode="'" horiz-adv-x="526" 
d="M446 1450l-30 -594h-318v594h348z" />
    <glyph glyph-name="parenleft" unicode="(" horiz-adv-x="659" 
d="M389 1628l242 -158q-251 -379 -247.5 -770t253.5 -776l-260 -174q-155 218 -236.5 469.5t-81.5 491.5q0 247 84.5 491t245.5 426z" />
    <glyph glyph-name="parenright" unicode=")" horiz-adv-x="647" 
d="M25 1448l233 156q162 -183 246 -416t84 -477q0 -241 -81 -490t-237 -467l-245 166q159 255 216.5 515.5t4 520.5t-220.5 492z" />
    <glyph glyph-name="asterisk" unicode="*" horiz-adv-x="976" 
d="M831 1329l97 -325l-230 -29l166 -160l-264 -203l-111 207l-106 -207l-274 199l165 172l-225 27l94 323l209 -98l-30 219h335l-39 -217z" />
    <glyph glyph-name="plus" unicode="+" horiz-adv-x="1159" 
d="M414 831v349h346v-349h344v-348h-344v-350h-346v350h-359v348h359z" />
    <glyph glyph-name="comma" unicode="," horiz-adv-x="587" 
d="M514 217l-205 -522h-354l174 522h385z" />
    <glyph glyph-name="hyphen" unicode="-" horiz-adv-x="827" 
d="M733 768v-348h-639v348h639z" />
    <glyph glyph-name="period" unicode="." horiz-adv-x="526" 
d="M59 195q0 85 59 143.5t144 58.5t145 -59t60 -143q0 -86 -60 -146.5t-145 -60.5t-144 60.5t-59 146.5z" />
    <glyph glyph-name="slash" unicode="/" horiz-adv-x="1003" 
d="M965 1452l-603 -1595l-323 116l604 1592z" />
    <glyph glyph-name="zero" unicode="0" horiz-adv-x="1220" 
d="M610 -20q-76 0 -149 16.5t-141.5 52t-120 86.5t-82.5 125.5t-31 163.5v600q0 90 31 165t82.5 126t120 86.5t141.5 52t149 16.5t150 -16.5t142 -52t119.5 -86.5t82.5 -126t31 -165v-600q0 -89 -31 -163.5t-82.5 -125.5t-119.5 -86.5t-142 -52t-150 -16.5zM610 1149
q-69 0 -122.5 -37t-53.5 -98v-594q0 -60 52.5 -94.5t123.5 -34.5q69 0 122.5 35t53.5 94v594q0 62 -54 98.5t-122 36.5z" />
    <glyph glyph-name="one" unicode="1" horiz-adv-x="765" 
d="M662 0h-330v973l-139 -96l-193 167l385 406h277v-1450z" />
    <glyph glyph-name="two" unicode="2" horiz-adv-x="1142" 
d="M338 991l-275 150q86 164 222.5 246.5t292.5 82.5q116 0 210 -37.5t153 -100.5t90.5 -142t31.5 -166q0 -237 -180 -406l-320 -303l170 35h328v-348h-934l-92 191l590 663q82 93 54 181q-20 63 -84 88q-80 31 -161 -23q-56 -37 -96 -111z" />
    <glyph glyph-name="three" unicode="3" horiz-adv-x="1105" 
d="M33 242l237 219q38 -61 101.5 -92t132.5 -31q76 0 129 34t53 91q0 59 -41.5 99t-116.5 40h-225v293h217q44 0 73 32.5t30 72t-17 73.5q-32 49 -94.5 61t-128.5 -12.5t-111 -74.5l-213 188q89 110 211 172.5t246 62.5q70 0 133 -13t122 -41t106 -78.5t75 -120.5
q30 -75 32.5 -157.5t-31 -162t-103.5 -123.5q53 -27 92 -68.5t60.5 -88.5t31.5 -92.5t10 -90.5q0 -83 -29 -156t-79.5 -126.5t-117 -93t-143.5 -59t-157 -19.5q-148 0 -277.5 65.5t-207.5 196.5z" />
    <glyph glyph-name="four" unicode="4" horiz-adv-x="1175" 
d="M1112 612v-297h-135v-315h-350v315h-510l-117 215l676 920h301v-838h135zM397 608h256l4 371z" />
    <glyph glyph-name="five" unicode="5" horiz-adv-x="1107" 
d="M57 248l260 205q49 -60 116 -85t124 -14t98.5 52.5t44.5 103.5q6 105 -48 160t-142 55q-145 0 -236 -121h-168v846h861v-322h-568v-163q107 36 204 36.5t180.5 -37.5t144.5 -100.5t96 -152.5t35 -193q0 -104 -33 -198t-97.5 -171t-172 -123t-244.5 -46q-131 0 -251 66
t-204 202z" />
    <glyph glyph-name="six" unicode="6" horiz-adv-x="1196" 
d="M1081 1202l-256 -147q-32 51 -85.5 76.5t-114.5 25.5q-78 0 -134.5 -39.5t-56.5 -105.5v-150q68 49 149.5 69t160 12t152.5 -41.5t129.5 -86.5t89.5 -129.5t34 -163.5v-86q0 -108 -44.5 -196.5t-118.5 -144t-168 -85.5t-197 -30t-198 29.5t-171.5 85t-122 144
t-45.5 197.5v578q0 105 46.5 193t123.5 144.5t173 87.5t198 31q148 0 270 -68t186 -200zM799 424v108q0 44 -37.5 74t-91.5 36.5t-107.5 -0.5t-91 -37t-37.5 -73v-108q0 -47 37.5 -79t91 -39.5t107.5 -0.5t91.5 39.5t37.5 79.5z" />
    <glyph glyph-name="seven" unicode="7" horiz-adv-x="1083" 
d="M45 1450h936l98 -197l-559 -1253h-393l471 1102h-553v348z" />
    <glyph glyph-name="eight" unicode="8" horiz-adv-x="1228" 
d="M631 -20h-29q-252 0 -396.5 119.5t-144.5 336.5q0 89 50.5 178.5t144.5 159.5q-66 44 -96.5 115t-30.5 145q0 97 32 174.5t81.5 125.5t114 79.5t125.5 44t120 12.5h29q74 0 141.5 -15.5t128.5 -50t105.5 -85.5t71 -128t26.5 -171q0 -56 -33.5 -130.5t-91.5 -113.5
q92 -47 141 -140.5t47 -178.5q-5 -228 -139 -352.5t-397 -124.5zM633 1171h-31q-39 -1 -69 -17t-45.5 -41.5t-22.5 -56t1.5 -60.5t25.5 -55t49 -40.5t73 -15.5q46 0 81.5 15t53.5 39.5t26.5 54t0.5 60t-24.5 55.5t-48 42.5t-70.5 19.5zM600 322h35q115 0 157 81.5t-5 160
t-146 69.5h-47q-97 3 -143 -73.5t-5 -155.5t154 -82z" />
    <glyph glyph-name="nine" unicode="9" 
d="M90 256l260 172q37 -62 99 -91.5t131 -29.5q77 0 133.5 39.5t56.5 99.5v150q-68 -49 -149.5 -69.5t-160 -13t-152.5 41.5t-129.5 87.5t-89.5 130t-34 163.5v86q0 108 44.5 195.5t119 141.5t168.5 82.5t197 28.5t197.5 -28.5t170 -82t121.5 -141t47 -196.5v-578
q0 -108 -46 -197.5t-122 -146.5t-171 -88.5t-197 -31.5q-160 0 -294 70t-200 206zM406 1034v-108q0 -44 37.5 -74t91 -36.5t107 0.5t91 37t37.5 73v108q0 43 -37.5 73t-91 37t-107 0.5t-91 -36.5t-37.5 -74z" />
    <glyph glyph-name="colon" unicode=":" horiz-adv-x="567" 
d="M80 805q0 84 60 142.5t145 58.5t143.5 -58t58.5 -143q0 -86 -58.5 -146.5t-143.5 -60.5t-145 60.5t-60 146.5zM80 217q0 88 59.5 146.5t145.5 58.5q85 0 143.5 -58t58.5 -147q0 -85 -59 -145t-143 -60q-85 0 -145 60t-60 145z" />
    <glyph glyph-name="semicolon" unicode=";" horiz-adv-x="600" 
d="M92 782q0 86 57.5 143.5t147.5 57.5q87 0 144 -58t57 -143q0 -88 -57 -147.5t-144 -59.5q-90 0 -147.5 59t-57.5 148zM522 260l-188 -522h-320l125 522h383z" />
    <glyph glyph-name="less" unicode="&#x3c;" horiz-adv-x="911" 
d="M801 784l-330 -186q129 -68 330 -178v-408l-750 475v224l750 481v-408z" />
    <glyph glyph-name="equal" unicode="=" horiz-adv-x="1081" 
d="M985 971v-318h-889v318h889zM985 555v-319h-889v319h889z" />
    <glyph glyph-name="greater" unicode="&#x3e;" horiz-adv-x="911" 
d="M860 711v-224l-751 -475v408l346 178l-346 186v408z" />
    <glyph glyph-name="question" unicode="?" horiz-adv-x="1005" 
d="M252 1018l-209 178q45 86 110.5 147t137 90.5t150 35.5t151 -11.5t138.5 -57t115 -95.5t78 -132t29 -161q0 -55 -13 -107.5t-41 -101.5t-68.5 -88.5t-99.5 -68t-130 -38.5l-20 -239h-308l-20 467q90 -34 165.5 -26.5t125 56.5t49.5 123q0 53 -41.5 87.5t-96.5 41.5
t-113.5 -18.5t-88.5 -81.5zM240 133q0 81 53.5 132.5t132.5 51.5q78 0 131 -51.5t53 -132.5q0 -78 -53.5 -132t-130.5 -54q-78 0 -132 54t-54 132z" />
    <glyph glyph-name="at" unicode="@" horiz-adv-x="1554" 
d="M1024 1102l147 -37q-49 69 -148.5 106t-195.5 37q-119 0 -218 -50t-161.5 -131.5t-96.5 -180.5t-34 -201q0 -160 78.5 -276t212 -156t310.5 8l55 -196q-136 -43 -256 -43q-135 0 -256.5 52t-210.5 143.5t-138 227t-42 293.5q8 111 45 219t102.5 204t151.5 169.5
t200 116.5t240 43q107 0 215 -27q133 -39 248 -125.5t170 -191.5q61 -118 64.5 -262.5t-49.5 -277.5t-152 -218q-49 -45 -124 -74.5t-149 -29.5q-89 0 -149 43q-62 -39 -146 -39q-161 0 -261.5 112.5t-100.5 282.5q0 127 52.5 241.5t145 185.5t199.5 71q113 0 215 -82z
M1206 1014l-96 -525q77 34 118 127t38 193.5t-41 167.5zM768 500q60 0 92 32l66 302q-93 98 -179 52q-64 -34 -92 -128q-32 -105 8 -189q10 -20 23 -37q29 -32 82 -32z" />
    <glyph glyph-name="A" unicode="A" horiz-adv-x="1327" 
d="M827 1450l519 -1450h-394l-94 291h-387l-90 -291h-393l506 1450h333zM553 616h217l-100 424h-11z" />
    <glyph glyph-name="B" unicode="B" horiz-adv-x="1277" 
d="M1167 1008q-2 -60 -40 -130t-109 -106q57 -29 99.5 -69t64 -82t34.5 -87.5t11.5 -84.5t-4.5 -74q-60 -375 -516 -375h-592v1450h581q138 0 246 -52t168.5 -153.5t56.5 -236.5zM483 883h213q43 0 74.5 19t46 48t15 62t-13.5 62t-46 48t-76 19h-213v-258zM483 322h213
q63 0 105.5 30.5t52.5 74t-0.5 87t-53 74t-104.5 30.5h-213v-296z" />
    <glyph glyph-name="C" unicode="C" horiz-adv-x="1191" 
d="M854 453l320 -148q-44 -85 -106.5 -149.5t-133 -102t-141.5 -55.5t-142 -18q-109 0 -210 31.5t-182 91.5t-130 156.5t-49 215.5v500q0 119 49 215t131 156t184 92t213 32q71 0 139 -16.5t137.5 -52.5t130.5 -103.5t103 -160.5l-299 -121q-35 64 -107 93.5t-141 22
t-121.5 -49.5t-52.5 -107v-500q0 -50 34.5 -88.5t86.5 -52.5t108 -10.5t106 38t73 91.5z" />
    <glyph glyph-name="D" unicode="D" horiz-adv-x="1302" 
d="M115 1450h542q89 0 170.5 -17.5t153.5 -56t125 -94.5t84 -137t31 -180v-488q0 -97 -31 -177.5t-84 -135.5t-125 -93t-153.5 -55t-170.5 -16h-542v1450zM483 344h187q91 0 136.5 42.5t45.5 115.5v452q0 72 -46 113t-136 41h-187v-764z" />
    <glyph glyph-name="E" unicode="E" 
d="M485 1106v-225h588v-318h-588v-217h639v-346h-1009v1450h1009v-344h-639z" />
    <glyph glyph-name="F" unicode="F" horiz-adv-x="1179" 
d="M485 1102v-260h559v-342h-559v-500h-370v1450h1009v-348h-639z" />
    <glyph glyph-name="G" unicode="G" horiz-adv-x="1277" 
d="M1157 1161l-307 -141q-23 56 -72.5 89t-105 35.5t-107 -13t-85.5 -56.5t-34 -96v-498q0 -54 31.5 -94t78.5 -57.5t102 -17.5t102 18t78.5 57.5t31.5 93.5v54h-231v307h584v-361q0 -121 -48 -218.5t-128.5 -158t-181.5 -92.5t-212 -32q-110 0 -211 32t-182.5 92.5
t-130.5 158t-49 218.5v498q0 119 49 214.5t130.5 154.5t182.5 90.5t211 31.5q74 0 145 -16.5t139.5 -51t126 -96.5t93.5 -145z" />
    <glyph glyph-name="H" unicode="H" horiz-adv-x="1384" 
d="M483 547v-547h-368v1450h368v-549h418v549h369v-1450h-369v547h-418z" />
    <glyph glyph-name="I" unicode="I" horiz-adv-x="595" 
d="M481 1450v-1450h-366v1450h366z" />
    <glyph glyph-name="J" unicode="J" horiz-adv-x="1202" 
d="M6 426l346 72q14 -82 73 -123t134 -41q70 0 123 39t53 100v645h-329v332h692v-977q0 -114 -47.5 -209t-126 -156t-176.5 -94.5t-203 -33.5q-96 0 -184.5 27t-163 80t-125.5 140.5t-66 198.5z" />
    <glyph glyph-name="K" unicode="K" horiz-adv-x="1310" 
d="M483 913l394 537h456l-573 -700l571 -750h-465l-370 518l-13 -16v-502h-368v1450h368v-537z" />
    <glyph glyph-name="L" unicode="L" horiz-adv-x="1103" 
d="M115 0v1450h368v-1088h590v-362h-958z" />
    <glyph glyph-name="M" unicode="M" horiz-adv-x="1574" 
d="M115 0v1450h366l305 -709l308 709h366v-1450h-368l2 418l22 293l-12 2l-191 -498h-251l-195 498l-10 -2l24 -293v-418h-366z" />
    <glyph glyph-name="N" unicode="N" horiz-adv-x="1384" 
d="M115 0v1450h348l350 -619l123 -290l10 2q-1 0 -20.5 125t-20.5 125v657h365v-1450h-371l-328 571l-127 291l-10 -2l47 -280v-580h-366z" />
    <glyph glyph-name="O" unicode="O" horiz-adv-x="1361" 
d="M80 477v496q0 97 33.5 179.5t91 140t134.5 98t163 60t178 19.5t178.5 -19.5t163.5 -60t135 -98.5t91.5 -140t33.5 -179v-496q0 -97 -33.5 -179t-91 -140t-134.5 -98.5t-163 -60t-178 -19.5t-178.5 19.5t-163.5 60t-135 98.5t-91.5 140t-33.5 179zM446 973v-496
q0 -75 70 -116.5t166 -41.5q95 0 164 42t69 116v496q0 54 -35.5 92t-88.5 55t-115 17q-92 0 -161 -44.5t-69 -119.5z" />
    <glyph glyph-name="P" unicode="P" horiz-adv-x="1265" 
d="M115 0v1450h579q103 0 190.5 -28.5t149.5 -78t105.5 -115t64.5 -139t21 -151.5q0 -99 -34 -189.5t-98.5 -164t-167 -117t-229.5 -43.5h-215v-424h-366zM481 750h213q45 0 81 19.5t54.5 51t27 70t0 77t-27 70t-54.5 51t-81 19.5h-213v-358z" />
    <glyph glyph-name="Q" unicode="Q" horiz-adv-x="1361" 
d="M80 477v496q0 97 33.5 179.5t91 140t134.5 98t163 60t178 19.5t178.5 -19.5t163.5 -60t135 -98.5t91.5 -140t33.5 -179v-496q0 -141 -74 -256l113 -115l-203 -182l-119 123q-143 -67 -317 -67q-92 0 -178.5 19.5t-163.5 60t-135 98.5t-91.5 140t-33.5 179zM446 973v-496
q0 -48 28 -87.5t70 -59t92 -24.5t95 16l-119 122l203 177l100 -103v455q0 53 -34.5 92t-87 56t-113 16.5t-113 -18t-87 -56t-34.5 -90.5z" />
    <glyph glyph-name="R" unicode="R" horiz-adv-x="1323" 
d="M887 0l-336 461h-66v-461h-370v1450h579q115 0 209.5 -27.5t168.5 -83t116 -149t45 -217.5q0 -196 -74.5 -314t-210.5 -161l395 -498h-456zM485 776h215q55 0 95.5 24.5t59 61.5t18.5 80t-18.5 80t-59 61.5t-95.5 24.5h-215v-332z" />
    <glyph glyph-name="S" unicode="S" horiz-adv-x="1155" 
d="M45 242l231 217q42 -51 104 -85.5t124 -45.5t117.5 -5.5t91.5 34t39 73.5q2 39 -36.5 70.5t-92.5 48.5t-119 26q-90 14 -168.5 49.5t-142 91t-100 138t-36.5 182.5q0 103 44.5 187.5t118.5 137t167.5 81t194.5 28.5q145 0 267.5 -51.5t227.5 -179.5l-239 -184
q-55 59 -128.5 89.5t-136 28.5t-107 -36t-46.5 -95q5 -94 192 -135q61 -11 110 -23.5t104 -33t96.5 -45.5t80 -62.5t62.5 -83.5t37 -108.5t10 -136.5q-3 -82 -38.5 -153t-92 -121.5t-129.5 -87t-152.5 -54.5t-160.5 -18q-134 0 -264.5 67.5t-229.5 194.5z" />
    <glyph glyph-name="T" unicode="T" horiz-adv-x="1198" 
d="M1169 1104h-385v-1104h-370v1104h-385v348h1140v-348z" />
    <glyph glyph-name="U" unicode="U" horiz-adv-x="1366" 
d="M477 1450v-965q0 -48 23 -85.5t59.5 -57t80.5 -28.5t88.5 0t81 28.5t60 57t23.5 85.5v965h371v-965q0 -140 -64.5 -250t-166.5 -166.5t-226 -83t-247 0t-225 83t-165.5 166.5t-63.5 250v965h371z" />
    <glyph glyph-name="V" unicode="V" horiz-adv-x="1343" 
d="M739 741l230 711h393l-522 -1450h-336l-522 1450h393l227 -709l66 -344h6z" />
    <glyph glyph-name="W" unicode="W" horiz-adv-x="1873" 
d="M1319 752l176 698h379l-418 -1450h-340l-129 401l-51 332h-6l-56 -330l-114 -403h-340l-420 1450h381l172 -694l37 -307h10l35 305l162 508h278l150 -510l47 -303h6z" />
    <glyph glyph-name="X" unicode="X" horiz-adv-x="1343" 
d="M670 954l254 496h426l-406 -727l406 -723h-426l-254 494l-248 -494h-428l407 723l-407 727h428z" />
    <glyph glyph-name="Y" unicode="Y" horiz-adv-x="1341" 
d="M854 0h-367v571l-505 879h426l262 -532l262 532h430l-508 -879v-571z" />
    <glyph glyph-name="Z" unicode="Z" horiz-adv-x="1239" 
d="M74 1450h1054l78 -123l-624 -993l589 4v-338h-1075l-67 135l626 975h-581v340z" />
    <glyph glyph-name="bracketleft" unicode="[" horiz-adv-x="671" 
d="M453 1114v-981h141v-338h-492v1659h492v-340h-141z" />
    <glyph glyph-name="backslash" unicode="\" horiz-adv-x="1030" 
d="M666 -119l-627 1575l330 115l622 -1579z" />
    <glyph glyph-name="bracketright" unicode="]" horiz-adv-x="671" 
d="M215 129v991h-137v334h491v-1659h-491v334h137z" />
    <glyph glyph-name="asciicircum" unicode="^" horiz-adv-x="1335" 
d="M760 1448l520 -621h-424l-199 236l-194 -236h-410l506 621h201z" />
    <glyph glyph-name="underscore" unicode="_" horiz-adv-x="1214" 
d="M1122 70v-346h-1032v346h1032z" />
    <glyph glyph-name="grave" unicode="`" horiz-adv-x="831" 
d="M627 1548h-318l-268 340h381z" />
    <glyph glyph-name="a" unicode="a" horiz-adv-x="1327" 
d="M827 1450l519 -1450h-394l-94 291h-387l-90 -291h-393l506 1450h333zM553 616h217l-100 424h-11z" />
    <glyph glyph-name="b" unicode="b" horiz-adv-x="1277" 
d="M1167 1008q-2 -60 -40 -130t-109 -106q57 -29 99.5 -69t64 -82t34.5 -87.5t11.5 -84.5t-4.5 -74q-60 -375 -516 -375h-592v1450h581q138 0 246 -52t168.5 -153.5t56.5 -236.5zM483 883h213q43 0 74.5 19t46 48t15 62t-13.5 62t-46 48t-76 19h-213v-258zM483 322h213
q63 0 105.5 30.5t52.5 74t-0.5 87t-53 74t-104.5 30.5h-213v-296z" />
    <glyph glyph-name="c" unicode="c" horiz-adv-x="1191" 
d="M854 453l320 -148q-44 -85 -106.5 -149.5t-133 -102t-141.5 -55.5t-142 -18q-109 0 -210 31.5t-182 91.5t-130 156.5t-49 215.5v500q0 119 49 215t131 156t184 92t213 32q71 0 139 -16.5t137.5 -52.5t130.5 -103.5t103 -160.5l-299 -121q-35 64 -107 93.5t-141 22
t-121.5 -49.5t-52.5 -107v-500q0 -50 34.5 -88.5t86.5 -52.5t108 -10.5t106 38t73 91.5z" />
    <glyph glyph-name="d" unicode="d" horiz-adv-x="1302" 
d="M115 1450h542q89 0 170.5 -17.5t153.5 -56t125 -94.5t84 -137t31 -180v-488q0 -97 -31 -177.5t-84 -135.5t-125 -93t-153.5 -55t-170.5 -16h-542v1450zM483 344h187q91 0 136.5 42.5t45.5 115.5v452q0 72 -46 113t-136 41h-187v-764z" />
    <glyph glyph-name="e" unicode="e" 
d="M485 1106v-225h588v-318h-588v-217h639v-346h-1009v1450h1009v-344h-639z" />
    <glyph glyph-name="f" unicode="f" horiz-adv-x="1179" 
d="M485 1102v-260h559v-342h-559v-500h-370v1450h1009v-348h-639z" />
    <glyph glyph-name="g" unicode="g" horiz-adv-x="1277" 
d="M1157 1161l-307 -141q-23 56 -72.5 89t-105 35.5t-107 -13t-85.5 -56.5t-34 -96v-498q0 -54 31.5 -94t78.5 -57.5t102 -17.5t102 18t78.5 57.5t31.5 93.5v54h-231v307h584v-361q0 -121 -48 -218.5t-128.5 -158t-181.5 -92.5t-212 -32q-110 0 -211 32t-182.5 92.5
t-130.5 158t-49 218.5v498q0 119 49 214.5t130.5 154.5t182.5 90.5t211 31.5q74 0 145 -16.5t139.5 -51t126 -96.5t93.5 -145z" />
    <glyph glyph-name="h" unicode="h" horiz-adv-x="1384" 
d="M483 547v-547h-368v1450h368v-549h418v549h369v-1450h-369v547h-418z" />
    <glyph glyph-name="i" unicode="i" horiz-adv-x="595" 
d="M481 1450v-1450h-366v1450h366z" />
    <glyph glyph-name="j" unicode="j" horiz-adv-x="1202" 
d="M6 426l346 72q14 -82 73 -123t134 -41q70 0 123 39t53 100v645h-329v332h692v-977q0 -114 -47.5 -209t-126 -156t-176.5 -94.5t-203 -33.5q-96 0 -184.5 27t-163 80t-125.5 140.5t-66 198.5z" />
    <glyph glyph-name="k" unicode="k" horiz-adv-x="1310" 
d="M483 913l394 537h456l-573 -700l571 -750h-465l-370 518l-13 -16v-502h-368v1450h368v-537z" />
    <glyph glyph-name="l" unicode="l" horiz-adv-x="1103" 
d="M115 0v1450h368v-1088h590v-362h-958z" />
    <glyph glyph-name="m" unicode="m" horiz-adv-x="1574" 
d="M115 0v1450h366l305 -709l308 709h366v-1450h-368l2 418l22 293l-12 2l-191 -498h-251l-195 498l-10 -2l24 -293v-418h-366z" />
    <glyph glyph-name="n" unicode="n" horiz-adv-x="1384" 
d="M115 0v1450h348l350 -619l123 -290l10 2q-1 0 -20.5 125t-20.5 125v657h365v-1450h-371l-328 571l-127 291l-10 -2l47 -280v-580h-366z" />
    <glyph glyph-name="o" unicode="o" horiz-adv-x="1361" 
d="M80 477v496q0 97 33.5 179.5t91 140t134.5 98t163 60t178 19.5t178.5 -19.5t163.5 -60t135 -98.5t91.5 -140t33.5 -179v-496q0 -97 -33.5 -179t-91 -140t-134.5 -98.5t-163 -60t-178 -19.5t-178.5 19.5t-163.5 60t-135 98.5t-91.5 140t-33.5 179zM446 973v-496
q0 -75 70 -116.5t166 -41.5q95 0 164 42t69 116v496q0 54 -35.5 92t-88.5 55t-115 17q-92 0 -161 -44.5t-69 -119.5z" />
    <glyph glyph-name="p" unicode="p" horiz-adv-x="1265" 
d="M115 0v1450h579q103 0 190.5 -28.5t149.5 -78t105.5 -115t64.5 -139t21 -151.5q0 -99 -34 -189.5t-98.5 -164t-167 -117t-229.5 -43.5h-215v-424h-366zM481 750h213q45 0 81 19.5t54.5 51t27 70t0 77t-27 70t-54.5 51t-81 19.5h-213v-358z" />
    <glyph glyph-name="q" unicode="q" horiz-adv-x="1361" 
d="M80 477v496q0 97 33.5 179.5t91 140t134.5 98t163 60t178 19.5t178.5 -19.5t163.5 -60t135 -98.5t91.5 -140t33.5 -179v-496q0 -141 -74 -256l113 -115l-203 -182l-119 123q-143 -67 -317 -67q-92 0 -178.5 19.5t-163.5 60t-135 98.5t-91.5 140t-33.5 179zM446 973v-496
q0 -48 28 -87.5t70 -59t92 -24.5t95 16l-119 122l203 177l100 -103v455q0 53 -34.5 92t-87 56t-113 16.5t-113 -18t-87 -56t-34.5 -90.5z" />
    <glyph glyph-name="r" unicode="r" horiz-adv-x="1323" 
d="M887 0l-336 461h-66v-461h-370v1450h579q115 0 209.5 -27.5t168.5 -83t116 -149t45 -217.5q0 -196 -74.5 -314t-210.5 -161l395 -498h-456zM485 776h215q55 0 95.5 24.5t59 61.5t18.5 80t-18.5 80t-59 61.5t-95.5 24.5h-215v-332z" />
    <glyph glyph-name="s" unicode="s" horiz-adv-x="1155" 
d="M45 242l231 217q42 -51 104 -85.5t124 -45.5t117.5 -5.5t91.5 34t39 73.5q2 39 -36.5 70.5t-92.5 48.5t-119 26q-90 14 -168.5 49.5t-142 91t-100 138t-36.5 182.5q0 103 44.5 187.5t118.5 137t167.5 81t194.5 28.5q145 0 267.5 -51.5t227.5 -179.5l-239 -184
q-55 59 -128.5 89.5t-136 28.5t-107 -36t-46.5 -95q5 -94 192 -135q61 -11 110 -23.5t104 -33t96.5 -45.5t80 -62.5t62.5 -83.5t37 -108.5t10 -136.5q-3 -82 -38.5 -153t-92 -121.5t-129.5 -87t-152.5 -54.5t-160.5 -18q-134 0 -264.5 67.5t-229.5 194.5z" />
    <glyph glyph-name="t" unicode="t" horiz-adv-x="1198" 
d="M1169 1104h-385v-1104h-370v1104h-385v348h1140v-348z" />
    <glyph glyph-name="u" unicode="u" horiz-adv-x="1366" 
d="M477 1450v-965q0 -48 23 -85.5t59.5 -57t80.5 -28.5t88.5 0t81 28.5t60 57t23.5 85.5v965h371v-965q0 -140 -64.5 -250t-166.5 -166.5t-226 -83t-247 0t-225 83t-165.5 166.5t-63.5 250v965h371z" />
    <glyph glyph-name="v" unicode="v" horiz-adv-x="1343" 
d="M739 741l230 711h393l-522 -1450h-336l-522 1450h393l227 -709l66 -344h6z" />
    <glyph glyph-name="w" unicode="w" horiz-adv-x="1873" 
d="M1319 752l176 698h379l-418 -1450h-340l-129 401l-51 332h-6l-56 -330l-114 -403h-340l-420 1450h381l172 -694l37 -307h10l35 305l162 508h278l150 -510l47 -303h6z" />
    <glyph glyph-name="x" unicode="x" horiz-adv-x="1343" 
d="M670 954l254 496h426l-406 -727l406 -723h-426l-254 494l-248 -494h-428l407 723l-407 727h428z" />
    <glyph glyph-name="y" unicode="y" horiz-adv-x="1341" 
d="M854 0h-367v571l-505 879h426l262 -532l262 532h430l-508 -879v-571z" />
    <glyph glyph-name="z" unicode="z" horiz-adv-x="1239" 
d="M74 1450h1054l78 -123l-624 -993l589 4v-338h-1075l-67 135l626 975h-581v340z" />
    <glyph glyph-name="braceleft" unicode="{" horiz-adv-x="718" 
d="M520 1120v-264q0 -69 -41.5 -143t-105.5 -99q69 -25 108 -94.5t39 -148.5v-242h121v-334h-184q-161 0 -224 79t-63 237v227q0 108 -111 108v334q60 0 85.5 30t25.5 77v250q0 155 69 236t234 81h168v-334h-121z" />
    <glyph glyph-name="bar" unicode="|" horiz-adv-x="550" 
d="M449 -276h-347v1759h347v-1759z" />
    <glyph glyph-name="braceright" unicode="}" horiz-adv-x="704" 
d="M80 1450h141q83 0 140.5 -15.5t90.5 -40t51 -67.5t23.5 -86t5.5 -108v-246q0 -107 113 -107v-334q-113 0 -113 -108v-244q0 -78 -13 -132t-46.5 -97.5t-97 -64.5t-158.5 -21h-137v334h104v258q-4 76 44.5 148.5t113.5 96.5q-64 30 -114 99.5t-44 140.5v260h-104v334z" />
    <glyph glyph-name="asciitilde" unicode="~" horiz-adv-x="1001" 
d="M741 801l209 -174q-147 -252 -329 -252q-42 0 -85 20t-73 40.5t-61 33.5t-61.5 -2.5t-61.5 -67.5l-228 191q73 107 150.5 170t169.5 63q47 0 94.5 -23.5t79 -47.5t64.5 -38t65.5 5.5t66.5 81.5z" />
    <glyph glyph-name="uni00A0" unicode="&#xa0;" horiz-adv-x="372" 
 />
    <glyph glyph-name="exclamdown" unicode="&#xa1;" horiz-adv-x="548" 
d="M477 852q0 -89 -58.5 -147t-146.5 -58q-89 0 -144.5 57.5t-55.5 147.5q0 86 56 143.5t144 57.5q87 0 146 -58t59 -143zM449 596v-973h-351v973h351z" />
    <glyph glyph-name="cent" unicode="&#xa2;" horiz-adv-x="978" 
d="M651 1202v-149q199 -60 258 -271l-291 -90q-8 37 -31 60.5t-50.5 28t-54 -2.5t-44.5 -30.5t-18 -55.5v-323q0 -33 18 -56t45.5 -29.5t56.5 -2t54.5 27t36.5 58.5l299 -68q-37 -118 -111 -189t-168 -102v-149h-262v143q-135 33 -221 128.5t-86 244.5v309q0 149 86 244.5
t221 128.5v145h262z" />
    <glyph glyph-name="sterling" unicode="&#xa3;" horiz-adv-x="1085" 
d="M1026 1284l-203 -194q-41 45 -97.5 49.5t-98 -31.5t-41.5 -98v-144h344v-313h-344v-229h422v-324h-932v324h160v229h-160v313h160v154q0 62 13 120.5t45 116.5t80.5 101t126 69.5t175.5 26.5q87 0 182 -42t168 -128z" />
    <glyph glyph-name="currency" unicode="&#xa4;" horiz-adv-x="1261" 
d="M70 350l94 101q-49 101 -49 227q0 112 49 227l-98 96l233 250l109 -108q103 47 221 47q111 0 223 -51l111 110l231 -248l-100 -98q51 -105 51 -225q0 -122 -49 -229l98 -95l-231 -248l-109 109q-95 -49 -225 -49q-121 0 -221 47l-111 -104zM426 676q0 -84 59.5 -143.5
t143.5 -59.5q82 0 141 59.5t59 143.5q0 87 -59 147t-141 60q-84 0 -143.5 -60t-59.5 -147z" />
    <glyph glyph-name="yen" unicode="&#xa5;" horiz-adv-x="1458" 
d="M1153 739l-47 -221h-195v-63h242l-47 -222h-195v-233h-366v233h-223l45 222h178v63h-223l45 221h82l-410 711h426l262 -553l262 553h430l-411 -711h145z" />
    <glyph glyph-name="brokenbar" unicode="&#xa6;" horiz-adv-x="561" 
d="M455 641h-349v711h349v-711zM455 -225h-349v772h349v-772z" />
    <glyph glyph-name="section" unicode="&#xa7;" horiz-adv-x="972" 
d="M74 76l239 160q37 -53 94 -73t98.5 -3.5t41.5 55.5q0 25 -26.5 48.5t-69 45.5t-93.5 46t-102.5 55t-94 67.5t-69 88.5t-26.5 112q0 146 102 217q-31 37 -48.5 85.5t-17.5 92.5q0 115 59.5 203.5t150.5 132t196 43.5q100 0 184.5 -50.5t161.5 -166.5l-242 -145
q-27 44 -65.5 53t-66 -12.5t-27.5 -57.5q0 -28 25 -51t65.5 -41.5t89 -38t97 -47t89 -61.5t65.5 -88t25 -121q0 -59 -25.5 -113t-72.5 -92q78 -99 78 -217q0 -150 -122 -260.5t-290 -110.5q-113 0 -221.5 63t-181.5 181zM428 625l164 -78q49 52 0.5 102t-193.5 109
q-51 -30 -39.5 -70t68.5 -63z" />
    <glyph glyph-name="dieresis" unicode="&#xa8;" horiz-adv-x="1044" 
d="M102 1708q0 73 50 123.5t122 50.5t122 -50.5t50 -123.5q0 -71 -50 -120.5t-122 -49.5t-122 49.5t-50 120.5zM596 1708q0 74 49 124t123 50t124 -50t50 -124q0 -71 -50.5 -120.5t-123.5 -49.5q-74 0 -123 49.5t-49 120.5z" />
    <glyph glyph-name="copyright" unicode="&#xa9;" horiz-adv-x="1593" 
d="M61 719q0 148 58.5 284t157.5 235t236 157.5t286 58.5q148 0 284 -58.5t234 -157.5t156.5 -235t58.5 -284q0 -200 -98.5 -369t-267.5 -267.5t-367 -98.5q-120 0 -232.5 37t-203 105t-159 158.5t-106 202.5t-37.5 232zM272 719q0 -143 70 -264t191.5 -191.5t265.5 -70.5
q142 0 262.5 70.5t190 191.5t69.5 264q0 144 -70 264.5t-190 190t-262 69.5q-220 0 -373.5 -152.5t-153.5 -371.5zM406 827v-227q0 -67 22 -123.5t60 -96t88.5 -67t106.5 -40.5t116 -13q61 0 120 14.5t113.5 44t96.5 81.5t61 120l-197 74q-13 -45 -45 -75.5t-71.5 -42.5
t-83.5 -10t-81 17.5t-63 45.5t-31 69v231q6 47 41.5 81t84.5 44.5t99.5 5t92.5 -39t57 -86.5l193 73q-25 90 -89.5 151t-139.5 85t-158 24q-60 0 -116 -13t-106.5 -40.5t-88.5 -67t-60 -96t-22 -123.5z" />
    <glyph glyph-name="ordfeminine" unicode="&#xaa;" horiz-adv-x="763" 
d="M193 1176l-115 106q34 52 84 88.5t105.5 51.5t113.5 16.5t110.5 -18.5t94 -53t66 -86.5t24.5 -119.5v-477q-86 -23 -166 -34.5t-163.5 -6.5t-144.5 31t-100 87t-39 152q0 69 27.5 121t70 79t95.5 39.5t104 9.5t95 -17q-3 53 -50.5 74t-108.5 8t-103 -51zM440 829v136
q-31 11 -64.5 11.5t-61 -18.5t-29.5 -51q0 -40 27 -62t61.5 -22t66.5 6z" />
    <glyph glyph-name="guillemotleft" unicode="&#xab;" horiz-adv-x="1255" 
d="M367 1073l297 -176l-211 -309l213 -314l-301 -176l-326 490zM895 1073l297 -176l-213 -313l217 -308l-301 -178l-328 490z" />
    <glyph glyph-name="logicalnot" unicode="&#xac;" horiz-adv-x="1181" 
d="M82 532v347h997v-617h-344v270h-653z" />
    <glyph glyph-name="uni00AD" unicode="&#xad;" horiz-adv-x="833" 
d="M737 680v-350h-641v350h641z" />
    <glyph glyph-name="registered" unicode="&#xae;" horiz-adv-x="1593" 
d="M61 719q0 148 58.5 284t157.5 235t236 157.5t286 58.5q148 0 284 -58.5t234 -157.5t156.5 -235t58.5 -284q0 -200 -98.5 -369t-267.5 -267.5t-367 -98.5q-120 0 -232.5 37t-203 105t-159 158.5t-106 202.5t-37.5 232zM281 719q0 -106 41.5 -202.5t111 -166.5
t166.5 -111.5t203 -41.5q140 0 259.5 70t189 190.5t69.5 261.5q0 106 -41 202.5t-110.5 166t-165.5 110.5t-201 41q-107 0 -203.5 -41t-166.5 -110.5t-111 -166t-41 -202.5zM500 346v733h331q79 0 140 -29t93.5 -74.5t43.5 -101.5t-1.5 -109t-49 -98t-92.5 -67l176 -254
h-238l-160 240h-43v-240h-200zM700 750h125q31 0 52 16t25 39t-1 45.5t-26.5 38.5t-51.5 16h-123v-155z" />
    <glyph glyph-name="macron" unicode="&#xaf;" horiz-adv-x="813" 
d="M102 1552v275h609v-275h-609z" />
    <glyph glyph-name="degree" unicode="&#xb0;" horiz-adv-x="772" 
d="M387 803q-139 0 -238.5 99.5t-99.5 238.5q0 140 99 238t239 98q139 0 237.5 -98t98.5 -238q0 -138 -99.5 -238t-236.5 -100zM387 1038q44 0 73 28.5t29 70.5t-29.5 74t-72.5 32t-72.5 -32t-29.5 -74t29 -70.5t73 -28.5z" />
    <glyph glyph-name="plusminus" unicode="&#xb1;" horiz-adv-x="1103" 
d="M375 1065v270h348v-270h289v-348h-289v-268h-348v268h-283v348h283zM1014 371v-344h-924v344h924z" />
    <glyph glyph-name="twosuperior" unicode="&#xb2;" horiz-adv-x="815" 
d="M258 1090l-188 161q114 179 315 179q148 0 240 -91.5t92 -220.5q0 -140 -107 -231l-121 -115h244v-268h-616l-58 155l318 361q62 70 39 117q-17 34 -61 28q-58 -7 -97 -75z" />
    <glyph glyph-name="threesuperior" unicode="&#xb3;" horiz-adv-x="763" 
d="M268 1090h103q32 0 42 35q10 37 -15 62q-19 18 -52 17q-32 -1 -60.5 -15.5t-43.5 -35.5l-156 131q67 72 122 105.5t132 37.5q68 4 132 -20.5t105.5 -69t61.5 -99t2.5 -116.5t-74.5 -116q81 -37 112 -106.5t14 -141t-68 -129.5q-78 -87 -197 -108.5t-228.5 28.5
t-160.5 156l186 116q22 -42 71.5 -55t89.5 7t40 61q0 20 -15 37t-38 14h-105v205z" />
    <glyph glyph-name="acute" unicode="&#xb4;" horiz-adv-x="790" 
d="M791 1888l-269 -340h-317l205 340h381z" />
    <glyph glyph-name="mu" unicode="&#xb5;" horiz-adv-x="1081" 
d="M688 -2l-12 78q-54 -79 -120.5 -77.5t-109.5 71.5v-422h-350v1409h350v-635q0 -38 19 -65t46 -33.5t54.5 -1t46.5 32t19 65.5v637h352l4 -1061z" />
    <glyph glyph-name="paragraph" unicode="&#xb6;" horiz-adv-x="1353" 
d="M467 -170v616q-100 13 -181.5 59.5t-132.5 113t-78.5 146.5t-27.5 165q0 94 32 180.5t92.5 156t158 111t219.5 41.5h688v-1589h-344v1257h-82v-1257h-344z" />
    <glyph glyph-name="periodcentered" unicode="&#xb7;" horiz-adv-x="540" 
d="M68 621q0 88 57 147t147 59q87 0 144 -59.5t57 -146.5q0 -85 -57 -143t-144 -58q-90 0 -147 57.5t-57 143.5z" />
    <glyph glyph-name="cedilla" unicode="&#xb8;" horiz-adv-x="788" 
d="M600 82l-65 -145q79 -21 120 -75t36.5 -117.5t-36 -124t-100.5 -100.5t-154 -40q-173 0 -299 104l66 176q47 -32 94 -49t85.5 -11t47.5 42q11 36 -33.5 68t-121.5 38l104 234h256z" />
    <glyph glyph-name="onesuperior" unicode="&#xb9;" horiz-adv-x="593" 
d="M117 1024l-103 143l258 281h220v-903h-275v536z" />
    <glyph glyph-name="ordmasculine" unicode="&#xba;" horiz-adv-x="839" 
d="M420 610q-89 0 -167.5 33t-131.5 104t-53 168v246q0 98 53 169t131 103.5t168 32.5t168 -32.5t131 -103.5t53 -169v-246q0 -97 -53 -168t-131.5 -104t-167.5 -33zM344 1161v-246q1 -32 24.5 -51t51.5 -19.5t51.5 18t24.5 52.5v244q-1 45 -39 64t-75.5 0.5t-37.5 -62.5z
" />
    <glyph glyph-name="guillemotright" unicode="&#xbb;" horiz-adv-x="1234" 
d="M362 100l-303 174l215 314l-211 309l295 178l330 -487zM870 98l-297 178l211 312l-213 311l301 174l326 -485z" />
    <glyph glyph-name="onequarter" unicode="&#xbc;" horiz-adv-x="1699" 
d="M1350 1329l-865 -1421l-239 143l864 1422zM520 557v903h-219l-258 -280l102 -144l101 58v-537h274zM1559 958h-232l-491 -596l118 -184h330v-178h275v178h73v240h-73v540zM1309 410h-172l168 192l8 -2z" />
    <glyph glyph-name="onehalf" unicode="&#xbd;" horiz-adv-x="1755" 
d="M1364 1329l-866 -1421l-236 145l864 1420zM520 557v903h-219l-258 -280l102 -144l101 58v-537h274zM1038 729l187 -156q38 65 95 72q44 5 60 -27q22 -45 -39 -112l-313 -348l57 -152h596v260h-229l121 111q104 88 104 223q0 125 -90.5 213t-236.5 88q-202 0 -312 -172z
" />
    <glyph glyph-name="threequarters" unicode="&#xbe;" horiz-adv-x="1761" 
d="M1468 1329l-864 -1421l-231 145l864 1420zM287 897h110q24 3 40 -14.5t16 -38.5q0 -32 -26 -51.5t-61 -22t-70.5 13t-53.5 47.5l-195 -118q54 -110 169 -161.5t239.5 -29t206.5 112.5q53 59 70.5 132.5t-15 145t-117.5 109.5q60 55 78.5 119t-2 120t-64.5 102t-111 71.5
t-139 21.5q-80 -4 -137.5 -38.5t-128.5 -108.5l164 -135q16 21 46 36.5t63 16.5q54 2 69 -42q12 -37 -11 -62q-13 -15 -32 -15h-108v-211zM1413 926l-475 -576l115 -178h333v-172h242v172h72v231h-72v523h-215zM1229 395l162 187l8 -2l-4 -185h-166z" />
    <glyph glyph-name="questiondown" unicode="&#xbf;" horiz-adv-x="997" 
d="M762 891q0 -81 -54 -132.5t-133 -51.5q-78 0 -131 51.5t-53 132.5q0 78 53.5 132t130.5 54q78 0 132.5 -54t54.5 -132zM958 -172l-208 178q-30 -56 -88.5 -81.5t-113.5 -18.5t-96.5 41.5t-41.5 87.5q0 74 49.5 123t125 56.5t165.5 -26.5l-21 459h-307l-21 -231
q-71 -10 -130 -38.5t-99.5 -68t-68.5 -88.5t-41 -101.5t-13 -107.5q0 -85 29 -161t78 -132t115 -95.5t138.5 -57t151 -11.5t150 35.5t137 90.5t110.5 147z" />
    <glyph glyph-name="Agrave" unicode="&#xc0;" horiz-adv-x="1327" 
d="M872 1548h-317l-268 340h381zM827 1450l519 -1450h-394l-94 291h-387l-90 -291h-393l506 1450h333zM553 616h217l-100 424h-11z" />
    <glyph glyph-name="Aacute" unicode="&#xc1;" horiz-adv-x="1327" 
d="M1038 1888l-268 -340h-317l204 340h381zM827 1450l519 -1450h-394l-94 291h-387l-90 -291h-393l506 1450h333zM553 616h217l-100 424h-11z" />
    <glyph glyph-name="Acircumflex" unicode="&#xc2;" horiz-adv-x="1327" 
d="M782 1892l308 -344h-332l-94 107l-91 -107h-346l316 344h239zM827 1450l519 -1450h-394l-94 291h-387l-90 -291h-393l506 1450h333zM553 616h217l-100 424h-11z" />
    <glyph glyph-name="Atilde" unicode="&#xc3;" horiz-adv-x="1327" 
d="M449 1534l-179 100q23 123 89 184t171 58q32 -1 71 -16.5t69 -31t60.5 -24.5t56 5.5t44.5 58.5l187 -107q-29 -114 -83.5 -173t-129.5 -58q-43 0 -91 16t-82.5 31.5t-68.5 24t-62.5 -7t-51.5 -60.5zM827 1450l519 -1450h-394l-94 291h-387l-90 -291h-393l506 1450h333z
M553 616h217l-100 424h-11z" />
    <glyph glyph-name="Adieresis" unicode="&#xc4;" horiz-adv-x="1327" 
d="M244 1708q0 73 50 123.5t122 50.5t122 -50.5t50 -123.5q0 -71 -50 -120.5t-122 -49.5t-122 49.5t-50 120.5zM737 1708q0 74 49 124t123 50q73 0 123.5 -50t50.5 -124q0 -71 -50.5 -120.5t-123.5 -49.5q-74 0 -123 49.5t-49 120.5zM827 1450l519 -1450h-394l-94 291h-387
l-90 -291h-393l506 1450h333zM553 616h217l-100 424h-11z" />
    <glyph glyph-name="Aring" unicode="&#xc5;" horiz-adv-x="1327" 
d="M952 0l-94 291h-387l-90 -291h-393l491 1409q-82 76 -82 190q0 109 78.5 188t190.5 79q109 0 185.5 -82t76.5 -187q0 -113 -84 -190l502 -1407h-394zM666 1677q-35 0 -56.5 -24t-21.5 -58q0 -26 22 -48.5t56 -22.5q32 0 52.5 19t20.5 52t-21.5 57.5t-51.5 24.5zM670 1040
h-11l-106 -424h217z" />
    <glyph glyph-name="AE" unicode="&#xc6;" horiz-adv-x="1708" 
d="M1626 1090h-502v-191h451v-354h-451v-195h502v-350h-850v393h-221l-141 -393h-441l619 1450h1034v-360zM647 707h148l8 368h-17z" />
    <glyph glyph-name="Ccedilla" unicode="&#xc7;" horiz-adv-x="1191" 
d="M854 453l320 -148q-64 -126 -164.5 -202.5t-218.5 -106.5l-27 -59q57 -15 94.5 -48t50.5 -74.5t11 -87.5t-26 -90t-59 -79t-89 -56.5t-115 -21.5q-173 0 -299 104l65 176q47 -32 94.5 -49t86 -11t47.5 42q11 36 -34 68t-122 38l63 142q-93 15 -173 53t-143 97.5
t-99.5 145.5t-36.5 189v500q0 119 49 215t131 156t184 92t213 32q71 0 139 -16.5t137.5 -52.5t130.5 -103.5t103 -160.5l-299 -121q-35 64 -107 93.5t-141 22t-121.5 -49.5t-52.5 -107v-500q0 -50 34.5 -88.5t86.5 -52.5t108 -10.5t106 38t73 91.5z" />
    <glyph glyph-name="Egrave" unicode="&#xc8;" 
d="M842 1548h-318l-268 340h381zM485 1106v-225h588v-318h-588v-217h639v-346h-1009v1450h1009v-344h-639z" />
    <glyph glyph-name="Eacute" unicode="&#xc9;" 
d="M1008 1888l-269 -340h-317l205 340h381zM485 1106v-225h588v-318h-588v-217h639v-346h-1009v1450h1009v-344h-639z" />
    <glyph glyph-name="Ecircumflex" unicode="&#xca;" 
d="M752 1892l307 -344h-332l-94 107l-90 -107h-346l315 344h240zM485 1106v-225h588v-318h-588v-217h639v-346h-1009v1450h1009v-344h-639z" />
    <glyph glyph-name="Edieresis" unicode="&#xcb;" 
d="M213 1708q0 73 50 123.5t122 50.5t122 -50.5t50 -123.5q0 -71 -50 -120.5t-122 -49.5t-122 49.5t-50 120.5zM707 1708q0 74 49 124t123 50q73 0 123.5 -50t50.5 -124q0 -71 -50.5 -120.5t-123.5 -49.5q-74 0 -123 49.5t-49 120.5zM485 1106v-225h588v-318h-588v-217h639
v-346h-1009v1450h1009v-344h-639z" />
    <glyph glyph-name="Igrave" unicode="&#xcc;" horiz-adv-x="595" 
d="M508 1548h-318l-268 340h381zM481 1450v-1450h-366v1450h366z" />
    <glyph glyph-name="Iacute" unicode="&#xcd;" horiz-adv-x="595" 
d="M674 1888l-268 -340h-318l205 340h381zM481 1450v-1450h-366v1450h366z" />
    <glyph glyph-name="Icircumflex" unicode="&#xce;" horiz-adv-x="595" 
d="M418 1892l287 -344h-332l-74 103l-70 -103h-346l295 344h240zM481 1450v-1450h-366v1450h366z" />
    <glyph glyph-name="Idieresis" unicode="&#xcf;" horiz-adv-x="595" 
d="M-88 1708q0 73 50 123.5t122 50.5t122 -50.5t50 -123.5q0 -71 -50 -120.5t-122 -49.5t-122 49.5t-50 120.5zM344 1708q0 74 49 124t123 50t124 -50t50 -124q0 -71 -50.5 -120.5t-123.5 -49.5q-74 0 -123 49.5t-49 120.5zM481 1450v-1450h-366v1450h366z" />
    <glyph glyph-name="Eth" unicode="&#xd0;" horiz-adv-x="1314" 
d="M127 877v573h586q113 0 205.5 -28t164 -84.5t111 -150t39.5 -216.5v-494q0 -122 -39.5 -215t-111 -149.5t-164.5 -84.5t-205 -28h-586v584h-98v293h98zM498 360h215q73 0 112 29.5t39 87.5v494q0 119 -151 119h-215v-213h170v-293h-170v-224z" />
    <glyph glyph-name="Ntilde" unicode="&#xd1;" horiz-adv-x="1384" 
d="M487 1526l-178 100q23 123 89 184t171 58q32 -1 71 -16.5t69 -31t60.5 -24.5t56 5.5t44.5 58.5l187 -107q-29 -114 -83.5 -173t-129.5 -58q-43 0 -91.5 16t-82.5 31.5t-68 24t-63 -7t-52 -60.5zM115 0v1450h348l350 -619l123 -290l10 2q-1 0 -20.5 125t-20.5 125v657h365
v-1450h-371l-328 571l-127 291l-10 -2l47 -280v-580h-366z" />
    <glyph glyph-name="Ograve" unicode="&#xd2;" horiz-adv-x="1361" 
d="M889 1552h-318l-268 340h381zM80 477v496q0 97 33.5 179.5t91 140t134.5 98t163 60t178 19.5t178.5 -19.5t163.5 -60t135 -98.5t91.5 -140t33.5 -179v-496q0 -97 -33.5 -179t-91 -140t-134.5 -98.5t-163 -60t-178 -19.5t-178.5 19.5t-163.5 60t-135 98.5t-91.5 140
t-33.5 179zM446 973v-496q0 -75 70 -116.5t166 -41.5q95 0 164 42t69 116v496q0 54 -35.5 92t-88.5 55t-115 17q-92 0 -161 -44.5t-69 -119.5z" />
    <glyph glyph-name="Oacute" unicode="&#xd3;" horiz-adv-x="1361" 
d="M1055 1892l-269 -340h-317l205 340h381zM80 477v496q0 97 33.5 179.5t91 140t134.5 98t163 60t178 19.5t178.5 -19.5t163.5 -60t135 -98.5t91.5 -140t33.5 -179v-496q0 -97 -33.5 -179t-91 -140t-134.5 -98.5t-163 -60t-178 -19.5t-178.5 19.5t-163.5 60t-135 98.5
t-91.5 140t-33.5 179zM446 973v-496q0 -75 70 -116.5t166 -41.5q95 0 164 42t69 116v496q0 54 -35.5 92t-88.5 55t-115 17q-92 0 -161 -44.5t-69 -119.5z" />
    <glyph glyph-name="Ocircumflex" unicode="&#xd4;" horiz-adv-x="1361" 
d="M799 1896l307 -344h-332l-94 107l-90 -107h-346l315 344h240zM80 477v496q0 97 33.5 179.5t91 140t134.5 98t163 60t178 19.5t178.5 -19.5t163.5 -60t135 -98.5t91.5 -140t33.5 -179v-496q0 -97 -33.5 -179t-91 -140t-134.5 -98.5t-163 -60t-178 -19.5t-178.5 19.5
t-163.5 60t-135 98.5t-91.5 140t-33.5 179zM446 973v-496q0 -75 70 -116.5t166 -41.5q95 0 164 42t69 116v496q0 54 -35.5 92t-88.5 55t-115 17q-92 0 -161 -44.5t-69 -119.5z" />
    <glyph glyph-name="Otilde" unicode="&#xd5;" horiz-adv-x="1361" 
d="M471 1530l-178 100q23 123 89 184t171 58q32 -1 71 -16.5t69 -31t60.5 -24.5t56 5.5t44.5 58.5l186 -107q-29 -114 -83.5 -173t-129.5 -58q-43 0 -91 16t-82.5 31.5t-68.5 24t-62.5 -7t-51.5 -60.5zM80 477v496q0 97 33.5 179.5t91 140t134.5 98t163 60t178 19.5
t178.5 -19.5t163.5 -60t135 -98.5t91.5 -140t33.5 -179v-496q0 -97 -33.5 -179t-91 -140t-134.5 -98.5t-163 -60t-178 -19.5t-178.5 19.5t-163.5 60t-135 98.5t-91.5 140t-33.5 179zM446 973v-496q0 -75 70 -116.5t166 -41.5q95 0 164 42t69 116v496q0 54 -35.5 92t-88.5 55
t-115 17q-92 0 -161 -44.5t-69 -119.5z" />
    <glyph glyph-name="Odieresis" unicode="&#xd6;" horiz-adv-x="1361" 
d="M260 1712q0 73 50 123.5t122 50.5t122 -50.5t50 -123.5q0 -71 -50 -120.5t-122 -49.5t-122 49.5t-50 120.5zM754 1712q0 74 49 124t123 50t124 -50t50 -124q0 -71 -50.5 -120.5t-123.5 -49.5q-74 0 -123 49.5t-49 120.5zM80 477v496q0 97 33.5 179.5t91 140t134.5 98
t163 60t178 19.5t178.5 -19.5t163.5 -60t135 -98.5t91.5 -140t33.5 -179v-496q0 -97 -33.5 -179t-91 -140t-134.5 -98.5t-163 -60t-178 -19.5t-178.5 19.5t-163.5 60t-135 98.5t-91.5 140t-33.5 179zM446 973v-496q0 -75 70 -116.5t166 -41.5q95 0 164 42t69 116v496
q0 54 -35.5 92t-88.5 55t-115 17q-92 0 -161 -44.5t-69 -119.5z" />
    <glyph glyph-name="multiply" unicode="&#xd7;" horiz-adv-x="1097" 
d="M549 844l250 250l243 -250l-243 -244l243 -246l-245 -245l-246 245q-40 -41 -127 -127t-125 -125l-240 248l246 246l-254 256l246 244z" />
    <glyph glyph-name="Oslash" unicode="&#xd8;" horiz-adv-x="1361" 
d="M1176 1548l-80 -202q186 -138 186 -373v-496q0 -97 -33.5 -179t-91 -140t-134.5 -98.5t-163 -60t-178 -19.5q-50 0 -96 6l-80 -197l-324 115l86 200q-188 136 -188 373v496q0 97 33.5 179.5t91 140t134.5 98t163 60t178 19.5q50 0 100 -6l74 191zM915 477v496
q0 54 -35.5 92t-88.5 55t-115 17q-92 0 -161 -44.5t-69 -119.5v-496q0 -75 70 -116.5t166 -41.5q95 0 164 42t69 116z" />
    <glyph glyph-name="Ugrave" unicode="&#xd9;" horiz-adv-x="1366" 
d="M895 1548h-317l-269 340h381zM477 1450v-965q0 -48 23 -85.5t59.5 -57t80.5 -28.5t88.5 0t81 28.5t60 57t23.5 85.5v965h371v-965q0 -140 -64.5 -250t-166.5 -166.5t-226 -83t-247 0t-225 83t-165.5 166.5t-63.5 250v965h371z" />
    <glyph glyph-name="Uacute" unicode="&#xda;" horiz-adv-x="1366" 
d="M1061 1888l-268 -340h-318l205 340h381zM477 1450v-965q0 -48 23 -85.5t59.5 -57t80.5 -28.5t88.5 0t81 28.5t60 57t23.5 85.5v965h371v-965q0 -140 -64.5 -250t-166.5 -166.5t-226 -83t-247 0t-225 83t-165.5 166.5t-63.5 250v965h371z" />
    <glyph glyph-name="Ucircumflex" unicode="&#xdb;" horiz-adv-x="1366" 
d="M805 1892l307 -344h-332l-94 107l-90 -107h-346l315 344h240zM477 1450v-965q0 -48 23 -85.5t59.5 -57t80.5 -28.5t88.5 0t81 28.5t60 57t23.5 85.5v965h371v-965q0 -140 -64.5 -250t-166.5 -166.5t-226 -83t-247 0t-225 83t-165.5 166.5t-63.5 250v965h371z" />
    <glyph glyph-name="Udieresis" unicode="&#xdc;" horiz-adv-x="1366" 
d="M266 1708q0 73 50 123.5t122 50.5t122 -50.5t50 -123.5q0 -71 -50 -120.5t-122 -49.5t-122 49.5t-50 120.5zM760 1708q0 74 49 124t123 50t124 -50t50 -124q0 -71 -50.5 -120.5t-123.5 -49.5q-74 0 -123 49.5t-49 120.5zM477 1450v-965q0 -48 23 -85.5t59.5 -57
t80.5 -28.5t88.5 0t81 28.5t60 57t23.5 85.5v965h371v-965q0 -140 -64.5 -250t-166.5 -166.5t-226 -83t-247 0t-225 83t-165.5 166.5t-63.5 250v965h371z" />
    <glyph glyph-name="Yacute" unicode="&#xdd;" horiz-adv-x="1341" 
d="M1038 1888l-268 -340h-317l204 340h381zM854 0h-367v571l-505 879h426l262 -532l262 532h430l-508 -879v-571z" />
    <glyph glyph-name="Thorn" unicode="&#xde;" horiz-adv-x="1138" 
d="M485 1233h21q293 0 445.5 -124.5t152.5 -367.5q0 -109 -35.5 -194t-93.5 -138.5t-140 -87.5t-167 -47.5t-183 -13.5v-258h-370v1462h370v-231zM485 899v-315q147 -17 220 58q54 56 38 129q-17 74 -97 109q-67 30 -161 19z" />
    <glyph glyph-name="germandbls" unicode="&#xdf;" horiz-adv-x="1179" 
d="M98 0v1038q-1 104 40 188t110 136t155 80t179 28q72 0 139.5 -16t127.5 -50.5t105 -83t71 -118.5t26 -153q0 -49 -10.5 -98t-46.5 -109t-95 -99q89 -32 145.5 -101t72.5 -149t1.5 -164.5t-57.5 -152.5q-58 -95 -168 -145.5t-236 -50.5q-71 0 -147 18v324q88 -44 164 3.5
t76 129.5q0 57 -42 90t-106 33h-92v311q111 -23 164 46q41 53 24 120q-17 65 -76 85q-21 7 -44 7q-55 0 -94.5 -32.5t-39.5 -90.5v-1024h-346z" />
    <glyph glyph-name="agrave" unicode="&#xe0;" horiz-adv-x="1327" 
d="M872 1548h-317l-268 340h381zM827 1450l519 -1450h-394l-94 291h-387l-90 -291h-393l506 1450h333zM553 616h217l-100 424h-11z" />
    <glyph glyph-name="aacute" unicode="&#xe1;" horiz-adv-x="1327" 
d="M1038 1888l-268 -340h-317l204 340h381zM827 1450l519 -1450h-394l-94 291h-387l-90 -291h-393l506 1450h333zM553 616h217l-100 424h-11z" />
    <glyph glyph-name="acircumflex" unicode="&#xe2;" horiz-adv-x="1327" 
d="M782 1892l308 -344h-332l-94 107l-91 -107h-346l316 344h239zM827 1450l519 -1450h-394l-94 291h-387l-90 -291h-393l506 1450h333zM553 616h217l-100 424h-11z" />
    <glyph glyph-name="atilde" unicode="&#xe3;" horiz-adv-x="1327" 
d="M449 1534l-179 100q23 123 89 184t171 58q32 -1 71 -16.5t69 -31t60.5 -24.5t56 5.5t44.5 58.5l187 -107q-29 -114 -83.5 -173t-129.5 -58q-43 0 -91 16t-82.5 31.5t-68.5 24t-62.5 -7t-51.5 -60.5zM827 1450l519 -1450h-394l-94 291h-387l-90 -291h-393l506 1450h333z
M553 616h217l-100 424h-11z" />
    <glyph glyph-name="adieresis" unicode="&#xe4;" horiz-adv-x="1327" 
d="M244 1708q0 73 50 123.5t122 50.5t122 -50.5t50 -123.5q0 -71 -50 -120.5t-122 -49.5t-122 49.5t-50 120.5zM737 1708q0 74 49 124t123 50q73 0 123.5 -50t50.5 -124q0 -71 -50.5 -120.5t-123.5 -49.5q-74 0 -123 49.5t-49 120.5zM827 1450l519 -1450h-394l-94 291h-387
l-90 -291h-393l506 1450h333zM553 616h217l-100 424h-11z" />
    <glyph glyph-name="aring" unicode="&#xe5;" horiz-adv-x="1327" 
d="M952 0l-94 291h-387l-90 -291h-393l491 1409q-82 76 -82 190q0 109 78.5 188t190.5 79q109 0 185.5 -82t76.5 -187q0 -113 -84 -190l502 -1407h-394zM666 1677q-35 0 -56.5 -24t-21.5 -58q0 -26 22 -48.5t56 -22.5q32 0 52.5 19t20.5 52t-21.5 57.5t-51.5 24.5zM670 1040
h-11l-106 -424h217z" />
    <glyph glyph-name="ae" unicode="&#xe6;" horiz-adv-x="1708" 
d="M1626 1090h-502v-191h451v-354h-451v-195h502v-350h-850v393h-221l-141 -393h-441l619 1450h1034v-360zM647 707h148l8 368h-17z" />
    <glyph glyph-name="ccedilla" unicode="&#xe7;" horiz-adv-x="1191" 
d="M854 453l320 -148q-64 -126 -164.5 -202.5t-218.5 -106.5l-27 -59q57 -15 94.5 -48t50.5 -74.5t11 -87.5t-26 -90t-59 -79t-89 -56.5t-115 -21.5q-173 0 -299 104l65 176q47 -32 94.5 -49t86 -11t47.5 42q11 36 -34 68t-122 38l63 142q-93 15 -173 53t-143 97.5
t-99.5 145.5t-36.5 189v500q0 119 49 215t131 156t184 92t213 32q71 0 139 -16.5t137.5 -52.5t130.5 -103.5t103 -160.5l-299 -121q-35 64 -107 93.5t-141 22t-121.5 -49.5t-52.5 -107v-500q0 -50 34.5 -88.5t86.5 -52.5t108 -10.5t106 38t73 91.5z" />
    <glyph glyph-name="egrave" unicode="&#xe8;" 
d="M842 1548h-318l-268 340h381zM485 1106v-225h588v-318h-588v-217h639v-346h-1009v1450h1009v-344h-639z" />
    <glyph glyph-name="eacute" unicode="&#xe9;" 
d="M1008 1888l-269 -340h-317l205 340h381zM485 1106v-225h588v-318h-588v-217h639v-346h-1009v1450h1009v-344h-639z" />
    <glyph glyph-name="ecircumflex" unicode="&#xea;" 
d="M752 1892l307 -344h-332l-94 107l-90 -107h-346l315 344h240zM485 1106v-225h588v-318h-588v-217h639v-346h-1009v1450h1009v-344h-639z" />
    <glyph glyph-name="edieresis" unicode="&#xeb;" 
d="M213 1708q0 73 50 123.5t122 50.5t122 -50.5t50 -123.5q0 -71 -50 -120.5t-122 -49.5t-122 49.5t-50 120.5zM707 1708q0 74 49 124t123 50q73 0 123.5 -50t50.5 -124q0 -71 -50.5 -120.5t-123.5 -49.5q-74 0 -123 49.5t-49 120.5zM485 1106v-225h588v-318h-588v-217h639
v-346h-1009v1450h1009v-344h-639z" />
    <glyph glyph-name="igrave" unicode="&#xec;" horiz-adv-x="595" 
d="M508 1548h-318l-268 340h381zM481 1450v-1450h-366v1450h366z" />
    <glyph glyph-name="iacute" unicode="&#xed;" horiz-adv-x="595" 
d="M674 1888l-268 -340h-318l205 340h381zM481 1450v-1450h-366v1450h366z" />
    <glyph glyph-name="icircumflex" unicode="&#xee;" horiz-adv-x="595" 
d="M418 1892l287 -344h-332l-74 103l-70 -103h-346l295 344h240zM481 1450v-1450h-366v1450h366z" />
    <glyph glyph-name="idieresis" unicode="&#xef;" horiz-adv-x="595" 
d="M-88 1708q0 73 50 123.5t122 50.5t122 -50.5t50 -123.5q0 -71 -50 -120.5t-122 -49.5t-122 49.5t-50 120.5zM344 1708q0 74 49 124t123 50t124 -50t50 -124q0 -71 -50.5 -120.5t-123.5 -49.5q-74 0 -123 49.5t-49 120.5zM481 1450v-1450h-366v1450h366z" />
    <glyph glyph-name="eth" unicode="&#xf0;" horiz-adv-x="1314" 
d="M127 877v573h586q113 0 205.5 -28t164 -84.5t111 -150t39.5 -216.5v-494q0 -122 -39.5 -215t-111 -149.5t-164.5 -84.5t-205 -28h-586v584h-98v293h98zM498 360h215q73 0 112 29.5t39 87.5v494q0 119 -151 119h-215v-213h170v-293h-170v-224z" />
    <glyph glyph-name="ntilde" unicode="&#xf1;" horiz-adv-x="1384" 
d="M487 1526l-178 100q23 123 89 184t171 58q32 -1 71 -16.5t69 -31t60.5 -24.5t56 5.5t44.5 58.5l187 -107q-29 -114 -83.5 -173t-129.5 -58q-43 0 -91.5 16t-82.5 31.5t-68 24t-63 -7t-52 -60.5zM115 0v1450h348l350 -619l123 -290l10 2q-1 0 -20.5 125t-20.5 125v657h365
v-1450h-371l-328 571l-127 291l-10 -2l47 -280v-580h-366z" />
    <glyph glyph-name="ograve" unicode="&#xf2;" horiz-adv-x="1361" 
d="M889 1552h-318l-268 340h381zM80 477v496q0 97 33.5 179.5t91 140t134.5 98t163 60t178 19.5t178.5 -19.5t163.5 -60t135 -98.5t91.5 -140t33.5 -179v-496q0 -97 -33.5 -179t-91 -140t-134.5 -98.5t-163 -60t-178 -19.5t-178.5 19.5t-163.5 60t-135 98.5t-91.5 140
t-33.5 179zM446 973v-496q0 -75 70 -116.5t166 -41.5q95 0 164 42t69 116v496q0 54 -35.5 92t-88.5 55t-115 17q-92 0 -161 -44.5t-69 -119.5z" />
    <glyph glyph-name="oacute" unicode="&#xf3;" horiz-adv-x="1361" 
d="M1055 1892l-269 -340h-317l205 340h381zM80 477v496q0 97 33.5 179.5t91 140t134.5 98t163 60t178 19.5t178.5 -19.5t163.5 -60t135 -98.5t91.5 -140t33.5 -179v-496q0 -97 -33.5 -179t-91 -140t-134.5 -98.5t-163 -60t-178 -19.5t-178.5 19.5t-163.5 60t-135 98.5
t-91.5 140t-33.5 179zM446 973v-496q0 -75 70 -116.5t166 -41.5q95 0 164 42t69 116v496q0 54 -35.5 92t-88.5 55t-115 17q-92 0 -161 -44.5t-69 -119.5z" />
    <glyph glyph-name="ocircumflex" unicode="&#xf4;" horiz-adv-x="1361" 
d="M799 1896l307 -344h-332l-94 107l-90 -107h-346l315 344h240zM80 477v496q0 97 33.5 179.5t91 140t134.5 98t163 60t178 19.5t178.5 -19.5t163.5 -60t135 -98.5t91.5 -140t33.5 -179v-496q0 -97 -33.5 -179t-91 -140t-134.5 -98.5t-163 -60t-178 -19.5t-178.5 19.5
t-163.5 60t-135 98.5t-91.5 140t-33.5 179zM446 973v-496q0 -75 70 -116.5t166 -41.5q95 0 164 42t69 116v496q0 54 -35.5 92t-88.5 55t-115 17q-92 0 -161 -44.5t-69 -119.5z" />
    <glyph glyph-name="otilde" unicode="&#xf5;" horiz-adv-x="1361" 
d="M471 1530l-178 100q23 123 89 184t171 58q32 -1 71 -16.5t69 -31t60.5 -24.5t56 5.5t44.5 58.5l186 -107q-29 -114 -83.5 -173t-129.5 -58q-43 0 -91 16t-82.5 31.5t-68.5 24t-62.5 -7t-51.5 -60.5zM80 477v496q0 97 33.5 179.5t91 140t134.5 98t163 60t178 19.5
t178.5 -19.5t163.5 -60t135 -98.5t91.5 -140t33.5 -179v-496q0 -97 -33.5 -179t-91 -140t-134.5 -98.5t-163 -60t-178 -19.5t-178.5 19.5t-163.5 60t-135 98.5t-91.5 140t-33.5 179zM446 973v-496q0 -75 70 -116.5t166 -41.5q95 0 164 42t69 116v496q0 54 -35.5 92t-88.5 55
t-115 17q-92 0 -161 -44.5t-69 -119.5z" />
    <glyph glyph-name="odieresis" unicode="&#xf6;" horiz-adv-x="1361" 
d="M260 1712q0 73 50 123.5t122 50.5t122 -50.5t50 -123.5q0 -71 -50 -120.5t-122 -49.5t-122 49.5t-50 120.5zM754 1712q0 74 49 124t123 50t124 -50t50 -124q0 -71 -50.5 -120.5t-123.5 -49.5q-74 0 -123 49.5t-49 120.5zM80 477v496q0 97 33.5 179.5t91 140t134.5 98
t163 60t178 19.5t178.5 -19.5t163.5 -60t135 -98.5t91.5 -140t33.5 -179v-496q0 -97 -33.5 -179t-91 -140t-134.5 -98.5t-163 -60t-178 -19.5t-178.5 19.5t-163.5 60t-135 98.5t-91.5 140t-33.5 179zM446 973v-496q0 -75 70 -116.5t166 -41.5q95 0 164 42t69 116v496
q0 54 -35.5 92t-88.5 55t-115 17q-92 0 -161 -44.5t-69 -119.5z" />
    <glyph glyph-name="divide" unicode="&#xf7;" horiz-adv-x="1042" 
d="M57 766h930v-311h-930v311zM334 201q0 81 54.5 132.5t137.5 51.5t139 -51.5t56 -132.5t-56 -134t-139 -53q-82 0 -137 53t-55 134zM334 1022q0 81 54.5 132.5t137.5 51.5t139 -51.5t56 -132.5t-56 -133.5t-139 -52.5q-82 0 -137 52.5t-55 133.5z" />
    <glyph glyph-name="oslash" unicode="&#xf8;" horiz-adv-x="1361" 
d="M1176 1548l-80 -202q186 -138 186 -373v-496q0 -97 -33.5 -179t-91 -140t-134.5 -98.5t-163 -60t-178 -19.5q-50 0 -96 6l-80 -197l-324 115l86 200q-188 136 -188 373v496q0 97 33.5 179.5t91 140t134.5 98t163 60t178 19.5q50 0 100 -6l74 191zM915 477v496
q0 54 -35.5 92t-88.5 55t-115 17q-92 0 -161 -44.5t-69 -119.5v-496q0 -75 70 -116.5t166 -41.5q95 0 164 42t69 116z" />
    <glyph glyph-name="ugrave" unicode="&#xf9;" horiz-adv-x="1366" 
d="M895 1548h-317l-269 340h381zM477 1450v-965q0 -48 23 -85.5t59.5 -57t80.5 -28.5t88.5 0t81 28.5t60 57t23.5 85.5v965h371v-965q0 -140 -64.5 -250t-166.5 -166.5t-226 -83t-247 0t-225 83t-165.5 166.5t-63.5 250v965h371z" />
    <glyph glyph-name="uacute" unicode="&#xfa;" horiz-adv-x="1366" 
d="M1061 1888l-268 -340h-318l205 340h381zM477 1450v-965q0 -48 23 -85.5t59.5 -57t80.5 -28.5t88.5 0t81 28.5t60 57t23.5 85.5v965h371v-965q0 -140 -64.5 -250t-166.5 -166.5t-226 -83t-247 0t-225 83t-165.5 166.5t-63.5 250v965h371z" />
    <glyph glyph-name="ucircumflex" unicode="&#xfb;" horiz-adv-x="1366" 
d="M805 1892l307 -344h-332l-94 107l-90 -107h-346l315 344h240zM477 1450v-965q0 -48 23 -85.5t59.5 -57t80.5 -28.5t88.5 0t81 28.5t60 57t23.5 85.5v965h371v-965q0 -140 -64.5 -250t-166.5 -166.5t-226 -83t-247 0t-225 83t-165.5 166.5t-63.5 250v965h371z" />
    <glyph glyph-name="udieresis" unicode="&#xfc;" horiz-adv-x="1366" 
d="M266 1708q0 73 50 123.5t122 50.5t122 -50.5t50 -123.5q0 -71 -50 -120.5t-122 -49.5t-122 49.5t-50 120.5zM760 1708q0 74 49 124t123 50t124 -50t50 -124q0 -71 -50.5 -120.5t-123.5 -49.5q-74 0 -123 49.5t-49 120.5zM477 1450v-965q0 -48 23 -85.5t59.5 -57
t80.5 -28.5t88.5 0t81 28.5t60 57t23.5 85.5v965h371v-965q0 -140 -64.5 -250t-166.5 -166.5t-226 -83t-247 0t-225 83t-165.5 166.5t-63.5 250v965h371z" />
    <glyph glyph-name="yacute" unicode="&#xfd;" horiz-adv-x="1341" 
d="M1038 1888l-268 -340h-317l204 340h381zM854 0h-367v571l-505 879h426l262 -532l262 532h430l-508 -879v-571z" />
    <glyph glyph-name="thorn" unicode="&#xfe;" horiz-adv-x="1138" 
d="M485 1233h21q293 0 445.5 -124.5t152.5 -367.5q0 -109 -35.5 -194t-93.5 -138.5t-140 -87.5t-167 -47.5t-183 -13.5v-258h-370v1462h370v-231zM485 899v-315q147 -17 220 58q54 56 38 129q-17 74 -97 109q-67 30 -161 19z" />
    <glyph glyph-name="ydieresis" unicode="&#xff;" horiz-adv-x="1341" 
d="M244 1708q0 73 50 123.5t122 50.5t122 -50.5t50 -123.5q0 -71 -50 -120.5t-122 -49.5t-122 49.5t-50 120.5zM737 1708q0 74 49 124t123 50q73 0 123.5 -50t50.5 -124q0 -71 -50.5 -120.5t-123.5 -49.5q-74 0 -123 49.5t-49 120.5zM854 0h-367v571l-505 879h426l262 -532
l262 532h430l-508 -879v-571z" />
    <glyph glyph-name="Amacron" unicode="&#x100;" horiz-adv-x="1327" 
d="M356 1552v275h609v-275h-609zM827 1450l519 -1450h-394l-94 291h-387l-90 -291h-393l506 1450h333zM553 616h217l-100 424h-11z" />
    <glyph glyph-name="amacron" unicode="&#x101;" horiz-adv-x="1327" 
d="M356 1552v275h609v-275h-609zM827 1450l519 -1450h-394l-94 291h-387l-90 -291h-393l506 1450h333zM553 616h217l-100 424h-11z" />
    <glyph glyph-name="Abreve" unicode="&#x102;" horiz-adv-x="1327" 
d="M741 1888h277q0 -86 -31 -155.5t-81 -112t-114.5 -66t-132 -23.5t-132 23.5t-114.5 66t-81 112t-31 155.5h281q0 -37 25 -58t54.5 -21t54.5 21t25 58zM827 1450l519 -1450h-394l-94 291h-387l-90 -291h-393l506 1450h333zM553 616h217l-100 424h-11z" />
    <glyph glyph-name="abreve" unicode="&#x103;" horiz-adv-x="1327" 
d="M741 1888h277q0 -86 -31 -155.5t-81 -112t-114.5 -66t-132 -23.5t-132 23.5t-114.5 66t-81 112t-31 155.5h281q0 -37 25 -58t54.5 -21t54.5 21t25 58zM827 1450l519 -1450h-394l-94 291h-387l-90 -291h-393l506 1450h333zM553 616h217l-100 424h-11z" />
    <glyph glyph-name="Aogonek" unicode="&#x104;" horiz-adv-x="1327" 
d="M1382 -199l58 -219q-50 -40 -114 -61t-122 -21q-103 0 -170 41.5t-87.5 109.5t8.5 160.5t108 188.5h-111l-94 291h-387l-90 -291h-393l506 1450h333l519 -1450q-98 -89 -105 -163q-4 -52 40 -62q9 -2 19 -2q36 0 82 28zM553 616h217l-100 424h-11z" />
    <glyph glyph-name="aogonek" unicode="&#x105;" horiz-adv-x="1327" 
d="M1382 -199l58 -219q-50 -40 -114 -61t-122 -21q-103 0 -170 41.5t-87.5 109.5t8.5 160.5t108 188.5h-111l-94 291h-387l-90 -291h-393l506 1450h333l519 -1450q-98 -89 -105 -163q-4 -52 40 -62q9 -2 19 -2q36 0 82 28zM553 616h217l-100 424h-11z" />
    <glyph glyph-name="Cacute" unicode="&#x106;" horiz-adv-x="1191" 
d="M1032 1888l-268 -340h-318l205 340h381zM854 453l320 -148q-44 -85 -106.5 -149.5t-133 -102t-141.5 -55.5t-142 -18q-109 0 -210 31.5t-182 91.5t-130 156.5t-49 215.5v500q0 119 49 215t131 156t184 92t213 32q71 0 139 -16.5t137.5 -52.5t130.5 -103.5t103 -160.5
l-299 -121q-35 64 -107 93.5t-141 22t-121.5 -49.5t-52.5 -107v-500q0 -50 34.5 -88.5t86.5 -52.5t108 -10.5t106 38t73 91.5z" />
    <glyph glyph-name="cacute" unicode="&#x107;" horiz-adv-x="1191" 
d="M1032 1888l-268 -340h-318l205 340h381zM854 453l320 -148q-44 -85 -106.5 -149.5t-133 -102t-141.5 -55.5t-142 -18q-109 0 -210 31.5t-182 91.5t-130 156.5t-49 215.5v500q0 119 49 215t131 156t184 92t213 32q71 0 139 -16.5t137.5 -52.5t130.5 -103.5t103 -160.5
l-299 -121q-35 64 -107 93.5t-141 22t-121.5 -49.5t-52.5 -107v-500q0 -50 34.5 -88.5t86.5 -52.5t108 -10.5t106 38t73 91.5z" />
    <glyph glyph-name="Cdotaccent" unicode="&#x10a;" horiz-adv-x="1191" 
d="M455 1743q0 84 58 141.5t144 57.5t142.5 -57.5t56.5 -141.5q0 -85 -56.5 -143t-142.5 -58t-144 58t-58 143zM854 453l320 -148q-44 -85 -106.5 -149.5t-133 -102t-141.5 -55.5t-142 -18q-109 0 -210 31.5t-182 91.5t-130 156.5t-49 215.5v500q0 119 49 215t131 156
t184 92t213 32q71 0 139 -16.5t137.5 -52.5t130.5 -103.5t103 -160.5l-299 -121q-35 64 -107 93.5t-141 22t-121.5 -49.5t-52.5 -107v-500q0 -50 34.5 -88.5t86.5 -52.5t108 -10.5t106 38t73 91.5z" />
    <glyph glyph-name="cdotaccent" unicode="&#x10b;" horiz-adv-x="1191" 
d="M455 1743q0 84 58 141.5t144 57.5t142.5 -57.5t56.5 -141.5q0 -85 -56.5 -143t-142.5 -58t-144 58t-58 143zM854 453l320 -148q-44 -85 -106.5 -149.5t-133 -102t-141.5 -55.5t-142 -18q-109 0 -210 31.5t-182 91.5t-130 156.5t-49 215.5v500q0 119 49 215t131 156
t184 92t213 32q71 0 139 -16.5t137.5 -52.5t130.5 -103.5t103 -160.5l-299 -121q-35 64 -107 93.5t-141 22t-121.5 -49.5t-52.5 -107v-500q0 -50 34.5 -88.5t86.5 -52.5t108 -10.5t106 38t73 91.5z" />
    <glyph glyph-name="Ccaron" unicode="&#x10c;" horiz-adv-x="1191" 
d="M229 1892h344l84 -106l95 106h342l-308 -344h-249zM854 453l320 -148q-44 -85 -106.5 -149.5t-133 -102t-141.5 -55.5t-142 -18q-109 0 -210 31.5t-182 91.5t-130 156.5t-49 215.5v500q0 119 49 215t131 156t184 92t213 32q71 0 139 -16.5t137.5 -52.5t130.5 -103.5
t103 -160.5l-299 -121q-35 64 -107 93.5t-141 22t-121.5 -49.5t-52.5 -107v-500q0 -50 34.5 -88.5t86.5 -52.5t108 -10.5t106 38t73 91.5z" />
    <glyph glyph-name="ccaron" unicode="&#x10d;" horiz-adv-x="1191" 
d="M229 1892h344l84 -106l95 106h342l-308 -344h-249zM854 453l320 -148q-44 -85 -106.5 -149.5t-133 -102t-141.5 -55.5t-142 -18q-109 0 -210 31.5t-182 91.5t-130 156.5t-49 215.5v500q0 119 49 215t131 156t184 92t213 32q71 0 139 -16.5t137.5 -52.5t130.5 -103.5
t103 -160.5l-299 -121q-35 64 -107 93.5t-141 22t-121.5 -49.5t-52.5 -107v-500q0 -50 34.5 -88.5t86.5 -52.5t108 -10.5t106 38t73 91.5z" />
    <glyph glyph-name="Dcaron" unicode="&#x10e;" horiz-adv-x="1302" 
d="M164 1892h344l84 -106l94 106h342l-307 -344h-250zM115 1450h542q89 0 170.5 -17.5t153.5 -56t125 -94.5t84 -137t31 -180v-488q0 -97 -31 -177.5t-84 -135.5t-125 -93t-153.5 -55t-170.5 -16h-542v1450zM483 344h187q91 0 136.5 42.5t45.5 115.5v452q0 72 -46 113
t-136 41h-187v-764z" />
    <glyph glyph-name="dcaron" unicode="&#x10f;" horiz-adv-x="1302" 
d="M164 1892h344l84 -106l94 106h342l-307 -344h-250zM115 1450h542q89 0 170.5 -17.5t153.5 -56t125 -94.5t84 -137t31 -180v-488q0 -97 -31 -177.5t-84 -135.5t-125 -93t-153.5 -55t-170.5 -16h-542v1450zM483 344h187q91 0 136.5 42.5t45.5 115.5v452q0 72 -46 113
t-136 41h-187v-764z" />
    <glyph glyph-name="Dcroat" unicode="&#x110;" horiz-adv-x="1314" 
d="M127 877v573h586q113 0 205.5 -28t164 -84.5t111 -150t39.5 -216.5v-494q0 -122 -39.5 -215t-111 -149.5t-164.5 -84.5t-205 -28h-586v584h-98v293h98zM498 360h215q73 0 112 29.5t39 87.5v494q0 119 -151 119h-215v-213h170v-293h-170v-224z" />
    <glyph glyph-name="dcroat" unicode="&#x111;" horiz-adv-x="1314" 
d="M127 877v573h586q113 0 205.5 -28t164 -84.5t111 -150t39.5 -216.5v-494q0 -122 -39.5 -215t-111 -149.5t-164.5 -84.5t-205 -28h-586v584h-98v293h98zM498 360h215q73 0 112 29.5t39 87.5v494q0 119 -151 119h-215v-213h170v-293h-170v-224z" />
    <glyph glyph-name="Emacron" unicode="&#x112;" 
d="M326 1552v275h608v-275h-608zM485 1106v-225h588v-318h-588v-217h639v-346h-1009v1450h1009v-344h-639z" />
    <glyph glyph-name="emacron" unicode="&#x113;" 
d="M326 1552v275h608v-275h-608zM485 1106v-225h588v-318h-588v-217h639v-346h-1009v1450h1009v-344h-639z" />
    <glyph glyph-name="Edotaccent" unicode="&#x116;" 
d="M430 1743q0 84 58.5 141.5t144.5 57.5q85 0 141.5 -57.5t56.5 -141.5q0 -85 -56 -143t-142 -58t-144.5 58t-58.5 143zM485 1106v-225h588v-318h-588v-217h639v-346h-1009v1450h1009v-344h-639z" />
    <glyph glyph-name="edotaccent" unicode="&#x117;" 
d="M430 1743q0 84 58.5 141.5t144.5 57.5q85 0 141.5 -57.5t56.5 -141.5q0 -85 -56 -143t-142 -58t-144.5 58t-58.5 143zM485 1106v-225h588v-318h-588v-217h639v-346h-1009v1450h1009v-344h-639z" />
    <glyph glyph-name="Eogonek" unicode="&#x118;" 
d="M1163 -199l58 -219q-50 -40 -114 -61t-122 -21q-103 0 -170 41.5t-87.5 109.5t8.5 160.5t108 188.5h-729v1450h1009v-344h-639v-225h588v-318h-588v-217h639v-346q-99 -95 -103 -168q-2 -50 43 -58q8 -1 17 -1q36 0 82 28z" />
    <glyph glyph-name="eogonek" unicode="&#x119;" 
d="M1163 -199l58 -219q-50 -40 -114 -61t-122 -21q-103 0 -170 41.5t-87.5 109.5t8.5 160.5t108 188.5h-729v1450h1009v-344h-639v-225h588v-318h-588v-217h639v-346q-99 -95 -103 -168q-2 -50 43 -58q8 -1 17 -1q36 0 82 28z" />
    <glyph glyph-name="Ecaron" unicode="&#x11a;" 
d="M205 1892h344l84 -106l94 106h342l-307 -344h-250zM485 1106v-225h588v-318h-588v-217h639v-346h-1009v1450h1009v-344h-639z" />
    <glyph glyph-name="ecaron" unicode="&#x11b;" 
d="M205 1892h344l84 -106l94 106h342l-307 -344h-250zM485 1106v-225h588v-318h-588v-217h639v-346h-1009v1450h1009v-344h-639z" />
    <glyph glyph-name="Gbreve" unicode="&#x11e;" horiz-adv-x="1277" 
d="M731 1888h277q0 -86 -31 -155.5t-81 -112t-114.5 -66t-132 -23.5t-132 23.5t-114.5 66t-81 112t-31 155.5h280q0 -37 25 -58t55 -21t55 21t25 58zM1157 1161l-307 -141q-23 56 -72.5 89t-105 35.5t-107 -13t-85.5 -56.5t-34 -96v-498q0 -54 31.5 -94t78.5 -57.5
t102 -17.5t102 18t78.5 57.5t31.5 93.5v54h-231v307h584v-361q0 -121 -48 -218.5t-128.5 -158t-181.5 -92.5t-212 -32q-110 0 -211 32t-182.5 92.5t-130.5 158t-49 218.5v498q0 119 49 214.5t130.5 154.5t182.5 90.5t211 31.5q74 0 145 -16.5t139.5 -51t126 -96.5t93.5 -145
z" />
    <glyph glyph-name="gbreve" unicode="&#x11f;" horiz-adv-x="1277" 
d="M731 1888h277q0 -86 -31 -155.5t-81 -112t-114.5 -66t-132 -23.5t-132 23.5t-114.5 66t-81 112t-31 155.5h280q0 -37 25 -58t55 -21t55 21t25 58zM1157 1161l-307 -141q-23 56 -72.5 89t-105 35.5t-107 -13t-85.5 -56.5t-34 -96v-498q0 -54 31.5 -94t78.5 -57.5
t102 -17.5t102 18t78.5 57.5t31.5 93.5v54h-231v307h584v-361q0 -121 -48 -218.5t-128.5 -158t-181.5 -92.5t-212 -32q-110 0 -211 32t-182.5 92.5t-130.5 158t-49 218.5v498q0 119 49 214.5t130.5 154.5t182.5 90.5t211 31.5q74 0 145 -16.5t139.5 -51t126 -96.5t93.5 -145
z" />
    <glyph glyph-name="Gdotaccent" unicode="&#x120;" horiz-adv-x="1277" 
d="M451 1743q0 84 58 141.5t144 57.5t142.5 -57.5t56.5 -141.5q0 -85 -56.5 -143t-142.5 -58t-144 58t-58 143zM1157 1161l-307 -141q-23 56 -72.5 89t-105 35.5t-107 -13t-85.5 -56.5t-34 -96v-498q0 -54 31.5 -94t78.5 -57.5t102 -17.5t102 18t78.5 57.5t31.5 93.5v54
h-231v307h584v-361q0 -121 -48 -218.5t-128.5 -158t-181.5 -92.5t-212 -32q-110 0 -211 32t-182.5 92.5t-130.5 158t-49 218.5v498q0 119 49 214.5t130.5 154.5t182.5 90.5t211 31.5q74 0 145 -16.5t139.5 -51t126 -96.5t93.5 -145z" />
    <glyph glyph-name="gdotaccent" unicode="&#x121;" horiz-adv-x="1277" 
d="M451 1743q0 84 58 141.5t144 57.5t142.5 -57.5t56.5 -141.5q0 -85 -56.5 -143t-142.5 -58t-144 58t-58 143zM1157 1161l-307 -141q-23 56 -72.5 89t-105 35.5t-107 -13t-85.5 -56.5t-34 -96v-498q0 -54 31.5 -94t78.5 -57.5t102 -17.5t102 18t78.5 57.5t31.5 93.5v54
h-231v307h584v-361q0 -121 -48 -218.5t-128.5 -158t-181.5 -92.5t-212 -32q-110 0 -211 32t-182.5 92.5t-130.5 158t-49 218.5v498q0 119 49 214.5t130.5 154.5t182.5 90.5t211 31.5q74 0 145 -16.5t139.5 -51t126 -96.5t93.5 -145z" />
    <glyph glyph-name="Gcommaaccent" unicode="&#x122;" horiz-adv-x="1277" 
d="M1157 1161l-307 -141q-23 56 -72.5 89t-105 35.5t-107 -13t-85.5 -56.5t-34 -96v-498q0 -54 31.5 -94t78.5 -57.5t102 -17.5t102 18t78.5 57.5t31.5 93.5v54h-231v307h584v-361q0 -121 -48 -218.5t-128.5 -158t-181.5 -92.5t-212 -32q-110 0 -211 32t-182.5 92.5
t-130.5 158t-49 218.5v498q0 119 49 214.5t130.5 154.5t182.5 90.5t211 31.5q74 0 145 -16.5t139.5 -51t126 -96.5t93.5 -145zM877 -94l-154 -418h-334l125 418h363z" />
    <glyph glyph-name="gcommaaccent" unicode="&#x123;" horiz-adv-x="1277" 
d="M1157 1161l-307 -141q-23 56 -72.5 89t-105 35.5t-107 -13t-85.5 -56.5t-34 -96v-498q0 -54 31.5 -94t78.5 -57.5t102 -17.5t102 18t78.5 57.5t31.5 93.5v54h-231v307h584v-361q0 -121 -48 -218.5t-128.5 -158t-181.5 -92.5t-212 -32q-110 0 -211 32t-182.5 92.5
t-130.5 158t-49 218.5v498q0 119 49 214.5t130.5 154.5t182.5 90.5t211 31.5q74 0 145 -16.5t139.5 -51t126 -96.5t93.5 -145zM877 -94l-154 -418h-334l125 418h363z" />
    <glyph glyph-name="Hbar" unicode="&#x126;" horiz-adv-x="1427" 
d="M1292 1061v-1061h-368v547h-418v-547h-369v1061h-121v213h121v176h369v-176h418v176h368v-176h119v-213h-119zM506 1061v-160h418v160h-418z" />
    <glyph glyph-name="hbar" unicode="&#x127;" horiz-adv-x="1427" 
d="M1292 1061v-1061h-368v547h-418v-547h-369v1061h-121v213h121v176h369v-176h418v176h368v-176h119v-213h-119zM506 1061v-160h418v160h-418z" />
    <glyph glyph-name="Imacron" unicode="&#x12a;" horiz-adv-x="595" 
d="M-8 1552v275h608v-275h-608zM481 1450v-1450h-366v1450h366z" />
    <glyph glyph-name="imacron" unicode="&#x12b;" horiz-adv-x="595" 
d="M-8 1552v275h608v-275h-608zM481 1450v-1450h-366v1450h366z" />
    <glyph glyph-name="Iogonek" unicode="&#x12e;" horiz-adv-x="595" 
d="M516 -199l57 -219q-50 -41 -113.5 -61.5t-121.5 -20.5q-103 0 -170 41.5t-87.5 109.5t8.5 160.5t108 188.5h-82v1450h366v-1450q-86 -74 -101 -150q-12 -59 29 -73q11 -4 25 -4q36 0 82 28z" />
    <glyph glyph-name="iogonek" unicode="&#x12f;" horiz-adv-x="595" 
d="M516 -199l57 -219q-50 -41 -113.5 -61.5t-121.5 -20.5q-103 0 -170 41.5t-87.5 109.5t8.5 160.5t108 188.5h-82v1450h366v-1450q-86 -74 -101 -150q-12 -59 29 -73q11 -4 25 -4q36 0 82 28z" />
    <glyph glyph-name="Idotaccent" unicode="&#x130;" horiz-adv-x="595" 
d="M96 1743q0 84 58.5 141.5t144.5 57.5t142.5 -57.5t56.5 -141.5q0 -85 -56.5 -143t-142.5 -58t-144.5 58t-58.5 143zM481 1450v-1450h-366v1450h366z" />
    <glyph glyph-name="dotlessi" unicode="&#x131;" horiz-adv-x="595" 
d="M481 1450v-1450h-366v1450h366z" />
    <glyph glyph-name="IJ" unicode="&#x132;" horiz-adv-x="1798" 
d="M481 1450v-1450h-366v1450h366zM602 426l346 72q14 -82 73 -123t134 -41q70 0 123 39t53 100v645h-330v332h693v-977q0 -114 -47.5 -209t-126 -156t-176.5 -94.5t-203 -33.5q-96 0 -184.5 27t-163 80t-125.5 140.5t-66 198.5z" />
    <glyph glyph-name="ij" unicode="&#x133;" horiz-adv-x="1798" 
d="M481 1450v-1450h-366v1450h366zM602 426l346 72q14 -82 73 -123t134 -41q70 0 123 39t53 100v645h-330v332h693v-977q0 -114 -47.5 -209t-126 -156t-176.5 -94.5t-203 -33.5q-96 0 -184.5 27t-163 80t-125.5 140.5t-66 198.5z" />
    <glyph glyph-name="Kcommaaccent" unicode="&#x136;" horiz-adv-x="1310" 
d="M483 913l394 537h456l-573 -700l571 -750h-465l-370 518l-13 -16v-502h-368v1450h368v-537zM895 -102l-154 -418h-333l124 418h363z" />
    <glyph glyph-name="kcommaaccent" unicode="&#x137;" horiz-adv-x="1310" 
d="M483 913l394 537h456l-573 -700l571 -750h-465l-370 518l-13 -16v-502h-368v1450h368v-537zM895 -102l-154 -418h-333l124 418h363z" />
    <glyph glyph-name="Lacute" unicode="&#x139;" horiz-adv-x="1103" 
d="M678 1888l-268 -340h-318l205 340h381zM115 0v1450h368v-1088h590v-362h-958z" />
    <glyph glyph-name="lacute" unicode="&#x13a;" horiz-adv-x="1103" 
d="M678 1888l-268 -340h-318l205 340h381zM115 0v1450h368v-1088h590v-362h-958z" />
    <glyph glyph-name="Lcommaaccent" unicode="&#x13b;" horiz-adv-x="1103" 
d="M115 0v1450h368v-1088h590v-362h-958zM831 -102l-153 -418h-334l125 418h362z" />
    <glyph glyph-name="lcommaaccent" unicode="&#x13c;" horiz-adv-x="1103" 
d="M115 0v1450h368v-1088h590v-362h-958zM831 -102l-153 -418h-334l125 418h362z" />
    <glyph glyph-name="Lcaron" unicode="&#x13d;" horiz-adv-x="1124" 
d="M115 0v1450h368v-1088h590v-362h-958zM1114 1442l-153 -418h-314l125 418h342z" />
    <glyph glyph-name="lcaron" unicode="&#x13e;" horiz-adv-x="1124" 
d="M115 0v1450h368v-1088h590v-362h-958zM1114 1442l-153 -418h-314l125 418h342z" />
    <glyph glyph-name="Ldot" unicode="&#x13f;" horiz-adv-x="1122" 
d="M115 0v1450h368v-1088h590v-362h-958zM600 778q0 84 56 141.5t143 57.5q83 0 137.5 -57.5t54.5 -141.5q0 -82 -54.5 -137t-137.5 -55q-87 0 -143 55t-56 137z" />
    <glyph glyph-name="ldot" unicode="&#x140;" horiz-adv-x="1122" 
d="M115 0v1450h368v-1088h590v-362h-958zM600 778q0 84 56 141.5t143 57.5q83 0 137.5 -57.5t54.5 -141.5q0 -82 -54.5 -137t-137.5 -55q-87 0 -143 55t-56 137z" />
    <glyph glyph-name="Lslash" unicode="&#x141;" horiz-adv-x="1167" 
d="M1110 373v-373h-932v526l-84 -34l-92 231l176 74v653h371v-496l264 109l96 -229l-360 -150v-311h561z" />
    <glyph glyph-name="lslash" unicode="&#x142;" horiz-adv-x="1167" 
d="M1110 373v-373h-932v526l-84 -34l-92 231l176 74v653h371v-496l264 109l96 -229l-360 -150v-311h561z" />
    <glyph glyph-name="Nacute" unicode="&#x143;" horiz-adv-x="1384" 
d="M1071 1888l-268 -340h-318l205 340h381zM115 0v1450h348l350 -619l123 -290l10 2q-1 0 -20.5 125t-20.5 125v657h365v-1450h-371l-328 571l-127 291l-10 -2l47 -280v-580h-366z" />
    <glyph glyph-name="nacute" unicode="&#x144;" horiz-adv-x="1384" 
d="M1071 1888l-268 -340h-318l205 340h381zM115 0v1450h348l350 -619l123 -290l10 2q-1 0 -20.5 125t-20.5 125v657h365v-1450h-371l-328 571l-127 291l-10 -2l47 -280v-580h-366z" />
    <glyph glyph-name="Ncommaaccent" unicode="&#x145;" horiz-adv-x="1384" 
d="M115 0v1450h348l350 -619l123 -290l10 2q-1 0 -20.5 125t-20.5 125v657h365v-1450h-371l-328 571l-127 291l-10 -2l47 -280v-580h-366zM932 -102l-154 -418h-334l125 418h363z" />
    <glyph glyph-name="ncommaaccent" unicode="&#x146;" horiz-adv-x="1384" 
d="M115 0v1450h348l350 -619l123 -290l10 2q-1 0 -20.5 125t-20.5 125v657h365v-1450h-371l-328 571l-127 291l-10 -2l47 -280v-580h-366zM932 -102l-154 -418h-334l125 418h363z" />
    <glyph glyph-name="Ncaron" unicode="&#x147;" horiz-adv-x="1384" 
d="M268 1892h344l84 -106l95 106h342l-308 -344h-250zM115 0v1450h348l350 -619l123 -290l10 2q-1 0 -20.5 125t-20.5 125v657h365v-1450h-371l-328 571l-127 291l-10 -2l47 -280v-580h-366z" />
    <glyph glyph-name="ncaron" unicode="&#x148;" horiz-adv-x="1384" 
d="M268 1892h344l84 -106l95 106h342l-308 -344h-250zM115 0v1450h348l350 -619l123 -290l10 2q-1 0 -20.5 125t-20.5 125v657h365v-1450h-371l-328 571l-127 291l-10 -2l47 -280v-580h-366z" />
    <glyph glyph-name="Eng" unicode="&#x14a;" horiz-adv-x="1384" 
d="M1270 1450v-1460q0 -153 -66 -258t-180.5 -143t-255.5 -1v301q71 -17 113.5 17.5t42.5 87.5v20l-353 557l-127 291l-8 -2l45 -280v-580h-366v1450h348l350 -602l123 -291l6 2q-1 0 -18.5 125t-18.5 125v641h365z" />
    <glyph glyph-name="eng" unicode="&#x14b;" horiz-adv-x="1384" 
d="M1270 1450v-1460q0 -153 -66 -258t-180.5 -143t-255.5 -1v301q71 -17 113.5 17.5t42.5 87.5v20l-353 557l-127 291l-8 -2l45 -280v-580h-366v1450h348l350 -602l123 -291l6 2q-1 0 -18.5 125t-18.5 125v641h365z" />
    <glyph glyph-name="Omacron" unicode="&#x14c;" horiz-adv-x="1361" 
d="M373 1556v275h608v-275h-608zM80 477v496q0 97 33.5 179.5t91 140t134.5 98t163 60t178 19.5t178.5 -19.5t163.5 -60t135 -98.5t91.5 -140t33.5 -179v-496q0 -97 -33.5 -179t-91 -140t-134.5 -98.5t-163 -60t-178 -19.5t-178.5 19.5t-163.5 60t-135 98.5t-91.5 140
t-33.5 179zM446 973v-496q0 -75 70 -116.5t166 -41.5q95 0 164 42t69 116v496q0 54 -35.5 92t-88.5 55t-115 17q-92 0 -161 -44.5t-69 -119.5z" />
    <glyph glyph-name="omacron" unicode="&#x14d;" horiz-adv-x="1361" 
d="M373 1556v275h608v-275h-608zM80 477v496q0 97 33.5 179.5t91 140t134.5 98t163 60t178 19.5t178.5 -19.5t163.5 -60t135 -98.5t91.5 -140t33.5 -179v-496q0 -97 -33.5 -179t-91 -140t-134.5 -98.5t-163 -60t-178 -19.5t-178.5 19.5t-163.5 60t-135 98.5t-91.5 140
t-33.5 179zM446 973v-496q0 -75 70 -116.5t166 -41.5q95 0 164 42t69 116v496q0 54 -35.5 92t-88.5 55t-115 17q-92 0 -161 -44.5t-69 -119.5z" />
    <glyph glyph-name="Ohungarumlaut" unicode="&#x150;" horiz-adv-x="1361" 
d="M799 1876l-228 -324h-288l153 324h363zM1274 1876l-240 -324h-286l151 324h375zM80 477v496q0 97 33.5 179.5t91 140t134.5 98t163 60t178 19.5t178.5 -19.5t163.5 -60t135 -98.5t91.5 -140t33.5 -179v-496q0 -97 -33.5 -179t-91 -140t-134.5 -98.5t-163 -60t-178 -19.5
t-178.5 19.5t-163.5 60t-135 98.5t-91.5 140t-33.5 179zM446 973v-496q0 -75 70 -116.5t166 -41.5q95 0 164 42t69 116v496q0 54 -35.5 92t-88.5 55t-115 17q-92 0 -161 -44.5t-69 -119.5z" />
    <glyph glyph-name="ohungarumlaut" unicode="&#x151;" horiz-adv-x="1361" 
d="M799 1876l-228 -324h-288l153 324h363zM1274 1876l-240 -324h-286l151 324h375zM80 477v496q0 97 33.5 179.5t91 140t134.5 98t163 60t178 19.5t178.5 -19.5t163.5 -60t135 -98.5t91.5 -140t33.5 -179v-496q0 -97 -33.5 -179t-91 -140t-134.5 -98.5t-163 -60t-178 -19.5
t-178.5 19.5t-163.5 60t-135 98.5t-91.5 140t-33.5 179zM446 973v-496q0 -75 70 -116.5t166 -41.5q95 0 164 42t69 116v496q0 54 -35.5 92t-88.5 55t-115 17q-92 0 -161 -44.5t-69 -119.5z" />
    <glyph glyph-name="OE" unicode="&#x152;" horiz-adv-x="1662" 
d="M1096 1104v-215h434v-334h-434v-211h487v-344h-801v66q-110 -86 -250 -86q-214 0 -330 124t-116 330v570q0 206 127.5 336t306.5 130q142 0 262 -71v51h801v-346h-487zM782 350v754q-59 48 -137 51.5t-134 -39t-56 -115.5v-534q0 -87 51 -129.5t125 -42.5q47 0 89 15
t62 40z" />
    <glyph glyph-name="oe" unicode="&#x153;" horiz-adv-x="1662" 
d="M1096 1104v-215h434v-334h-434v-211h487v-344h-801v66q-110 -86 -250 -86q-214 0 -330 124t-116 330v570q0 206 127.5 336t306.5 130q142 0 262 -71v51h801v-346h-487zM782 350v754q-59 48 -137 51.5t-134 -39t-56 -115.5v-534q0 -87 51 -129.5t125 -42.5q47 0 89 15
t62 40z" />
    <glyph glyph-name="Racute" unicode="&#x154;" horiz-adv-x="1323" 
d="M1004 1888l-269 -340h-317l205 340h381zM887 0l-336 461h-66v-461h-370v1450h579q115 0 209.5 -27.5t168.5 -83t116 -149t45 -217.5q0 -196 -74.5 -314t-210.5 -161l395 -498h-456zM485 776h215q55 0 95.5 24.5t59 61.5t18.5 80t-18.5 80t-59 61.5t-95.5 24.5h-215v-332z
" />
    <glyph glyph-name="racute" unicode="&#x155;" horiz-adv-x="1323" 
d="M1004 1888l-269 -340h-317l205 340h381zM887 0l-336 461h-66v-461h-370v1450h579q115 0 209.5 -27.5t168.5 -83t116 -149t45 -217.5q0 -196 -74.5 -314t-210.5 -161l395 -498h-456zM485 776h215q55 0 95.5 24.5t59 61.5t18.5 80t-18.5 80t-59 61.5t-95.5 24.5h-215v-332z
" />
    <glyph glyph-name="Rcommaaccent" unicode="&#x156;" horiz-adv-x="1323" 
d="M887 0l-336 461h-66v-461h-370v1450h579q115 0 209.5 -27.5t168.5 -83t116 -149t45 -217.5q0 -196 -74.5 -314t-210.5 -161l395 -498h-456zM485 776h215q55 0 95.5 24.5t59 61.5t18.5 80t-18.5 80t-59 61.5t-95.5 24.5h-215v-332zM907 -102l-153 -418h-334l125 418h362z
" />
    <glyph glyph-name="rcommaaccent" unicode="&#x157;" horiz-adv-x="1323" 
d="M887 0l-336 461h-66v-461h-370v1450h579q115 0 209.5 -27.5t168.5 -83t116 -149t45 -217.5q0 -196 -74.5 -314t-210.5 -161l395 -498h-456zM485 776h215q55 0 95.5 24.5t59 61.5t18.5 80t-18.5 80t-59 61.5t-95.5 24.5h-215v-332zM907 -102l-153 -418h-334l125 418h362z
" />
    <glyph glyph-name="Rcaron" unicode="&#x158;" horiz-adv-x="1323" 
d="M201 1892h344l84 -106l94 106h342l-307 -344h-250zM887 0l-336 461h-66v-461h-370v1450h579q115 0 209.5 -27.5t168.5 -83t116 -149t45 -217.5q0 -196 -74.5 -314t-210.5 -161l395 -498h-456zM485 776h215q55 0 95.5 24.5t59 61.5t18.5 80t-18.5 80t-59 61.5t-95.5 24.5
h-215v-332z" />
    <glyph glyph-name="rcaron" unicode="&#x159;" horiz-adv-x="1323" 
d="M201 1892h344l84 -106l94 106h342l-307 -344h-250zM887 0l-336 461h-66v-461h-370v1450h579q115 0 209.5 -27.5t168.5 -83t116 -149t45 -217.5q0 -196 -74.5 -314t-210.5 -161l395 -498h-456zM485 776h215q55 0 95.5 24.5t59 61.5t18.5 80t-18.5 80t-59 61.5t-95.5 24.5
h-215v-332z" />
    <glyph glyph-name="Sacute" unicode="&#x15a;" horiz-adv-x="1155" 
d="M956 1888l-268 -340h-317l204 340h381zM45 242l231 217q42 -51 104 -85.5t124 -45.5t117.5 -5.5t91.5 34t39 73.5q2 39 -36.5 70.5t-92.5 48.5t-119 26q-90 14 -168.5 49.5t-142 91t-100 138t-36.5 182.5q0 103 44.5 187.5t118.5 137t167.5 81t194.5 28.5
q145 0 267.5 -51.5t227.5 -179.5l-239 -184q-55 59 -128.5 89.5t-136 28.5t-107 -36t-46.5 -95q5 -94 192 -135q61 -11 110 -23.5t104 -33t96.5 -45.5t80 -62.5t62.5 -83.5t37 -108.5t10 -136.5q-3 -82 -38.5 -153t-92 -121.5t-129.5 -87t-152.5 -54.5t-160.5 -18
q-134 0 -264.5 67.5t-229.5 194.5z" />
    <glyph glyph-name="sacute" unicode="&#x15b;" horiz-adv-x="1155" 
d="M956 1888l-268 -340h-317l204 340h381zM45 242l231 217q42 -51 104 -85.5t124 -45.5t117.5 -5.5t91.5 34t39 73.5q2 39 -36.5 70.5t-92.5 48.5t-119 26q-90 14 -168.5 49.5t-142 91t-100 138t-36.5 182.5q0 103 44.5 187.5t118.5 137t167.5 81t194.5 28.5
q145 0 267.5 -51.5t227.5 -179.5l-239 -184q-55 59 -128.5 89.5t-136 28.5t-107 -36t-46.5 -95q5 -94 192 -135q61 -11 110 -23.5t104 -33t96.5 -45.5t80 -62.5t62.5 -83.5t37 -108.5t10 -136.5q-3 -82 -38.5 -153t-92 -121.5t-129.5 -87t-152.5 -54.5t-160.5 -18
q-134 0 -264.5 67.5t-229.5 194.5z" />
    <glyph glyph-name="Scedilla" unicode="&#x15e;" horiz-adv-x="1155" 
d="M612 907q61 -11 110 -23.5t104 -33t96.5 -45.5t80 -62.5t62.5 -83.5t37 -108.5t10 -136.5q-7 -156 -119 -263.5t-278 -148.5l-29 -65q57 -15 94.5 -48t50.5 -74.5t11 -87.5t-26 -90t-59 -79t-89 -56.5t-115 -21.5q-173 0 -299 104l65 176q47 -32 94.5 -49t86 -11t47.5 42
q11 36 -34 68t-122 38l62 138q-113 19 -219 84.5t-189 171.5l231 217q42 -51 104 -85.5t124 -45.5t117.5 -5.5t91.5 34t39 73.5q2 39 -36.5 70.5t-92.5 48.5t-119 26q-90 14 -168.5 49.5t-142 91t-100 138t-36.5 182.5q0 103 44.5 187.5t118.5 137t167.5 81t194.5 28.5
q145 0 267.5 -51.5t227.5 -179.5l-239 -184q-55 59 -128.5 89.5t-136 28.5t-107 -36t-46.5 -95q5 -94 192 -135z" />
    <glyph glyph-name="scedilla" unicode="&#x15f;" horiz-adv-x="1155" 
d="M612 907q61 -11 110 -23.5t104 -33t96.5 -45.5t80 -62.5t62.5 -83.5t37 -108.5t10 -136.5q-7 -156 -119 -263.5t-278 -148.5l-29 -65q57 -15 94.5 -48t50.5 -74.5t11 -87.5t-26 -90t-59 -79t-89 -56.5t-115 -21.5q-173 0 -299 104l65 176q47 -32 94.5 -49t86 -11t47.5 42
q11 36 -34 68t-122 38l62 138q-113 19 -219 84.5t-189 171.5l231 217q42 -51 104 -85.5t124 -45.5t117.5 -5.5t91.5 34t39 73.5q2 39 -36.5 70.5t-92.5 48.5t-119 26q-90 14 -168.5 49.5t-142 91t-100 138t-36.5 182.5q0 103 44.5 187.5t118.5 137t167.5 81t194.5 28.5
q145 0 267.5 -51.5t227.5 -179.5l-239 -184q-55 59 -128.5 89.5t-136 28.5t-107 -36t-46.5 -95q5 -94 192 -135z" />
    <glyph glyph-name="Scaron" unicode="&#x160;" horiz-adv-x="1155" 
d="M154 1892h344l84 -106l94 106h342l-307 -344h-250zM45 242l231 217q42 -51 104 -85.5t124 -45.5t117.5 -5.5t91.5 34t39 73.5q2 39 -36.5 70.5t-92.5 48.5t-119 26q-90 14 -168.5 49.5t-142 91t-100 138t-36.5 182.5q0 103 44.5 187.5t118.5 137t167.5 81t194.5 28.5
q145 0 267.5 -51.5t227.5 -179.5l-239 -184q-55 59 -128.5 89.5t-136 28.5t-107 -36t-46.5 -95q5 -94 192 -135q61 -11 110 -23.5t104 -33t96.5 -45.5t80 -62.5t62.5 -83.5t37 -108.5t10 -136.5q-3 -82 -38.5 -153t-92 -121.5t-129.5 -87t-152.5 -54.5t-160.5 -18
q-134 0 -264.5 67.5t-229.5 194.5z" />
    <glyph glyph-name="scaron" unicode="&#x161;" horiz-adv-x="1155" 
d="M154 1892h344l84 -106l94 106h342l-307 -344h-250zM45 242l231 217q42 -51 104 -85.5t124 -45.5t117.5 -5.5t91.5 34t39 73.5q2 39 -36.5 70.5t-92.5 48.5t-119 26q-90 14 -168.5 49.5t-142 91t-100 138t-36.5 182.5q0 103 44.5 187.5t118.5 137t167.5 81t194.5 28.5
q145 0 267.5 -51.5t227.5 -179.5l-239 -184q-55 59 -128.5 89.5t-136 28.5t-107 -36t-46.5 -95q5 -94 192 -135q61 -11 110 -23.5t104 -33t96.5 -45.5t80 -62.5t62.5 -83.5t37 -108.5t10 -136.5q-3 -82 -38.5 -153t-92 -121.5t-129.5 -87t-152.5 -54.5t-160.5 -18
q-134 0 -264.5 67.5t-229.5 194.5z" />
    <glyph glyph-name="Tcommaaccent" unicode="&#x162;" horiz-adv-x="1198" 
d="M1169 1104h-385v-1104h-370v1104h-385v348h1140v-348zM831 -102l-153 -418h-334l125 418h362z" />
    <glyph glyph-name="tcommaaccent" unicode="&#x163;" horiz-adv-x="1198" 
d="M1169 1104h-385v-1104h-370v1104h-385v348h1140v-348zM831 -102l-153 -418h-334l125 418h362z" />
    <glyph glyph-name="Tcaron" unicode="&#x164;" horiz-adv-x="1198" 
d="M162 1892h344l84 -106l94 106h342l-307 -344h-250zM1169 1104h-385v-1104h-370v1104h-385v348h1140v-348z" />
    <glyph glyph-name="tcaron" unicode="&#x165;" horiz-adv-x="1198" 
d="M162 1892h344l84 -106l94 106h342l-307 -344h-250zM1169 1104h-385v-1104h-370v1104h-385v348h1140v-348z" />
    <glyph glyph-name="Tbar" unicode="&#x166;" horiz-adv-x="1206" 
d="M788 707h156v-275h-156v-432h-370v432h-164v275h164v397h-385v348h1141v-348h-386v-397z" />
    <glyph glyph-name="tbar" unicode="&#x167;" horiz-adv-x="1206" 
d="M788 707h156v-275h-156v-432h-370v432h-164v275h164v397h-385v348h1141v-348h-386v-397z" />
    <glyph glyph-name="Umacron" unicode="&#x16a;" horiz-adv-x="1366" 
d="M379 1552v275h608v-275h-608zM477 1450v-965q0 -48 23 -85.5t59.5 -57t80.5 -28.5t88.5 0t81 28.5t60 57t23.5 85.5v965h371v-965q0 -140 -64.5 -250t-166.5 -166.5t-226 -83t-247 0t-225 83t-165.5 166.5t-63.5 250v965h371z" />
    <glyph glyph-name="umacron" unicode="&#x16b;" horiz-adv-x="1366" 
d="M379 1552v275h608v-275h-608zM477 1450v-965q0 -48 23 -85.5t59.5 -57t80.5 -28.5t88.5 0t81 28.5t60 57t23.5 85.5v965h371v-965q0 -140 -64.5 -250t-166.5 -166.5t-226 -83t-247 0t-225 83t-165.5 166.5t-63.5 250v965h371z" />
    <glyph glyph-name="Uring" unicode="&#x16e;" horiz-adv-x="1366" 
d="M416 1743q0 102 79.5 173t192.5 71q111 0 188.5 -73.5t77.5 -170.5q0 -99 -78.5 -169.5t-187.5 -70.5q-113 0 -192.5 69t-79.5 171zM762 1741q0 30 -22 53t-52 23q-35 0 -56.5 -22.5t-21.5 -53.5q0 -25 21.5 -46.5t56.5 -21.5q32 0 53 18.5t21 49.5zM477 1450v-965
q0 -48 23 -85.5t59.5 -57t80.5 -28.5t88.5 0t81 28.5t60 57t23.5 85.5v965h371v-965q0 -140 -64.5 -250t-166.5 -166.5t-226 -83t-247 0t-225 83t-165.5 166.5t-63.5 250v965h371z" />
    <glyph glyph-name="uring" unicode="&#x16f;" horiz-adv-x="1366" 
d="M416 1743q0 102 79.5 173t192.5 71q111 0 188.5 -73.5t77.5 -170.5q0 -99 -78.5 -169.5t-187.5 -70.5q-113 0 -192.5 69t-79.5 171zM762 1741q0 30 -22 53t-52 23q-35 0 -56.5 -22.5t-21.5 -53.5q0 -25 21.5 -46.5t56.5 -21.5q32 0 53 18.5t21 49.5zM477 1450v-965
q0 -48 23 -85.5t59.5 -57t80.5 -28.5t88.5 0t81 28.5t60 57t23.5 85.5v965h371v-965q0 -140 -64.5 -250t-166.5 -166.5t-226 -83t-247 0t-225 83t-165.5 166.5t-63.5 250v965h371z" />
    <glyph glyph-name="Uhungarumlaut" unicode="&#x170;" horiz-adv-x="1366" 
d="M805 1872l-227 -324h-289l153 324h363zM1280 1872l-240 -324h-286l151 324h375zM477 1450v-965q0 -48 23 -85.5t59.5 -57t80.5 -28.5t88.5 0t81 28.5t60 57t23.5 85.5v965h371v-965q0 -140 -64.5 -250t-166.5 -166.5t-226 -83t-247 0t-225 83t-165.5 166.5t-63.5 250v965
h371z" />
    <glyph glyph-name="uhungarumlaut" unicode="&#x171;" horiz-adv-x="1366" 
d="M805 1872l-227 -324h-289l153 324h363zM1280 1872l-240 -324h-286l151 324h375zM477 1450v-965q0 -48 23 -85.5t59.5 -57t80.5 -28.5t88.5 0t81 28.5t60 57t23.5 85.5v965h371v-965q0 -140 -64.5 -250t-166.5 -166.5t-226 -83t-247 0t-225 83t-165.5 166.5t-63.5 250v965
h371z" />
    <glyph glyph-name="Uogonek" unicode="&#x172;" horiz-adv-x="1366" 
d="M1262 1450v-965q0 -150 -71 -260.5t-192 -173.5q-89 -65 -111 -159q-18 -72 16 -105q15 -15 38 -14q36 0 82 28l57 -219q-50 -41 -113.5 -61.5t-121.5 -20.5q-99 0 -166 39t-90.5 103.5t-1.5 152.5t92 180q-88 0 -171 20t-156.5 62t-129 101.5t-87.5 143.5t-32 183v965
h371v-965q0 -48 23 -85.5t59.5 -57t80.5 -28.5t88.5 0t81 28.5t60 57t23.5 85.5v965h371z" />
    <glyph glyph-name="uogonek" unicode="&#x173;" horiz-adv-x="1366" 
d="M1262 1450v-965q0 -150 -71 -260.5t-192 -173.5q-89 -65 -111 -159q-18 -72 16 -105q15 -15 38 -14q36 0 82 28l57 -219q-50 -41 -113.5 -61.5t-121.5 -20.5q-99 0 -166 39t-90.5 103.5t-1.5 152.5t92 180q-88 0 -171 20t-156.5 62t-129 101.5t-87.5 143.5t-32 183v965
h371v-965q0 -48 23 -85.5t59.5 -57t80.5 -28.5t88.5 0t81 28.5t60 57t23.5 85.5v965h371z" />
    <glyph glyph-name="Wcircumflex" unicode="&#x174;" horiz-adv-x="1873" 
d="M1063 1892l307 -344h-332l-94 107l-90 -107h-346l315 344h240zM1319 752l176 698h379l-418 -1450h-340l-129 401l-51 332h-6l-56 -330l-114 -403h-340l-420 1450h381l172 -694l37 -307h10l35 305l162 508h278l150 -510l47 -303h6z" />
    <glyph glyph-name="wcircumflex" unicode="&#x175;" horiz-adv-x="1873" 
d="M1063 1892l307 -344h-332l-94 107l-90 -107h-346l315 344h240zM1319 752l176 698h379l-418 -1450h-340l-129 401l-51 332h-6l-56 -330l-114 -403h-340l-420 1450h381l172 -694l37 -307h10l35 305l162 508h278l150 -510l47 -303h6z" />
    <glyph glyph-name="Ycircumflex" unicode="&#x176;" horiz-adv-x="1341" 
d="M782 1892l308 -344h-332l-94 107l-91 -107h-346l316 344h239zM854 0h-367v571l-505 879h426l262 -532l262 532h430l-508 -879v-571z" />
    <glyph glyph-name="ycircumflex" unicode="&#x177;" horiz-adv-x="1341" 
d="M782 1892l308 -344h-332l-94 107l-91 -107h-346l316 344h239zM854 0h-367v571l-505 879h426l262 -532l262 532h430l-508 -879v-571z" />
    <glyph glyph-name="Ydieresis" unicode="&#x178;" horiz-adv-x="1341" 
d="M244 1708q0 73 50 123.5t122 50.5t122 -50.5t50 -123.5q0 -71 -50 -120.5t-122 -49.5t-122 49.5t-50 120.5zM737 1708q0 74 49 124t123 50q73 0 123.5 -50t50.5 -124q0 -71 -50.5 -120.5t-123.5 -49.5q-74 0 -123 49.5t-49 120.5zM854 0h-367v571l-505 879h426l262 -532
l262 532h430l-508 -879v-571z" />
    <glyph glyph-name="Zacute" unicode="&#x179;" horiz-adv-x="1239" 
d="M1012 1888l-269 -340h-317l205 340h381zM74 1450h1054l78 -123l-624 -993l589 4v-338h-1075l-67 135l626 975h-581v340z" />
    <glyph glyph-name="zacute" unicode="&#x17a;" horiz-adv-x="1239" 
d="M1012 1888l-269 -340h-317l205 340h381zM74 1450h1054l78 -123l-624 -993l589 4v-338h-1075l-67 135l626 975h-581v340z" />
    <glyph glyph-name="Zdotaccent" unicode="&#x17b;" horiz-adv-x="1239" 
d="M434 1743q0 84 58.5 141.5t144.5 57.5t142.5 -57.5t56.5 -141.5q0 -85 -56.5 -143t-142.5 -58t-144.5 58t-58.5 143zM74 1450h1054l78 -123l-624 -993l589 4v-338h-1075l-67 135l626 975h-581v340z" />
    <glyph glyph-name="zdotaccent" unicode="&#x17c;" horiz-adv-x="1239" 
d="M434 1743q0 84 58.5 141.5t144.5 57.5t142.5 -57.5t56.5 -141.5q0 -85 -56.5 -143t-142.5 -58t-144.5 58t-58.5 143zM74 1450h1054l78 -123l-624 -993l589 4v-338h-1075l-67 135l626 975h-581v340z" />
    <glyph glyph-name="Zcaron" unicode="&#x17d;" horiz-adv-x="1239" 
d="M209 1892h344l84 -106l94 106h342l-307 -344h-250zM74 1450h1054l78 -123l-624 -993l589 4v-338h-1075l-67 135l626 975h-581v340z" />
    <glyph glyph-name="zcaron" unicode="&#x17e;" horiz-adv-x="1239" 
d="M209 1892h344l84 -106l94 106h342l-307 -344h-250zM74 1450h1054l78 -123l-624 -993l589 4v-338h-1075l-67 135l626 975h-581v340z" />
    <glyph glyph-name="florin" unicode="&#x192;" horiz-adv-x="1044" 
d="M23 -170l83 252q114 -57 134 59l92 482h-146v299h201l43 196q17 106 77 189t141.5 124t183 28.5t194.5 -87.5l-115 -221q-109 45 -131 -70l-37 -159h144v-299h-197l-100 -551q-19 -102 -76 -174t-134 -103t-171 -23t-186 58z" />
    <glyph glyph-name="Scommaaccent" unicode="&#x218;" horiz-adv-x="1155" 
d="M45 242l231 217q42 -51 104 -85.5t124 -45.5t117.5 -5.5t91.5 34t39 73.5q2 39 -36.5 70.5t-92.5 48.5t-119 26q-90 14 -168.5 49.5t-142 91t-100 138t-36.5 182.5q0 103 44.5 187.5t118.5 137t167.5 81t194.5 28.5q145 0 267.5 -51.5t227.5 -179.5l-239 -184
q-55 59 -128.5 89.5t-136 28.5t-107 -36t-46.5 -95q5 -94 192 -135q61 -11 110 -23.5t104 -33t96.5 -45.5t80 -62.5t62.5 -83.5t37 -108.5t10 -136.5q-3 -82 -38.5 -153t-92 -121.5t-129.5 -87t-152.5 -54.5t-160.5 -18q-134 0 -264.5 67.5t-229.5 194.5zM778 -102
l-153 -418h-334l125 418h362z" />
    <glyph glyph-name="scommaaccent" unicode="&#x219;" horiz-adv-x="1155" 
d="M45 242l231 217q42 -51 104 -85.5t124 -45.5t117.5 -5.5t91.5 34t39 73.5q2 39 -36.5 70.5t-92.5 48.5t-119 26q-90 14 -168.5 49.5t-142 91t-100 138t-36.5 182.5q0 103 44.5 187.5t118.5 137t167.5 81t194.5 28.5q145 0 267.5 -51.5t227.5 -179.5l-239 -184
q-55 59 -128.5 89.5t-136 28.5t-107 -36t-46.5 -95q5 -94 192 -135q61 -11 110 -23.5t104 -33t96.5 -45.5t80 -62.5t62.5 -83.5t37 -108.5t10 -136.5q-3 -82 -38.5 -153t-92 -121.5t-129.5 -87t-152.5 -54.5t-160.5 -18q-134 0 -264.5 67.5t-229.5 194.5zM778 -102
l-153 -418h-334l125 418h362z" />
    <glyph glyph-name="uni021A" unicode="&#x21a;" horiz-adv-x="1198" 
d="M1169 1104h-385v-1104h-370v1104h-385v348h1140v-348zM831 -102l-153 -418h-334l125 418h362z" />
    <glyph glyph-name="uni021B" unicode="&#x21b;" horiz-adv-x="1198" 
d="M1169 1104h-385v-1104h-370v1104h-385v348h1140v-348zM831 -102l-153 -418h-334l125 418h362z" />
    <glyph glyph-name="circumflex" unicode="&#x2c6;" horiz-adv-x="1026" 
d="M637 1892l307 -344h-332l-94 107l-90 -107h-346l315 344h240z" />
    <glyph glyph-name="caron" unicode="&#x2c7;" horiz-adv-x="903" 
d="M29 1892h344l84 -106l94 106h342l-307 -344h-250z" />
    <glyph glyph-name="uni02C9" unicode="&#x2c9;" horiz-adv-x="675" 
d="M102 1552v275h609v-275h-609z" />
    <glyph glyph-name="breve" unicode="&#x2d8;" horiz-adv-x="921" 
d="M543 1888h276q0 -86 -31 -155.5t-81 -112t-114.5 -66t-132 -23.5t-132 23.5t-114.5 66t-81 112t-31 155.5h281q0 -37 25 -58t55 -21t55 21t25 58z" />
    <glyph glyph-name="dotaccent" unicode="&#x2d9;" horiz-adv-x="606" 
d="M102 1743q0 84 58.5 141.5t144.5 57.5t142.5 -57.5t56.5 -141.5q0 -85 -56.5 -143t-142.5 -58t-144.5 58t-58.5 143z" />
    <glyph glyph-name="ring" unicode="&#x2da;" horiz-adv-x="735" 
d="M98 1784q0 108 80 183t193 75q110 0 188 -78.5t78 -181.5q0 -104 -78.5 -179t-187.5 -75q-114 0 -193.5 73.5t-79.5 182.5zM444 1780q0 33 -21.5 57.5t-51.5 24.5q-35 0 -56.5 -24t-21.5 -58q0 -26 22 -49t56 -23q32 0 52.5 19.5t20.5 52.5z" />
    <glyph glyph-name="ogonek" unicode="&#x2db;" horiz-adv-x="778" 
d="M565 23l10 -23q-92 -90 -98 -164q-4 -54 43 -62q8 -1 17 -1q35 0 81 28l58 -219q-50 -40 -114 -61t-122 -21q-106 0 -173.5 44t-86.5 115.5t15 168.5t122 195h248z" />
    <glyph glyph-name="tilde" unicode="&#x2dc;" horiz-adv-x="952" 
d="M281 1526l-179 100q23 123 89 184t171 58q32 -1 71 -16.5t69.5 -31t61 -24.5t56 5.5t44.5 58.5l186 -107q-29 -114 -83.5 -173t-129.5 -58q-43 0 -91 16t-82.5 31.5t-68.5 24t-62.5 -7t-51.5 -60.5z" />
    <glyph glyph-name="hungarumlaut" unicode="&#x2dd;" horiz-adv-x="1093" 
d="M618 1872l-227 -324h-289l154 324h362zM1094 1872l-240 -324h-287l152 324h375z" />
    <glyph glyph-name="uni0326" unicode="&#x326;" horiz-adv-x="0" 
d="M821 -102l-153 -418h-334l125 418h362z" />
    <glyph glyph-name="uni03A9" unicode="&#x3a9;" horiz-adv-x="1589" 
d="M82 360h133q-123 159 -123 406q0 134 39 248t106 194t156.5 136t190.5 83t207 27q107 0 209.5 -27.5t193.5 -84.5t159 -136.5t108 -191t40 -240.5q0 -118 -33.5 -226.5t-95.5 -187.5h131v-360h-682v289q330 105 330 452q0 71 -22.5 135t-65.5 115t-113.5 81t-158.5 30
q-110 0 -191.5 -54.5t-120.5 -138.5t-39 -184q0 -96 34 -181t108 -154t180 -101v-289h-680v360z" />
    <glyph glyph-name="uni03BC" unicode="&#x3bc;" horiz-adv-x="1085" 
d="M690 -2l-12 78q-54 -79 -120 -77.5t-109 71.5v-422h-351v1409h351v-635q0 -38 19 -65t46 -33.5t54 -1t46 32t19 65.5v637h352l4 -1061z" />
    <glyph glyph-name="pi" unicode="&#x3c0;" horiz-adv-x="1177" 
d="M1087 266l3 -276q-100 -10 -177 4.5t-125 46.5t-78.5 81.5t-42.5 104t-12 119.5v408h-104v-754h-344v723l-129 -29l-68 258l39 35q43 28 74 43.5t84 29t115 13.5h796l-33 -319h-81v-402q0 -12 2.5 -24t9.5 -28t25.5 -25.5t45.5 -8.5z" />
    <glyph glyph-name="uni0401" unicode="&#x401;" 
d="M213 1708q0 73 50 123.5t122 50.5t122 -50.5t50 -123.5q0 -71 -50 -120.5t-122 -49.5t-122 49.5t-50 120.5zM707 1708q0 74 49 124t123 50q73 0 123.5 -50t50.5 -124q0 -71 -50.5 -120.5t-123.5 -49.5q-74 0 -123 49.5t-49 120.5zM485 1106v-225h588v-318h-588v-217h639
v-346h-1009v1450h1009v-344h-639z" />
    <glyph glyph-name="uni0410" unicode="&#x410;" horiz-adv-x="1327" 
d="M827 1450l519 -1450h-394l-94 291h-387l-90 -291h-393l506 1450h333zM553 616h217l-100 424h-11z" />
    <glyph glyph-name="uni0411" unicode="&#x411;" horiz-adv-x="1261" 
d="M1225 473q0 -218 -138.5 -345.5t-379.5 -127.5h-592v1450h991v-307h-623v-225h213q120 0 210 -19t150.5 -54t98 -90.5t54 -124t16.5 -157.5zM483 322h213q89 0 127.5 44t38.5 126q0 159 -168 159h-211v-329z" />
    <glyph glyph-name="uni0412" unicode="&#x412;" horiz-adv-x="1282" 
d="M1167 1008q-2 -60 -40 -130t-109 -106q57 -29 99.5 -69t64 -82t34.5 -87.5t11.5 -84.5t-4.5 -74q-60 -375 -516 -375h-592v1450h581q138 0 246 -52t168.5 -153.5t56.5 -236.5zM483 883h213q43 0 74.5 19t46 48t15 62t-13.5 62t-46 48t-76 19h-213v-258zM483 322h213
q63 0 105.5 30.5t52.5 74t-0.5 87t-53 74t-104.5 30.5h-213v-296z" />
    <glyph glyph-name="uni0413" unicode="&#x413;" horiz-adv-x="1046" 
d="M115 1450h903v-348h-535v-1102h-368v1450z" />
    <glyph glyph-name="uni0414" unicode="&#x414;" horiz-adv-x="1527" 
d="M412 -291h-375v621q54 0 96 15t71 39.5t49.5 65.5t32.5 82t20 100.5t12 110.5t8 122q1 22 1.5 34t2 31t2.5 35l35 485h946v-1120h176v-621h-369v291h-708v-291zM944 330v772h-246l-30 -440q-11 -200 -62 -332h338z" />
    <glyph glyph-name="uni0415" unicode="&#x415;" 
d="M485 1106v-225h588v-318h-588v-217h639v-346h-1009v1450h1009v-344h-639z" />
    <glyph glyph-name="uni0416" unicode="&#x416;" horiz-adv-x="1941" 
d="M786 0v532l-12 17l-334 -549h-456l516 737l-518 713h442l362 -543v543h369v-543l363 543h442l-518 -713l516 -737h-457l-334 549l-12 -17v-532h-369z" />
    <glyph glyph-name="uni0417" unicode="&#x417;" horiz-adv-x="1165" 
d="M901 772q107 -54 157 -143.5t50 -194.5q0 -215 -153.5 -334.5t-428.5 -119.5q-168 0 -308 75t-222 209l233 182q61 -68 135 -106.5t142 -38.5q112 0 172.5 39.5t60.5 116.5q0 78 -49.5 122t-138.5 44h-215v251h207q82 0 128 40t46 112q0 63 -47.5 100t-137.5 37
q-70 0 -142 -32.5t-122 -69.5l-192 188q180 221 483 221q240 0 370 -110t130 -309q0 -77 -42.5 -159.5t-115.5 -119.5z" />
    <glyph glyph-name="uni0418" unicode="&#x418;" horiz-adv-x="1402" 
d="M920 0v580l36 272l-10 2l-137 -283l-348 -571h-346v1450h368v-657l-30 -218l8 -2l121 261l370 616h336v-1450h-368z" />
    <glyph glyph-name="uni0419" unicode="&#x419;" horiz-adv-x="1402" 
d="M692 1569q-72 0 -138 23t-118 66t-83 112t-31 155h284q0 -38 24.5 -61t61.5 -23t61.5 23t24.5 61h285q0 -113 -54 -196t-136.5 -121.5t-180.5 -38.5zM920 0v580l36 272l-10 2l-137 -283l-348 -571h-346v1450h368v-657l-30 -218l8 -2l121 261l370 616h336v-1450h-368z" />
    <glyph glyph-name="uni041A" unicode="&#x41a;" horiz-adv-x="1310" 
d="M483 913l394 537h456l-573 -713l571 -737h-461l-374 518l-13 -16v-502h-368v1450h368v-537z" />
    <glyph glyph-name="uni041B" unicode="&#x41b;" horiz-adv-x="1452" 
d="M700 1102l-24 -440q-6 -107 -28 -203t-70 -188t-118 -155.5t-179 -96.5t-246 -19v342q44 -2 80.5 5.5t63.5 21.5t48.5 40.5t35.5 51.5t25 66.5t17 74t11 84.5t7 88.5t5 95t6 95.5l35 485h968v-1450h-368v1102h-269z" />
    <glyph glyph-name="uni041C" unicode="&#x41c;" horiz-adv-x="1574" 
d="M115 0v1450h366l305 -709l308 709h366v-1450h-368l2 418l22 293l-12 2l-191 -498h-251l-195 498l-10 -2l24 -293v-418h-366z" />
    <glyph glyph-name="uni041D" unicode="&#x41d;" horiz-adv-x="1384" 
d="M483 547v-547h-368v1450h368v-549h418v549h369v-1450h-369v547h-418z" />
    <glyph glyph-name="uni041E" unicode="&#x41e;" horiz-adv-x="1361" 
d="M80 477v496q0 97 33.5 179.5t91 140t134.5 98t163 60t178 19.5t178.5 -19.5t163.5 -60t135 -98.5t91.5 -140t33.5 -179v-496q0 -97 -33.5 -179t-91 -140t-134.5 -98.5t-163 -60t-178 -19.5t-178.5 19.5t-163.5 60t-135 98.5t-91.5 140t-33.5 179zM446 973v-496
q0 -75 70 -116.5t166 -41.5q95 0 164 42t69 116v496q0 54 -35.5 92t-88.5 55t-115 17q-92 0 -161 -44.5t-69 -119.5z" />
    <glyph glyph-name="uni041F" unicode="&#x41f;" horiz-adv-x="1374" 
d="M483 1102v-1102h-368v1450h1145v-1450h-369v1102h-408z" />
    <glyph glyph-name="uni0420" unicode="&#x420;" horiz-adv-x="1265" 
d="M115 0v1450h579q103 0 190.5 -28.5t149.5 -78t105.5 -115t64.5 -139t21 -151.5q0 -99 -34 -189.5t-98.5 -164t-167 -117t-229.5 -43.5h-215v-424h-366zM481 750h213q45 0 81 19.5t54.5 51t27 70t0 77t-27 70t-54.5 51t-81 19.5h-213v-358z" />
    <glyph glyph-name="uni0421" unicode="&#x421;" horiz-adv-x="1191" 
d="M854 453l320 -148q-44 -85 -106.5 -149.5t-133 -102t-141.5 -55.5t-142 -18q-109 0 -210 31.5t-182 91.5t-130 156.5t-49 215.5v500q0 119 49 215t131 156t184 92t213 32q71 0 139 -16.5t137.5 -52.5t130.5 -103.5t103 -160.5l-299 -121q-35 64 -107 93.5t-141 22
t-121.5 -49.5t-52.5 -107v-500q0 -50 34.5 -88.5t86.5 -52.5t108 -10.5t106 38t73 91.5z" />
    <glyph glyph-name="uni0422" unicode="&#x422;" horiz-adv-x="1198" 
d="M1169 1104h-385v-1104h-370v1104h-385v348h1140v-348z" />
    <glyph glyph-name="uni0423" unicode="&#x423;" horiz-adv-x="1230" 
d="M504 1135l98 -263h10l109 283l131 295h408l-656 -1450h-395l213 469l-477 981h415z" />
    <glyph glyph-name="uni0424" unicode="&#x424;" horiz-adv-x="1646" 
d="M649 0v119q-93 0 -178 16.5t-162 53.5t-133 92t-89.5 136.5t-33.5 182.5v250q0 101 33.5 182.5t89.5 136.5t133 92t162 53.5t178 16.5v119h348v-119q93 0 178 -16.5t162 -53.5t133 -92t89.5 -136.5t33.5 -182.5v-250q0 -101 -33.5 -182.5t-89.5 -136.5t-133 -92
t-162 -53.5t-178 -16.5v-119h-348zM422 852v-254q0 -84 61.5 -115.5t165.5 -31.5v548q-104 0 -165.5 -31.5t-61.5 -115.5zM1225 598v254q0 44 -18 74.5t-52 45.5t-71.5 21t-86.5 6v-548q49 0 86.5 6t71.5 21t52 45.5t18 74.5z" />
    <glyph glyph-name="uni0425" unicode="&#x425;" horiz-adv-x="1343" 
d="M670 954l254 496h426l-406 -727l406 -723h-426l-254 494l-248 -494h-428l407 723l-407 727h428z" />
    <glyph glyph-name="uni0426" unicode="&#x426;" horiz-adv-x="1464" 
d="M115 0v1450h368v-1102h396v1102h368v-1102h176v-639h-348v291h-960z" />
    <glyph glyph-name="uni0427" unicode="&#x427;" horiz-adv-x="1308" 
d="M825 0v485q-38 -33 -110.5 -57.5t-153.5 -24.5q-98 0 -186 32t-157.5 92.5t-110.5 157t-41 216.5v549h368v-549q0 -70 41.5 -108.5t116.5 -40.5q68 0 131 17.5t100 51.5l2 629h369v-1450h-369z" />
    <glyph glyph-name="uni0428" unicode="&#x428;" horiz-adv-x="2023" 
d="M115 1450h368v-1102h344v1102h369v-1102h344v1102h369v-1450h-1794v1450z" />
    <glyph glyph-name="uni0429" unicode="&#x429;" horiz-adv-x="2125" 
d="M1540 1450h369v-1102h176v-639h-348v291h-1622v1450h368v-1102h344v1102h369v-1102h344v1102z" />
    <glyph glyph-name="uni042A" unicode="&#x42a;" horiz-adv-x="1462" 
d="M311 1102h-276v348h645v-494h217q144 0 246.5 -32t162 -94t86.5 -143.5t27 -188.5q0 -219 -138 -358.5t-374 -139.5h-596v1102zM680 322h217q45 0 77.5 15t50.5 41t26 56.5t8 67.5q0 79 -43 121.5t-119 42.5h-217v-344z" />
    <glyph glyph-name="uni042B" unicode="&#x42b;" horiz-adv-x="1873" 
d="M1223 498q0 -219 -138 -358.5t-374 -139.5h-596v1450h368v-494h217q144 0 247 -32t162.5 -94t86.5 -143.5t27 -188.5zM1759 1450v-1450h-366v1450h366zM483 322h217q45 0 77.5 15t50.5 41t26 56.5t8 67.5q0 79 -43 121.5t-119 42.5h-217v-344z" />
    <glyph glyph-name="uni042C" unicode="&#x42c;" horiz-adv-x="1265" 
d="M1223 498q0 -219 -138 -358.5t-374 -139.5h-596v1450h368v-494h217q144 0 247 -32t162.5 -94t86.5 -143.5t27 -188.5zM483 322h217q45 0 77.5 15t50.5 41t26 56.5t8 67.5q0 79 -43 121.5t-119 42.5h-217v-344z" />
    <glyph glyph-name="uni042D" unicode="&#x42d;" 
d="M756 477v103h-322v305h322v86q0 72 -61 114.5t-144 42.5q-68 0 -127 -29.5t-90 -86.5l-299 121q42 93 103 161t130 105t137.5 54t139.5 17q88 0 172 -20t157.5 -61.5t129 -100t88 -140t32.5 -177.5v-494q0 -96 -32 -178t-87.5 -140t-129 -99t-155.5 -60.5t-169 -19.5
q-71 0 -142 18.5t-141 56t-132.5 102.5t-106.5 150l319 148q26 -65 84 -96t129 -31q80 2 137.5 42t57.5 107z" />
    <glyph glyph-name="uni042E" unicode="&#x42e;" horiz-adv-x="1996" 
d="M711 899v74q0 121 51.5 218t137 156.5t192 91t221.5 31.5q92 0 178.5 -19.5t164 -60.5t135.5 -98.5t92 -139.5t34 -179v-496q0 -97 -33.5 -179t-91.5 -140t-135 -98.5t-163.5 -60t-178.5 -19.5t-178.5 19.5t-164 60.5t-135.5 98.5t-92 139.5t-34 179v86h-230v-563h-368
v1450h368v-551h230zM1079 958v-473q0 -74 69.5 -115.5t164.5 -41.5q96 0 165.5 41t69.5 116v473q0 78 -69.5 121t-165.5 43q-95 -2 -164.5 -45.5t-69.5 -118.5z" />
    <glyph glyph-name="uni042F" unicode="&#x42f;" horiz-adv-x="1323" 
d="M1208 0h-368v487h-60l-389 -487h-457l443 524q-66 23 -116 56t-92 84.5t-64.5 129.5t-22.5 179q6 228 151 352.5t398 124.5h577v-1450zM840 1102h-215q-83 0 -128.5 -41.5t-45.5 -116.5q0 -74 44.5 -121t129.5 -47h215v326z" />
    <glyph glyph-name="uni0430" unicode="&#x430;" horiz-adv-x="1327" 
d="M827 1450l519 -1450h-394l-94 291h-387l-90 -291h-393l506 1450h333zM553 616h217l-100 424h-11z" />
    <glyph glyph-name="uni0431" unicode="&#x431;" horiz-adv-x="1261" 
d="M1225 473q0 -218 -138.5 -345.5t-379.5 -127.5h-592v1450h991v-307h-623v-225h213q120 0 210 -19t150.5 -54t98 -90.5t54 -124t16.5 -157.5zM483 322h213q89 0 127.5 44t38.5 126q0 159 -168 159h-211v-329z" />
    <glyph glyph-name="uni0432" unicode="&#x432;" horiz-adv-x="1282" 
d="M1167 1008q-2 -60 -40 -130t-109 -106q57 -29 99.5 -69t64 -82t34.5 -87.5t11.5 -84.5t-4.5 -74q-60 -375 -516 -375h-592v1450h581q138 0 246 -52t168.5 -153.5t56.5 -236.5zM483 883h213q43 0 74.5 19t46 48t15 62t-13.5 62t-46 48t-76 19h-213v-258zM483 322h213
q63 0 105.5 30.5t52.5 74t-0.5 87t-53 74t-104.5 30.5h-213v-296z" />
    <glyph glyph-name="uni0433" unicode="&#x433;" horiz-adv-x="1046" 
d="M115 1450h903v-348h-535v-1102h-368v1450z" />
    <glyph glyph-name="uni0434" unicode="&#x434;" horiz-adv-x="1476" 
d="M403 -291h-372v621h131l379 1120h387l391 -1120h127v-621h-373v291h-670v-291zM813 721l-72 319h-8l-63 -323l-109 -387h352z" />
    <glyph glyph-name="uni0435" unicode="&#x435;" 
d="M485 1106v-225h588v-318h-588v-217h639v-346h-1009v1450h1009v-344h-639z" />
    <glyph glyph-name="uni0436" unicode="&#x436;" horiz-adv-x="1941" 
d="M786 0v532l-12 17l-334 -549h-456l516 737l-518 713h442l362 -543v543h369v-543l363 543h442l-518 -713l516 -737h-457l-334 549l-12 -17v-532h-369z" />
    <glyph glyph-name="uni0437" unicode="&#x437;" horiz-adv-x="1165" 
d="M901 772q107 -54 157 -143.5t50 -194.5q0 -215 -153.5 -334.5t-428.5 -119.5q-168 0 -308 75t-222 209l233 182q61 -68 135 -106.5t142 -38.5q112 0 172.5 39.5t60.5 116.5q0 78 -49.5 122t-138.5 44h-215v251h207q82 0 128 40t46 112q0 63 -47.5 100t-137.5 37
q-70 0 -142 -32.5t-122 -69.5l-192 188q180 221 483 221q240 0 370 -110t130 -309q0 -77 -42.5 -159.5t-115.5 -119.5z" />
    <glyph glyph-name="uni0438" unicode="&#x438;" horiz-adv-x="1402" 
d="M920 0v580l36 272l-10 2l-137 -283l-348 -571h-346v1450h368v-657l-30 -218l8 -2l121 261l370 616h336v-1450h-368z" />
    <glyph glyph-name="uni0439" unicode="&#x439;" horiz-adv-x="1402" 
d="M692 1569q-72 0 -138 23t-118 66t-83 112t-31 155h284q0 -38 24.5 -61t61.5 -23t61.5 23t24.5 61h285q0 -113 -54 -196t-136.5 -121.5t-180.5 -38.5zM920 0v580l36 272l-10 2l-137 -283l-348 -571h-346v1450h368v-657l-30 -218l8 -2l121 261l370 616h336v-1450h-368z" />
    <glyph glyph-name="uni043A" unicode="&#x43a;" horiz-adv-x="1310" 
d="M483 913l394 537h456l-573 -713l571 -737h-461l-374 518l-13 -16v-502h-368v1450h368v-537z" />
    <glyph glyph-name="uni043B" unicode="&#x43b;" horiz-adv-x="1298" 
d="M655 1040h-12l-88 -424l-172 -616h-393l487 1450h338l500 -1450h-393l-183 616z" />
    <glyph glyph-name="uni043C" unicode="&#x43c;" horiz-adv-x="1574" 
d="M115 0v1450h366l305 -709l308 709h366v-1450h-368l2 418l22 293l-12 2l-191 -498h-251l-195 498l-10 -2l24 -293v-418h-366z" />
    <glyph glyph-name="uni043D" unicode="&#x43d;" horiz-adv-x="1384" 
d="M483 547v-547h-368v1450h368v-549h418v549h369v-1450h-369v547h-418z" />
    <glyph glyph-name="uni043E" unicode="&#x43e;" horiz-adv-x="1361" 
d="M80 477v496q0 97 33.5 179.5t91 140t134.5 98t163 60t178 19.5t178.5 -19.5t163.5 -60t135 -98.5t91.5 -140t33.5 -179v-496q0 -97 -33.5 -179t-91 -140t-134.5 -98.5t-163 -60t-178 -19.5t-178.5 19.5t-163.5 60t-135 98.5t-91.5 140t-33.5 179zM446 973v-496
q0 -75 70 -116.5t166 -41.5q95 0 164 42t69 116v496q0 54 -35.5 92t-88.5 55t-115 17q-92 0 -161 -44.5t-69 -119.5z" />
    <glyph glyph-name="uni043F" unicode="&#x43f;" horiz-adv-x="1374" 
d="M483 1102v-1102h-368v1450h1145v-1450h-369v1102h-408z" />
    <glyph glyph-name="uni0440" unicode="&#x440;" horiz-adv-x="1265" 
d="M115 0v1450h579q103 0 190.5 -28.5t149.5 -78t105.5 -115t64.5 -139t21 -151.5q0 -99 -34 -189.5t-98.5 -164t-167 -117t-229.5 -43.5h-215v-424h-366zM481 750h213q45 0 81 19.5t54.5 51t27 70t0 77t-27 70t-54.5 51t-81 19.5h-213v-358z" />
    <glyph glyph-name="uni0441" unicode="&#x441;" horiz-adv-x="1191" 
d="M854 453l320 -148q-44 -85 -106.5 -149.5t-133 -102t-141.5 -55.5t-142 -18q-109 0 -210 31.5t-182 91.5t-130 156.5t-49 215.5v500q0 119 49 215t131 156t184 92t213 32q71 0 139 -16.5t137.5 -52.5t130.5 -103.5t103 -160.5l-299 -121q-35 64 -107 93.5t-141 22
t-121.5 -49.5t-52.5 -107v-500q0 -50 34.5 -88.5t86.5 -52.5t108 -10.5t106 38t73 91.5z" />
    <glyph glyph-name="uni0442" unicode="&#x442;" horiz-adv-x="1198" 
d="M1169 1104h-385v-1104h-370v1104h-385v348h1140v-348z" />
    <glyph glyph-name="uni0443" unicode="&#x443;" horiz-adv-x="1230" 
d="M504 1135l98 -263h10l109 283l131 295h408l-656 -1450h-395l213 469l-477 981h415z" />
    <glyph glyph-name="uni0444" unicode="&#x444;" horiz-adv-x="1646" 
d="M649 0v119q-93 0 -178 16.5t-162 53.5t-133 92t-89.5 136.5t-33.5 182.5v250q0 101 33.5 182.5t89.5 136.5t133 92t162 53.5t178 16.5v119h348v-119q93 0 178 -16.5t162 -53.5t133 -92t89.5 -136.5t33.5 -182.5v-250q0 -101 -33.5 -182.5t-89.5 -136.5t-133 -92
t-162 -53.5t-178 -16.5v-119h-348zM422 852v-254q0 -84 61.5 -115.5t165.5 -31.5v548q-104 0 -165.5 -31.5t-61.5 -115.5zM1225 598v254q0 44 -18 74.5t-52 45.5t-71.5 21t-86.5 6v-548q49 0 86.5 6t71.5 21t52 45.5t18 74.5z" />
    <glyph glyph-name="uni0445" unicode="&#x445;" horiz-adv-x="1343" 
d="M670 954l254 496h426l-406 -727l406 -723h-426l-254 494l-248 -494h-428l407 723l-407 727h428z" />
    <glyph glyph-name="uni0446" unicode="&#x446;" horiz-adv-x="1464" 
d="M115 0v1450h368v-1102h396v1102h368v-1102h176v-639h-348v291h-960z" />
    <glyph glyph-name="uni0447" unicode="&#x447;" horiz-adv-x="1308" 
d="M825 0v485q-38 -33 -110.5 -57.5t-153.5 -24.5q-98 0 -186 32t-157.5 92.5t-110.5 157t-41 216.5v549h368v-549q0 -70 41.5 -108.5t116.5 -40.5q68 0 131 17.5t100 51.5l2 629h369v-1450h-369z" />
    <glyph glyph-name="uni0448" unicode="&#x448;" horiz-adv-x="2023" 
d="M115 1450h368v-1102h344v1102h369v-1102h344v1102h369v-1450h-1794v1450z" />
    <glyph glyph-name="uni0449" unicode="&#x449;" horiz-adv-x="2125" 
d="M1540 1450h369v-1102h176v-639h-348v291h-1622v1450h368v-1102h344v1102h369v-1102h344v1102z" />
    <glyph glyph-name="uni044A" unicode="&#x44a;" horiz-adv-x="1462" 
d="M311 1102h-276v348h645v-494h217q144 0 246.5 -32t162 -94t86.5 -143.5t27 -188.5q0 -219 -138 -358.5t-374 -139.5h-596v1102zM680 322h217q45 0 77.5 15t50.5 41t26 56.5t8 67.5q0 79 -43 121.5t-119 42.5h-217v-344z" />
    <glyph glyph-name="uni044B" unicode="&#x44b;" horiz-adv-x="1873" 
d="M1223 498q0 -219 -138 -358.5t-374 -139.5h-596v1450h368v-494h217q144 0 247 -32t162.5 -94t86.5 -143.5t27 -188.5zM1759 1450v-1450h-366v1450h366zM483 322h217q45 0 77.5 15t50.5 41t26 56.5t8 67.5q0 79 -43 121.5t-119 42.5h-217v-344z" />
    <glyph glyph-name="uni044C" unicode="&#x44c;" horiz-adv-x="1265" 
d="M1223 498q0 -219 -138 -358.5t-374 -139.5h-596v1450h368v-494h217q144 0 247 -32t162.5 -94t86.5 -143.5t27 -188.5zM483 322h217q45 0 77.5 15t50.5 41t26 56.5t8 67.5q0 79 -43 121.5t-119 42.5h-217v-344z" />
    <glyph glyph-name="uni044D" unicode="&#x44d;" 
d="M756 477v103h-322v305h322v86q0 72 -61 114.5t-144 42.5q-68 0 -127 -29.5t-90 -86.5l-299 121q42 93 103 161t130 105t137.5 54t139.5 17q88 0 172 -20t157.5 -61.5t129 -100t88 -140t32.5 -177.5v-494q0 -96 -32 -178t-87.5 -140t-129 -99t-155.5 -60.5t-169 -19.5
q-71 0 -142 18.5t-141 56t-132.5 102.5t-106.5 150l319 148q26 -65 84 -96t129 -31q80 2 137.5 42t57.5 107z" />
    <glyph glyph-name="uni044E" unicode="&#x44e;" horiz-adv-x="1996" 
d="M711 899v74q0 121 51.5 218t137 156.5t192 91t221.5 31.5q92 0 178.5 -19.5t164 -60.5t135.5 -98.5t92 -139.5t34 -179v-496q0 -97 -33.5 -179t-91.5 -140t-135 -98.5t-163.5 -60t-178.5 -19.5t-178.5 19.5t-164 60.5t-135.5 98.5t-92 139.5t-34 179v86h-230v-563h-368
v1450h368v-551h230zM1079 958v-473q0 -74 69.5 -115.5t164.5 -41.5q96 0 165.5 41t69.5 116v473q0 78 -69.5 121t-165.5 43q-95 -2 -164.5 -45.5t-69.5 -118.5z" />
    <glyph glyph-name="uni044F" unicode="&#x44f;" horiz-adv-x="1323" 
d="M1208 0h-368v487h-60l-389 -487h-457l443 524q-66 23 -116 56t-92 84.5t-64.5 129.5t-22.5 179q6 228 151 352.5t398 124.5h577v-1450zM840 1102h-215q-83 0 -128.5 -41.5t-45.5 -116.5q0 -74 44.5 -121t129.5 -47h215v326z" />
    <glyph glyph-name="uni0451" unicode="&#x451;" 
d="M213 1708q0 73 50 123.5t122 50.5t122 -50.5t50 -123.5q0 -71 -50 -120.5t-122 -49.5t-122 49.5t-50 120.5zM707 1708q0 74 49 124t123 50q73 0 123.5 -50t50.5 -124q0 -71 -50.5 -120.5t-123.5 -49.5q-74 0 -123 49.5t-49 120.5zM485 1106v-225h588v-318h-588v-217h639
v-346h-1009v1450h1009v-344h-639z" />
    <glyph glyph-name="Wgrave" unicode="&#x1e80;" horiz-adv-x="1873" 
d="M1153 1548h-317l-269 340h381zM1319 752l176 698h379l-418 -1450h-340l-129 401l-51 332h-6l-56 -330l-114 -403h-340l-420 1450h381l172 -694l37 -307h10l35 305l162 508h278l150 -510l47 -303h6z" />
    <glyph glyph-name="wgrave" unicode="&#x1e81;" horiz-adv-x="1873" 
d="M1153 1548h-317l-269 340h381zM1319 752l176 698h379l-418 -1450h-340l-129 401l-51 332h-6l-56 -330l-114 -403h-340l-420 1450h381l172 -694l37 -307h10l35 305l162 508h278l150 -510l47 -303h6z" />
    <glyph glyph-name="Wacute" unicode="&#x1e82;" horiz-adv-x="1873" 
d="M1319 1888l-268 -340h-318l205 340h381zM1319 752l176 698h379l-418 -1450h-340l-129 401l-51 332h-6l-56 -330l-114 -403h-340l-420 1450h381l172 -694l37 -307h10l35 305l162 508h278l150 -510l47 -303h6z" />
    <glyph glyph-name="wacute" unicode="&#x1e83;" horiz-adv-x="1873" 
d="M1319 1888l-268 -340h-318l205 340h381zM1319 752l176 698h379l-418 -1450h-340l-129 401l-51 332h-6l-56 -330l-114 -403h-340l-420 1450h381l172 -694l37 -307h10l35 305l162 508h278l150 -510l47 -303h6z" />
    <glyph glyph-name="Wdieresis" unicode="&#x1e84;" horiz-adv-x="1873" 
d="M524 1708q0 73 50 123.5t122 50.5t122 -50.5t50 -123.5q0 -71 -50 -120.5t-122 -49.5t-122 49.5t-50 120.5zM1018 1708q0 74 49 124t123 50t124 -50t50 -124q0 -71 -50.5 -120.5t-123.5 -49.5q-74 0 -123 49.5t-49 120.5zM1319 752l176 698h379l-418 -1450h-340l-129 401
l-51 332h-6l-56 -330l-114 -403h-340l-420 1450h381l172 -694l37 -307h10l35 305l162 508h278l150 -510l47 -303h6z" />
    <glyph glyph-name="wdieresis" unicode="&#x1e85;" horiz-adv-x="1873" 
d="M524 1708q0 73 50 123.5t122 50.5t122 -50.5t50 -123.5q0 -71 -50 -120.5t-122 -49.5t-122 49.5t-50 120.5zM1018 1708q0 74 49 124t123 50t124 -50t50 -124q0 -71 -50.5 -120.5t-123.5 -49.5q-74 0 -123 49.5t-49 120.5zM1319 752l176 698h379l-418 -1450h-340l-129 401
l-51 332h-6l-56 -330l-114 -403h-340l-420 1450h381l172 -694l37 -307h10l35 305l162 508h278l150 -510l47 -303h6z" />
    <glyph glyph-name="Ygrave" unicode="&#x1ef2;" horiz-adv-x="1341" 
d="M872 1548h-317l-268 340h381zM854 0h-367v571l-505 879h426l262 -532l262 532h430l-508 -879v-571z" />
    <glyph glyph-name="ygrave" unicode="&#x1ef3;" horiz-adv-x="1341" 
d="M872 1548h-317l-268 340h381zM854 0h-367v571l-505 879h426l262 -532l262 532h430l-508 -879v-571z" />
    <glyph glyph-name="endash" unicode="&#x2013;" horiz-adv-x="1169" 
d="M1075 766v-346h-981v346h981z" />
    <glyph glyph-name="emdash" unicode="&#x2014;" horiz-adv-x="1777" 
d="M1683 766v-346h-1589v346h1589z" />
    <glyph glyph-name="quoteleft" unicode="&#x2018;" horiz-adv-x="634" 
d="M47 1008l232 444h321l-139 -444h-414z" />
    <glyph glyph-name="quoteright" unicode="&#x2019;" horiz-adv-x="612" 
d="M592 1446l-211 -422h-322l119 422h414z" />
    <glyph glyph-name="quotesinglbase" unicode="&#x201a;" horiz-adv-x="604" 
d="M532 236l-239 -449h-311l151 449h399z" />
    <glyph glyph-name="quotedblleft" unicode="&#x201c;" horiz-adv-x="1114" 
d="M47 1008l232 444h321l-139 -444h-414zM526 1008l232 444h321l-139 -444h-414z" />
    <glyph glyph-name="quotedblright" unicode="&#x201d;" horiz-adv-x="1085" 
d="M592 1446l-211 -422h-322l119 422h414zM1065 1446l-211 -422h-322l119 422h414z" />
    <glyph glyph-name="quotedblbase" unicode="&#x201e;" horiz-adv-x="1060" 
d="M530 213l-239 -426h-311l151 426h399zM989 213l-239 -426h-312l150 426h401z" />
    <glyph glyph-name="dagger" unicode="&#x2020;" horiz-adv-x="1046" 
d="M51 713v348h297v389h350v-389h297v-348h-297v-910h-350v910h-297z" />
    <glyph glyph-name="daggerdbl" unicode="&#x2021;" horiz-adv-x="1120" 
d="M88 141v340h297v289h-297v338h297v342h350v-342h297v-338h-297v-289h297v-340h-297v-338h-350v338h-297z" />
    <glyph glyph-name="bullet" unicode="&#x2022;" horiz-adv-x="860" 
d="M98 678q0 137 97.5 234.5t236.5 97.5q136 0 233 -97.5t97 -234.5q0 -138 -97 -236t-233 -98q-139 0 -236.5 98t-97.5 236z" />
    <glyph glyph-name="ellipsis" unicode="&#x2026;" horiz-adv-x="1609" 
d="M59 195q0 85 59.5 143.5t147.5 58.5q85 0 144 -58.5t59 -143.5q0 -86 -59 -146.5t-144 -60.5q-87 0 -147 60t-60 147zM602 195q0 85 58 143.5t143 58.5q88 0 147.5 -58.5t59.5 -143.5q0 -87 -60 -147t-147 -60q-85 0 -143 60.5t-58 146.5zM1141 195q0 85 58 143.5
t144 58.5q89 0 147 -58.5t58 -143.5q0 -87 -58.5 -147t-146.5 -60q-86 0 -144 60t-58 147z" />
    <glyph glyph-name="perthousand" unicode="&#x2030;" horiz-adv-x="2195" 
d="M113 14l1007 1557l264 -176l-1007 -1551zM666 1108q0 -166 -87 -264.5t-223 -98.5q-146 0 -224.5 94t-78.5 273q0 162 84.5 260t218.5 98q149 0 229.5 -94t80.5 -268zM422 1108q0 123 -68 123q-32 0 -51.5 -30t-19.5 -91q0 -121 71 -121q68 0 68 119zM1464 350
q0 -166 -86.5 -264t-222.5 -98q-146 0 -224.5 93.5t-78.5 272.5q0 162 84.5 260.5t218.5 98.5q149 0 229 -94.5t80 -268.5zM2148 350q0 -166 -86.5 -264t-222.5 -98q-146 0 -224.5 93.5t-78.5 272.5q0 162 84.5 260.5t218.5 98.5q149 0 229 -94.5t80 -268.5zM1221 350
q0 123 -68 123q-32 0 -52 -30.5t-20 -90.5q0 -121 72 -121q68 0 68 119zM1905 350q0 123 -68 123q-32 0 -52 -30.5t-20 -90.5q0 -121 72 -121q68 0 68 119z" />
    <glyph glyph-name="guilsinglleft" unicode="&#x2039;" horiz-adv-x="720" 
d="M367 1075l295 -178l-211 -307q32 -49 107 -160.5t104 -157.5l-297 -174l-326 490z" />
    <glyph glyph-name="guilsinglright" unicode="&#x203a;" horiz-adv-x="720" 
d="M360 100l-303 172l211 316l-209 309l297 176l326 -485z" />
    <glyph glyph-name="fraction" unicode="&#x2044;" horiz-adv-x="1193" 
d="M1206 1403l-930 -1561l-288 178l930 1559z" />
    <glyph glyph-name="Euro" unicode="&#x20ac;" horiz-adv-x="1320" 
d="M178 963v8q0 119 48 215.5t129 157.5t182.5 93.5t212.5 32.5q71 0 139.5 -17t137.5 -54t130 -105t103 -161l-299 -121q-35 64 -107 93.5t-141 22t-121.5 -49.5t-52.5 -107v-8h364l-47 -222h-317v-63h364l-47 -221h-315q7 -46 43.5 -79.5t87.5 -45t104.5 -6t100.5 39.5
t69 89l320 -148q-85 -165 -228.5 -246t-294.5 -81q-107 0 -205 30.5t-177.5 88.5t-129 150.5t-53.5 207.5h-127l45 221h82v63h-127l45 222h82z" />
    <glyph glyph-name="uni2113" unicode="&#x2113;" horiz-adv-x="921" 
d="M696 354l178 -204q-70 -85 -170.5 -127t-195 -34.5t-173.5 69.5t-106 169l-75 -57l-121 279l166 141v379q0 94 13.5 171t38.5 130t56.5 91.5t71 60.5t79 32t83.5 10q150 0 228.5 -103.5t78.5 -268.5q0 -305 -309 -639v-15q0 -65 22 -98t58 -28.5t77 42.5zM481 821v-10
q84 176 84 272q0 97 -30 105q-23 6 -43 -43q-41 -96 -20 -264z" />
    <glyph glyph-name="trademark" unicode="&#x2122;" horiz-adv-x="1767" 
d="M240 592v528h-181v332h703v-332h-184v-528h-338zM821 596v856h281l141 -270l146 270h272v-856h-305l6 244l-86 -150h-51l-92 152l4 -246h-316z" />
    <glyph glyph-name="Omega" unicode="&#x2126;" horiz-adv-x="1585" 
d="M848 0l-2 293q93 38 161.5 110.5t102 159t33.5 178.5q0 72 -21.5 135.5t-64 114.5t-112 81t-157.5 30q-83 0 -149.5 -31.5t-108 -84.5t-63 -119.5t-21.5 -141.5q0 -89 32 -172.5t98 -153.5t157 -106v-293h-653v360h162q-152 158 -152 406q0 167 59.5 301t159 217
t222.5 126.5t257 43.5q107 0 209.5 -27.5t193.5 -84.5t159.5 -136.5t108.5 -191t40 -240.5q0 -119 -42 -232.5t-114 -181.5h158v-360h-653z" />
    <glyph glyph-name="estimated" unicode="&#x212e;" horiz-adv-x="1634" 
d="M555 532v-63q0 -18 1 -45.5t1 -48.5q118 -103 266 -103q111 0 223 45.5t181 145.5l342 -2q-73 -126 -167 -220.5t-193 -148.5t-196 -80t-192 -26q-153 0 -293.5 54.5t-242 146.5t-162 220.5t-60.5 270.5q0 188 102 348.5t276.5 254t379.5 93.5q155 0 296.5 -55.5
t243.5 -148.5t162 -222t60 -270v-146h-1028zM1092 821v156q-125 104 -269 104q-149 0 -268 -104v-156h537z" />
    <glyph glyph-name="partialdiff" unicode="&#x2202;" horiz-adv-x="1036" 
d="M272 1055l-155 233q196 127 350 127q76 0 147.5 -24t137 -77t114 -130.5t77 -193t28.5 -255.5q0 -219 -59 -386t-177 -264t-280 -97q-99 0 -176.5 38t-125.5 103.5t-74 147.5t-28 174q-3 113 34.5 212t101 164t143.5 102.5t162 37.5q63 0 133 -25q-5 94 -63 138t-137 35
t-153 -60zM457 313h16q29 -1 59.5 31.5t55.5 85.5q36 76 39 197q-111 82 -184 5q-53 -57 -60 -161q-7 -98 32 -140q19 -18 42 -18z" />
    <glyph glyph-name="Delta" unicode="&#x2206;" horiz-adv-x="1198" 
d="M457 1382h284l408 -1161v-221h-1100v219zM594 905l-150 -559h297z" />
    <glyph glyph-name="product" unicode="&#x220f;" horiz-adv-x="1294" 
d="M1079 -109h-346v1217h-174v-1217h-348v1217h-156v344h1186v-344h-162v-1217z" />
    <glyph glyph-name="summation" unicode="&#x2211;" horiz-adv-x="1120" 
d="M55 106l387 533q-57 84 -180.5 278.5t-185.5 284.5v244h958v-301h-495q43 -65 154.5 -243.5t168.5 -262.5l-340 -457h537v-315h-1004v239z" />
    <glyph glyph-name="minus" unicode="&#x2212;" horiz-adv-x="1239" 
d="M1143 776v-344h-1047v344h1047z" />
    <glyph glyph-name="uni2215" unicode="&#x2215;" horiz-adv-x="1153" 
d="M1178 1438l-912 -1538l-289 178l912 1536z" />
    <glyph glyph-name="uni2219" unicode="&#x2219;" horiz-adv-x="540" 
d="M68 621q0 88 57 147t147 59q87 0 144 -59.5t57 -146.5q0 -85 -57 -143t-144 -58q-90 0 -147 57.5t-57 143.5z" />
    <glyph glyph-name="radical" unicode="&#x221a;" horiz-adv-x="1107" 
d="M440 -238l-221 697l-115 -31l-108 297l444 170l115 -580l193 1239h356l-377 -1792h-287z" />
    <glyph glyph-name="infinity" unicode="&#x221e;" horiz-adv-x="1374" 
d="M1317 584v-2q0 -80 -30.5 -149t-81 -116t-115.5 -73.5t-134 -26.5q-170 0 -268 125q-112 -125 -276 -125q-148 0 -250.5 103t-102.5 255q0 160 102.5 264.5t260.5 104.5t272 -137q120 142 275 137q156 -6 252 -104.5t96 -255.5zM420 664q-37 0 -62 -17t-31 -41.5
t-0.5 -49t30.5 -41.5t61 -17q46 0 127 84q-82 82 -125 82zM961 664q-43 0 -125 -82q81 -84 127 -84q36 0 61 17t30.5 41.5t-0.5 49t-31 41.5t-62 17z" />
    <glyph glyph-name="integral" unicode="&#x222b;" horiz-adv-x="784" 
d="M780 1520l-69 -201q-34 17 -63.5 17.5t-49 -28t-20.5 -81.5l10 -1118q0 -170 -94.5 -263.5t-233.5 -93.5q-120 0 -260 88l88 217q51 -38 95 -22.5t44 74.5q0 128 -18 1126q0 174 93.5 271.5t229.5 97.5q133 0 248 -84z" />
    <glyph glyph-name="approxequal" unicode="&#x2248;" horiz-adv-x="1017" 
d="M764 1016l184 -152q-121 -223 -299 -223q-90 0 -213 55q-123 61 -207 -32l-168 153q65 106 142 166t151 66q38 6 85.5 -11.5t88 -39.5t82 -38t81.5 -4t73 60zM756 610l198 -147q-127 -232 -307 -232q-100 0 -209 66q-58 35 -80 35q-25 0 -102 -80l-186 160
q42 67 76.5 111.5t70.5 72.5t67.5 40t73.5 9.5t83 -14t100 -35.5v2q15 -5 39 -14t31 -11.5t23.5 -5.5t24 -1t24 6.5t32.5 13.5t41 24z" />
    <glyph glyph-name="notequal" unicode="&#x2260;" horiz-adv-x="1081" 
d="M78 233v291h284l46 86h-330v291h483l103 197l247 -113l-45 -84h135v-291h-288l-45 -86h333v-291h-487l-100 -192l-248 104l45 88h-133z" />
    <glyph glyph-name="lessequal" unicode="&#x2264;" horiz-adv-x="1001" 
d="M885 977l-297 -158q4 -2 10.5 -6t27.5 -14t48.5 -23t85 -41.5t125.5 -62.5v-303h33v-342h-844v342h665l-657 344v215l803 424v-375z" />
    <glyph glyph-name="greaterequal" unicode="&#x2265;" horiz-adv-x="1001" 
d="M920 920v-213l-633 -332h641v-338h-844v338h33v291l235 118l60 29l-295 154v379z" />
    <glyph glyph-name="lozenge" unicode="&#x25ca;" horiz-adv-x="1138" 
d="M442 -49l-401 727l412 731h239l406 -727l-410 -731h-246zM395 678l178 -320l170 314l-176 327z" />
    <glyph glyph-name="i.loclTRK" horiz-adv-x="595" 
d="M481 1450v-1450h-366v1450h366z" />
    <glyph glyph-name="uni0414.loclBGR" horiz-adv-x="1476" 
d="M403 -291h-372v621h131l379 1120h387l391 -1120h127v-621h-373v291h-670v-291zM813 721l-72 319h-8l-63 -323l-109 -387h352z" />
    <glyph glyph-name="uni041B.loclBGR" horiz-adv-x="1298" 
d="M655 1040h-12l-88 -424l-172 -616h-393l487 1450h338l500 -1450h-393l-183 616z" />
    <glyph glyph-name="uni0432.loclBGR" horiz-adv-x="1282" 
d="M1167 1008q-2 -60 -40 -130t-109 -106q57 -29 99.5 -69t64 -82t34.5 -87.5t11.5 -84.5t-4.5 -74q-60 -375 -516 -375h-592v1450h581q138 0 246 -52t168.5 -153.5t56.5 -236.5zM483 883h213q43 0 74.5 19t46 48t15 62t-13.5 62t-46 48t-76 19h-213v-258zM483 322h213
q63 0 105.5 30.5t52.5 74t-0.5 87t-53 74t-104.5 30.5h-213v-296z" />
    <glyph glyph-name="uni0433.loclBGR" horiz-adv-x="1046" 
d="M115 1450h903v-348h-535v-1102h-368v1450z" />
    <glyph glyph-name="uni0434.loclBGR" horiz-adv-x="1476" 
d="M403 -291h-372v621h131l379 1120h387l391 -1120h127v-621h-373v291h-670v-291zM813 721l-72 319h-8l-63 -323l-109 -387h352z" />
    <glyph glyph-name="uni0436.loclBGR" horiz-adv-x="1941" 
d="M786 0v532l-12 17l-334 -549h-456l516 737l-518 713h442l362 -543v543h369v-543l363 543h442l-518 -713l516 -737h-457l-334 549l-12 -17v-532h-369z" />
    <glyph glyph-name="uni0438.loclBGR" horiz-adv-x="1402" 
d="M920 0v580l36 272l-10 2l-137 -283l-348 -571h-346v1450h368v-657l-30 -218l8 -2l121 261l370 616h336v-1450h-368z" />
    <glyph glyph-name="uni0439.loclBGR" horiz-adv-x="1402" 
d="M692 1569q-72 0 -138 23t-118 66t-83 112t-31 155h284q0 -38 24.5 -61t61.5 -23t61.5 23t24.5 61h285q0 -113 -54 -196t-136.5 -121.5t-180.5 -38.5zM920 0v580l36 272l-10 2l-137 -283l-348 -571h-346v1450h368v-657l-30 -218l8 -2l121 261l370 616h336v-1450h-368z" />
    <glyph glyph-name="uni043A.loclBGR" horiz-adv-x="1310" 
d="M483 913l394 537h456l-573 -713l571 -737h-461l-374 518l-13 -16v-502h-368v1450h368v-537z" />
    <glyph glyph-name="uni043B.loclBGR" horiz-adv-x="1298" 
d="M655 1040h-12l-88 -424l-172 -616h-393l487 1450h338l500 -1450h-393l-183 616z" />
    <glyph glyph-name="uni043F.loclBGR" horiz-adv-x="1374" 
d="M483 1102v-1102h-368v1450h1145v-1450h-369v1102h-408z" />
    <glyph glyph-name="uni0442.loclBGR" horiz-adv-x="1198" 
d="M1169 1104h-385v-1104h-370v1104h-385v348h1140v-348z" />
    <glyph glyph-name="uni0446.loclBGR" horiz-adv-x="1464" 
d="M115 0v1450h368v-1102h396v1102h368v-1102h176v-639h-348v291h-960z" />
    <glyph glyph-name="uni0448.loclBGR" horiz-adv-x="2023" 
d="M115 1450h368v-1102h344v1102h369v-1102h344v1102h369v-1450h-1794v1450z" />
    <glyph glyph-name="uni0449.loclBGR" horiz-adv-x="2125" 
d="M1540 1450h369v-1102h176v-639h-348v291h-1622v1450h368v-1102h344v1102h369v-1102h344v1102z" />
    <glyph glyph-name="uni044E.loclBGR" horiz-adv-x="1996" 
d="M711 899v74q0 121 51.5 218t137 156.5t192 91t221.5 31.5q92 0 178.5 -19.5t164 -60.5t135.5 -98.5t92 -139.5t34 -179v-496q0 -97 -33.5 -179t-91.5 -140t-135 -98.5t-163.5 -60t-178.5 -19.5t-178.5 19.5t-164 60.5t-135.5 98.5t-92 139.5t-34 179v86h-230v-563h-368
v1450h368v-551h230zM1079 958v-473q0 -74 69.5 -115.5t164.5 -41.5q96 0 165.5 41t69.5 116v473q0 78 -69.5 121t-165.5 43q-95 -2 -164.5 -45.5t-69.5 -118.5z" />
    <glyph glyph-name="at.001" horiz-adv-x="1536" 
d="M961 1102l147 -37q-49 69 -148.5 106t-195.5 37q-119 0 -218 -50t-161.5 -131.5t-96.5 -180.5t-34 -201q0 -160 78 -276t211.5 -156t310.5 8l55 -196q-136 -43 -256 -43q-135 0 -256.5 52t-210.5 143.5t-138 227t-42 293.5q8 111 45 219t102.5 204t151.5 169.5t200 116.5
t240 43q108 0 216 -27q133 -38 247.5 -125t169.5 -192q61 -118 64.5 -262.5t-49.5 -277.5t-152 -218q-49 -45 -123.5 -74.5t-148.5 -29.5q-90 0 -150 43q-62 -39 -145 -39q-161 0 -262 112.5t-101 282.5q0 127 52.5 241.5t145.5 185.5t200 71q113 0 215 -82zM1143 1014
l-96 -525q77 34 117.5 127t37.5 193.5t-41 167.5zM705 500q60 0 92 32l65 302q-93 98 -179 52q-64 -34 -92 -128q-31 -105 9 -189q10 -20 23 -37q29 -32 82 -32z" />
    </font>
</defs>
</svg>
